M48
; DRILL file {KiCad 8.0.8} date 2025-08-23T08:44:03-0400
; FORMAT={-:-/ absolute / metric / decimal}
; #@! TF.CreationDate,2025-08-23T08:44:03-04:00
; #@! TF.GenerationSoftware,Kicad,Pcbnew,8.0.8
; #@! TF.FileFunction,Plated,1,4,PTH
FMAT,2
METRIC
; #@! TA.AperFunction,Plated,PTH,ViaDrill
T1C0.300
; #@! TA.AperFunction,Plated,PTH,ComponentDrill
T2C0.600
; #@! TA.AperFunction,Plated,PTH,ComponentDrill
T3C1.000
%
G90
G05
T1
X34.5Y-37.5
X35.5Y-24.5
X36.0Y-37.5
X37.0Y-42.5
X37.0Y-43.5
X37.2Y-38.7
X37.75Y-46.0
X37.75Y-47.0
X38.0Y-45.0
X38.574Y-24.675
X38.75Y-45.0
X38.8Y-26.075
X38.8Y-26.925
X40.0Y-47.0
X40.0Y-48.0
X41.5Y-48.75
X42.5Y-48.75
X45.0Y-48.75
X46.0Y-48.75
X48.0Y-38.0
X48.0Y-39.0
X48.0Y-40.0
X48.0Y-41.0
X48.0Y-42.0
X49.0Y-38.0
X49.0Y-39.0
X49.0Y-40.0
X49.0Y-41.0
X49.0Y-42.0
X51.25Y-49.0
X52.2Y-45.2
X53.5Y-48.75
X53.6Y-45.2
X55.0Y-45.2
X55.0Y-48.75
X56.176Y-39.776
X56.2Y-40.6
X56.8Y-41.8
X58.0Y-41.8
X58.8Y-41.8
X59.8Y-39.0
X59.8Y-39.8
X59.8Y-40.8
X60.8Y-36.8
X61.4Y-42.6
X61.4Y-45.2
X61.5Y-24.25
X61.5Y-27.0
X61.8Y-36.8
X65.175Y-42.8
X66.025Y-42.8
T3
X46.18Y-22.0
X48.72Y-22.0
X51.26Y-22.0
X53.8Y-22.0
T2
G00X32.825Y-21.68
M15
G01X32.025Y-21.68
M16
G05
G00X32.825Y-30.32
M15
G01X32.025Y-30.32
M16
G05
G00X37.155Y-21.68
M15
G01X36.055Y-21.68
M16
G05
G00X37.155Y-30.32
M15
G01X36.055Y-30.32
M16
G05
G00X62.845Y-21.68
M15
G01X63.945Y-21.68
M16
G05
G00X62.845Y-30.32
M15
G01X63.945Y-30.32
M16
G05
G00X62.845Y-39.68
M15
G01X63.945Y-39.68
M16
G05
G00X62.845Y-48.32
M15
G01X63.945Y-48.32
M16
G05
G00X67.175Y-21.68
M15
G01X67.975Y-21.68
M16
G05
G00X67.175Y-30.32
M15
G01X67.975Y-30.32
M16
G05
G00X67.175Y-39.68
M15
G01X67.975Y-39.68
M16
G05
G00X67.175Y-48.32
M15
G01X67.975Y-48.32
M16
G05
M30
