G04 #@! TF.GenerationSoftware,KiCad,Pcbnew,8.0.8*
G04 #@! TF.CreationDate,2025-08-23T08:43:18-04:00*
G04 #@! TF.ProjectId,project-hw-usbc-mux-demux,70726f6a-6563-4742-9d68-772d75736263,rev?*
G04 #@! TF.SameCoordinates,Original*
G04 #@! TF.FileFunction,Copper,L1,Top*
G04 #@! TF.FilePolarity,Positive*
%FSLAX46Y46*%
G04 Gerber Fmt 4.6, Leading zero omitted, Abs format (unit mm)*
G04 Created by KiCad (PCBNEW 8.0.8) date 2025-08-23 08:43:18*
%MOMM*%
%LPD*%
G01*
G04 APERTURE LIST*
G04 Aperture macros list*
%AMRoundRect*
0 Rectangle with rounded corners*
0 $1 Rounding radius*
0 $2 $3 $4 $5 $6 $7 $8 $9 X,Y pos of 4 corners*
0 Add a 4 corners polygon primitive as box body*
4,1,4,$2,$3,$4,$5,$6,$7,$8,$9,$2,$3,0*
0 Add four circle primitives for the rounded corners*
1,1,$1+$1,$2,$3*
1,1,$1+$1,$4,$5*
1,1,$1+$1,$6,$7*
1,1,$1+$1,$8,$9*
0 Add four rect primitives between the rounded corners*
20,1,$1+$1,$2,$3,$4,$5,0*
20,1,$1+$1,$4,$5,$6,$7,0*
20,1,$1+$1,$6,$7,$8,$9,0*
20,1,$1+$1,$8,$9,$2,$3,0*%
G04 Aperture macros list end*
G04 #@! TA.AperFunction,SMDPad,CuDef*
%ADD10RoundRect,0.150000X0.415000X-0.150000X0.415000X0.150000X-0.415000X0.150000X-0.415000X-0.150000X0*%
G04 #@! TD*
G04 #@! TA.AperFunction,SMDPad,CuDef*
%ADD11RoundRect,0.075000X0.500000X-0.075000X0.500000X0.075000X-0.500000X0.075000X-0.500000X-0.075000X0*%
G04 #@! TD*
G04 #@! TA.AperFunction,HeatsinkPad*
%ADD12O,2.100000X1.000000*%
G04 #@! TD*
G04 #@! TA.AperFunction,HeatsinkPad*
%ADD13O,1.800000X1.000000*%
G04 #@! TD*
G04 #@! TA.AperFunction,SMDPad,CuDef*
%ADD14RoundRect,0.150000X-0.415000X0.150000X-0.415000X-0.150000X0.415000X-0.150000X0.415000X0.150000X0*%
G04 #@! TD*
G04 #@! TA.AperFunction,SMDPad,CuDef*
%ADD15RoundRect,0.075000X-0.500000X0.075000X-0.500000X-0.075000X0.500000X-0.075000X0.500000X0.075000X0*%
G04 #@! TD*
G04 #@! TA.AperFunction,SMDPad,CuDef*
%ADD16C,1.000000*%
G04 #@! TD*
G04 #@! TA.AperFunction,ComponentPad*
%ADD17R,1.700000X1.700000*%
G04 #@! TD*
G04 #@! TA.AperFunction,ComponentPad*
%ADD18O,1.700000X1.700000*%
G04 #@! TD*
G04 #@! TA.AperFunction,SMDPad,CuDef*
%ADD19RoundRect,0.050000X0.375000X0.050000X-0.375000X0.050000X-0.375000X-0.050000X0.375000X-0.050000X0*%
G04 #@! TD*
G04 #@! TA.AperFunction,SMDPad,CuDef*
%ADD20RoundRect,0.050000X0.050000X0.275000X-0.050000X0.275000X-0.050000X-0.275000X0.050000X-0.275000X0*%
G04 #@! TD*
G04 #@! TA.AperFunction,SMDPad,CuDef*
%ADD21RoundRect,0.150000X-0.375000X-0.150000X0.375000X-0.150000X0.375000X0.150000X-0.375000X0.150000X0*%
G04 #@! TD*
G04 #@! TA.AperFunction,SMDPad,CuDef*
%ADD22RoundRect,0.200000X-0.275000X0.200000X-0.275000X-0.200000X0.275000X-0.200000X0.275000X0.200000X0*%
G04 #@! TD*
G04 #@! TA.AperFunction,SMDPad,CuDef*
%ADD23RoundRect,0.200000X-0.200000X-0.275000X0.200000X-0.275000X0.200000X0.275000X-0.200000X0.275000X0*%
G04 #@! TD*
G04 #@! TA.AperFunction,SMDPad,CuDef*
%ADD24RoundRect,0.200000X0.275000X-0.200000X0.275000X0.200000X-0.275000X0.200000X-0.275000X-0.200000X0*%
G04 #@! TD*
G04 #@! TA.AperFunction,SMDPad,CuDef*
%ADD25RoundRect,0.200000X-0.200000X0.250000X-0.200000X-0.250000X0.200000X-0.250000X0.200000X0.250000X0*%
G04 #@! TD*
G04 #@! TA.AperFunction,SMDPad,CuDef*
%ADD26RoundRect,0.475000X-0.475000X-2.075000X0.475000X-2.075000X0.475000X2.075000X-0.475000X2.075000X0*%
G04 #@! TD*
G04 #@! TA.AperFunction,SMDPad,CuDef*
%ADD27RoundRect,0.150000X0.150000X0.200000X-0.150000X0.200000X-0.150000X-0.200000X0.150000X-0.200000X0*%
G04 #@! TD*
G04 #@! TA.AperFunction,SMDPad,CuDef*
%ADD28RoundRect,0.218750X0.256250X-0.218750X0.256250X0.218750X-0.256250X0.218750X-0.256250X-0.218750X0*%
G04 #@! TD*
G04 #@! TA.AperFunction,SMDPad,CuDef*
%ADD29RoundRect,0.250000X-1.100000X0.325000X-1.100000X-0.325000X1.100000X-0.325000X1.100000X0.325000X0*%
G04 #@! TD*
G04 #@! TA.AperFunction,SMDPad,CuDef*
%ADD30RoundRect,0.250000X-0.325000X-1.100000X0.325000X-1.100000X0.325000X1.100000X-0.325000X1.100000X0*%
G04 #@! TD*
G04 #@! TA.AperFunction,SMDPad,CuDef*
%ADD31RoundRect,0.225000X0.250000X-0.225000X0.250000X0.225000X-0.250000X0.225000X-0.250000X-0.225000X0*%
G04 #@! TD*
G04 #@! TA.AperFunction,ViaPad*
%ADD32C,0.600000*%
G04 #@! TD*
G04 #@! TA.AperFunction,Conductor*
%ADD33C,0.200000*%
G04 #@! TD*
G04 #@! TA.AperFunction,Conductor*
%ADD34C,0.500000*%
G04 #@! TD*
G04 APERTURE END LIST*
D10*
X62810000Y-47200000D03*
X62810000Y-46400000D03*
D11*
X62820000Y-45250000D03*
X62820000Y-44250000D03*
X62820000Y-43750000D03*
X62820000Y-42750000D03*
D10*
X62810000Y-41600000D03*
X62810000Y-40800000D03*
X62810000Y-40800000D03*
X62810000Y-41600000D03*
D11*
X62820000Y-42250000D03*
X62820000Y-43250000D03*
X62820000Y-44750000D03*
X62820000Y-45750000D03*
D10*
X62810000Y-46400000D03*
X62810000Y-47200000D03*
D12*
X63395000Y-48320000D03*
D13*
X67575000Y-48320000D03*
D12*
X63395000Y-39680000D03*
D13*
X67575000Y-39680000D03*
D10*
X62810000Y-29200000D03*
X62810000Y-28400000D03*
D11*
X62820000Y-27250000D03*
X62820000Y-26250000D03*
X62820000Y-25750000D03*
X62820000Y-24750000D03*
D10*
X62810000Y-23600000D03*
X62810000Y-22800000D03*
X62810000Y-22800000D03*
X62810000Y-23600000D03*
D11*
X62820000Y-24250000D03*
X62820000Y-25250000D03*
X62820000Y-26750000D03*
X62820000Y-27750000D03*
D10*
X62810000Y-28400000D03*
X62810000Y-29200000D03*
D12*
X63395000Y-30320000D03*
D13*
X67575000Y-30320000D03*
D12*
X63395000Y-21680000D03*
D13*
X67575000Y-21680000D03*
D14*
X37190000Y-22800000D03*
X37190000Y-23600000D03*
D15*
X37180000Y-24750000D03*
X37180000Y-25750000D03*
X37180000Y-26250000D03*
X37180000Y-27250000D03*
D14*
X37190000Y-28400000D03*
X37190000Y-29200000D03*
X37190000Y-29200000D03*
X37190000Y-28400000D03*
D15*
X37180000Y-27750000D03*
X37180000Y-26750000D03*
X37180000Y-25250000D03*
X37180000Y-24250000D03*
D14*
X37190000Y-23600000D03*
X37190000Y-22800000D03*
D12*
X36605000Y-21680000D03*
D13*
X32425000Y-21680000D03*
D12*
X36605000Y-30320000D03*
D13*
X32425000Y-30320000D03*
D16*
X63000000Y-36500000D03*
D17*
X53800000Y-22000000D03*
D18*
X51260000Y-22000000D03*
X48720000Y-22000000D03*
X46180000Y-22000000D03*
D19*
X58725000Y-40200000D03*
X58725000Y-39800000D03*
D20*
X58600000Y-39175000D03*
X58200000Y-39175000D03*
X57800000Y-39175000D03*
X57400000Y-39175000D03*
D19*
X57275000Y-39800000D03*
X57275000Y-40200000D03*
D20*
X57400000Y-40825000D03*
X57800000Y-40825000D03*
X58200000Y-40825000D03*
X58600000Y-40825000D03*
D21*
X35700000Y-42050000D03*
X35700000Y-43000000D03*
X35700000Y-43950000D03*
X38300000Y-43950000D03*
X38300000Y-43000000D03*
X38300000Y-42050000D03*
D22*
X50000000Y-45825000D03*
X50000000Y-44175000D03*
X53500000Y-46175000D03*
X53500000Y-47825000D03*
X55000000Y-46175000D03*
X55000000Y-47825000D03*
X59500000Y-36825000D03*
X59500000Y-35175000D03*
D23*
X53325000Y-33000000D03*
X51675000Y-33000000D03*
D24*
X36000000Y-40325000D03*
X36000000Y-38675000D03*
D22*
X34500000Y-38675000D03*
X34500000Y-40325000D03*
D25*
X56500000Y-37100000D03*
X55550000Y-34900000D03*
X57450000Y-34900000D03*
X52500000Y-37100000D03*
X51550000Y-34900000D03*
X53450000Y-34900000D03*
D26*
X41400000Y-40000000D03*
X45600000Y-40000000D03*
D27*
X53200000Y-31500000D03*
X51800000Y-31500000D03*
D28*
X50000000Y-47212500D03*
X50000000Y-48787500D03*
D29*
X45500000Y-44525000D03*
X45500000Y-47475000D03*
D30*
X33525000Y-46500000D03*
X36475000Y-46500000D03*
D31*
X39000000Y-40275000D03*
X39000000Y-38725000D03*
D29*
X42000000Y-44525000D03*
X42000000Y-47475000D03*
D32*
X37200000Y-38700000D03*
X34500000Y-37500000D03*
X61800000Y-36800000D03*
X59800000Y-39000000D03*
X52200000Y-45200000D03*
X58800000Y-41800000D03*
X61400000Y-42600000D03*
X59800000Y-39800000D03*
X61400000Y-45200000D03*
X59800000Y-40800000D03*
X53600000Y-45200000D03*
X56175735Y-39775735D03*
X55000000Y-45200000D03*
X56200000Y-40600000D03*
X66025000Y-42800000D03*
X65175000Y-42800000D03*
X38800000Y-26925000D03*
X38800000Y-26075000D03*
X36000000Y-37500000D03*
X49000000Y-38000000D03*
X49000000Y-39000000D03*
X49000000Y-40000000D03*
X49000000Y-41000000D03*
X49000000Y-42000000D03*
X48000000Y-42000000D03*
X48000000Y-41000000D03*
X48000000Y-40000000D03*
X48000000Y-39000000D03*
X48000000Y-38000000D03*
X55000000Y-48750000D03*
X53500000Y-48750000D03*
X51250000Y-49000000D03*
X60800000Y-36800000D03*
X56800000Y-41800000D03*
X58000000Y-41800000D03*
X61500000Y-24250000D03*
X35500000Y-24500000D03*
X61500000Y-27000000D03*
X38573818Y-24675000D03*
X40000000Y-48000000D03*
X40000000Y-47000000D03*
X42500000Y-48750000D03*
X41500000Y-48750000D03*
X46000000Y-48750000D03*
X45000000Y-48750000D03*
X37000000Y-43500000D03*
X37000000Y-42500000D03*
X37750000Y-47000000D03*
X37750000Y-46000000D03*
X38750000Y-45000000D03*
X38000000Y-45000000D03*
D33*
X34500000Y-38675000D02*
X34500000Y-37500000D01*
X57800000Y-41600000D02*
X57800000Y-40825000D01*
X58000000Y-41800000D02*
X58200000Y-41600000D01*
X58200000Y-41600000D02*
X58200000Y-40825000D01*
X58000000Y-41800000D02*
X57800000Y-41600000D01*
X58600000Y-39175000D02*
X59625000Y-39175000D01*
X59625000Y-39175000D02*
X59800000Y-39000000D01*
X62700000Y-36800000D02*
X63000000Y-36500000D01*
X61800000Y-36800000D02*
X62700000Y-36800000D01*
X60800000Y-36800000D02*
X59525000Y-36800000D01*
X59525000Y-36800000D02*
X59500000Y-36825000D01*
X58600000Y-40825000D02*
X58600000Y-41600000D01*
X58600000Y-41600000D02*
X58800000Y-41800000D01*
X61750000Y-42250000D02*
X62820000Y-42250000D01*
X61400000Y-42600000D02*
X61750000Y-42250000D01*
X58725000Y-39800000D02*
X59800000Y-39800000D01*
X58725000Y-40200000D02*
X59200000Y-40200000D01*
X61400000Y-45200000D02*
X61450000Y-45250000D01*
X59200000Y-40200000D02*
X59800000Y-40800000D01*
X61450000Y-45250000D02*
X62820000Y-45250000D01*
X58200000Y-39175000D02*
X58200000Y-38753640D01*
X58200000Y-38753640D02*
X56546360Y-37100000D01*
X56546360Y-37100000D02*
X56500000Y-37100000D01*
X56800000Y-41800000D02*
X57400000Y-41200000D01*
X57400000Y-41200000D02*
X57400000Y-40825000D01*
X57275000Y-39800000D02*
X56200000Y-39800000D01*
X56200000Y-39800000D02*
X56175735Y-39775735D01*
X53600000Y-45200000D02*
X53600000Y-46075000D01*
X53600000Y-46075000D02*
X53500000Y-46175000D01*
X57275000Y-40200000D02*
X56600000Y-40200000D01*
X56600000Y-40200000D02*
X56200000Y-40600000D01*
X55000000Y-45200000D02*
X55000000Y-46175000D01*
X37180000Y-25750000D02*
X36572590Y-25750000D01*
X36572590Y-25750000D02*
X36305000Y-26017590D01*
X36305000Y-26017590D02*
X36305000Y-26482410D01*
X36305000Y-26482410D02*
X36572590Y-26750000D01*
X36572590Y-26750000D02*
X37180000Y-26750000D01*
X37180000Y-26250000D02*
X37787410Y-26250000D01*
X37787410Y-26250000D02*
X38055000Y-25982410D01*
X38055000Y-25982410D02*
X38055000Y-25517590D01*
X38055000Y-25517590D02*
X37787410Y-25250000D01*
X37787410Y-25250000D02*
X37180000Y-25250000D01*
X62820000Y-44750000D02*
X63427410Y-44750000D01*
X63695000Y-44482410D02*
X63695000Y-44017590D01*
X63427410Y-44750000D02*
X63695000Y-44482410D01*
X63695000Y-44017590D02*
X63427410Y-43750000D01*
X63427410Y-43750000D02*
X62820000Y-43750000D01*
X62820000Y-44250000D02*
X62212590Y-44250000D01*
X62212590Y-44250000D02*
X61945000Y-43982410D01*
X61945000Y-43982410D02*
X61945000Y-43455000D01*
X61945000Y-43455000D02*
X62150000Y-43250000D01*
X62150000Y-43250000D02*
X62820000Y-43250000D01*
X65175000Y-42800000D02*
X65175000Y-43013603D01*
X63707501Y-43725000D02*
X63682501Y-43750000D01*
X65175000Y-43013603D02*
X64913603Y-43275000D01*
X65100000Y-43725000D02*
X63707501Y-43725000D01*
X64913603Y-43275000D02*
X63707501Y-43275000D01*
X63682501Y-43750000D02*
X62820000Y-43750000D01*
X63707501Y-43275000D02*
X63682501Y-43250000D01*
X63682501Y-43250000D02*
X62820000Y-43250000D01*
X66025000Y-42800000D02*
X65100000Y-43725000D01*
X38600001Y-26725001D02*
X38800000Y-26925000D01*
X37180000Y-26250000D02*
X37204999Y-26274999D01*
X37180000Y-26750000D02*
X37204999Y-26725001D01*
X37204999Y-26725001D02*
X38600001Y-26725001D01*
X37204999Y-26274999D02*
X38600001Y-26274999D01*
X38600001Y-26274999D02*
X38800000Y-26075000D01*
D34*
X37180000Y-29200000D02*
X37180000Y-29745000D01*
X37180000Y-29745000D02*
X36605000Y-30320000D01*
X37180000Y-22800000D02*
X37180000Y-22255000D01*
X37180000Y-22255000D02*
X36605000Y-21680000D01*
X62820000Y-29200000D02*
X62820000Y-29745000D01*
X62820000Y-29745000D02*
X63395000Y-30320000D01*
X62820000Y-22800000D02*
X62820000Y-22255000D01*
X62820000Y-22255000D02*
X63395000Y-21680000D01*
X62820000Y-47200000D02*
X62820000Y-47745000D01*
X62820000Y-47745000D02*
X63395000Y-48320000D01*
X62820000Y-40800000D02*
X62820000Y-40255000D01*
X62820000Y-40255000D02*
X63395000Y-39680000D01*
D33*
X50000000Y-45825000D02*
X50000000Y-47212500D01*
X55000000Y-47825000D02*
X55000000Y-48750000D01*
X53500000Y-47825000D02*
X53500000Y-48750000D01*
X51037500Y-48787500D02*
X51250000Y-49000000D01*
X50000000Y-48787500D02*
X51037500Y-48787500D01*
X35500000Y-26677410D02*
X36572590Y-27750000D01*
X35500000Y-24500000D02*
X35500000Y-26677410D01*
X36572590Y-27750000D02*
X37180000Y-27750000D01*
X61500000Y-24250000D02*
X62820000Y-24250000D01*
X37180000Y-24750000D02*
X38498818Y-24750000D01*
X38498818Y-24750000D02*
X38573818Y-24675000D01*
X61500000Y-27000000D02*
X61750000Y-27250000D01*
X61750000Y-27250000D02*
X62820000Y-27250000D01*
X51550000Y-34900000D02*
X52300000Y-35650000D01*
X52300000Y-35650000D02*
X54800000Y-35650000D01*
X54800000Y-35650000D02*
X55550000Y-34900000D01*
X51675000Y-33000000D02*
X51800000Y-32875000D01*
X51800000Y-32875000D02*
X51800000Y-31500000D01*
X51550000Y-34900000D02*
X51550000Y-33125000D01*
X51550000Y-33125000D02*
X51675000Y-33000000D01*
X38300000Y-42050000D02*
X38300000Y-40975000D01*
X38300000Y-40975000D02*
X39000000Y-40275000D01*
G04 #@! TA.AperFunction,Conductor*
G36*
X53508059Y-36001061D02*
G01*
X53613223Y-36014906D01*
X53644491Y-36023284D01*
X53734918Y-36060740D01*
X53762952Y-36076925D01*
X53840602Y-36136509D01*
X53863491Y-36159398D01*
X53923074Y-36237048D01*
X53939259Y-36265081D01*
X53976715Y-36355508D01*
X53985093Y-36386775D01*
X53994795Y-36460467D01*
X53995590Y-36484765D01*
X53994941Y-36494658D01*
X53994940Y-36494675D01*
X53994940Y-36494682D01*
X53994603Y-36505000D01*
X53994500Y-36508138D01*
X53994500Y-44631494D01*
X53974815Y-44698533D01*
X53922011Y-44744288D01*
X53852853Y-44754232D01*
X53819070Y-44741644D01*
X53818118Y-44743730D01*
X53810050Y-44740045D01*
X53671963Y-44699500D01*
X53671961Y-44699500D01*
X53528039Y-44699500D01*
X53528036Y-44699500D01*
X53389949Y-44740045D01*
X53268873Y-44817856D01*
X53174623Y-44926626D01*
X53174622Y-44926628D01*
X53114834Y-45057543D01*
X53094353Y-45200000D01*
X53114834Y-45342457D01*
X53114835Y-45342458D01*
X53154096Y-45428428D01*
X53164040Y-45497586D01*
X53135015Y-45561142D01*
X53097598Y-45590422D01*
X52986658Y-45646950D01*
X52986657Y-45646951D01*
X52986652Y-45646954D01*
X52896954Y-45736652D01*
X52896951Y-45736657D01*
X52896950Y-45736658D01*
X52883553Y-45762951D01*
X52839352Y-45849698D01*
X52832115Y-45895398D01*
X52802186Y-45958532D01*
X52742875Y-45995464D01*
X52709642Y-46000000D01*
X50799500Y-46000000D01*
X50732461Y-45980315D01*
X50686706Y-45927511D01*
X50675500Y-45876000D01*
X50675499Y-45593482D01*
X50673703Y-45582143D01*
X50660646Y-45499696D01*
X50603050Y-45386658D01*
X50603046Y-45386654D01*
X50603045Y-45386652D01*
X50513347Y-45296954D01*
X50513344Y-45296952D01*
X50513342Y-45296950D01*
X50425802Y-45252346D01*
X50400301Y-45239352D01*
X50306524Y-45224500D01*
X49693482Y-45224500D01*
X49612519Y-45237323D01*
X49599696Y-45239354D01*
X49486658Y-45296950D01*
X49486657Y-45296951D01*
X49486652Y-45296954D01*
X49396954Y-45386652D01*
X49396951Y-45386657D01*
X49396950Y-45386658D01*
X49387880Y-45404459D01*
X49339352Y-45499698D01*
X49324500Y-45593475D01*
X49324500Y-45593480D01*
X49324500Y-45593481D01*
X49324500Y-45815277D01*
X49324501Y-45876000D01*
X49304817Y-45943039D01*
X49252013Y-45988794D01*
X49200501Y-46000000D01*
X40508126Y-46000000D01*
X40491941Y-45998939D01*
X40478917Y-45997224D01*
X40386775Y-45985093D01*
X40355508Y-45976715D01*
X40265081Y-45939259D01*
X40237048Y-45923074D01*
X40159398Y-45863491D01*
X40136508Y-45840601D01*
X40076925Y-45762951D01*
X40060740Y-45734918D01*
X40023284Y-45644491D01*
X40014906Y-45613223D01*
X40001061Y-45508059D01*
X40000000Y-45491874D01*
X40000000Y-44904196D01*
X40450001Y-44904196D01*
X40452851Y-44934606D01*
X40497653Y-45062645D01*
X40578207Y-45171792D01*
X40687354Y-45252346D01*
X40815397Y-45297149D01*
X40845792Y-45299999D01*
X41749999Y-45299999D01*
X42250000Y-45299999D01*
X43154196Y-45299999D01*
X43184606Y-45297148D01*
X43312645Y-45252346D01*
X43421792Y-45171792D01*
X43502346Y-45062645D01*
X43547149Y-44934604D01*
X43547149Y-44934600D01*
X43550000Y-44904206D01*
X43550000Y-44904196D01*
X43950001Y-44904196D01*
X43952851Y-44934606D01*
X43997653Y-45062645D01*
X44078207Y-45171792D01*
X44187354Y-45252346D01*
X44315397Y-45297149D01*
X44345792Y-45299999D01*
X45249999Y-45299999D01*
X45750000Y-45299999D01*
X46654196Y-45299999D01*
X46684606Y-45297148D01*
X46812645Y-45252346D01*
X46921792Y-45171792D01*
X47002346Y-45062645D01*
X47047149Y-44934604D01*
X47047149Y-44934600D01*
X47050000Y-44904206D01*
X47050000Y-44775000D01*
X45750000Y-44775000D01*
X45750000Y-45299999D01*
X45249999Y-45299999D01*
X45250000Y-45299998D01*
X45250000Y-44775000D01*
X43950001Y-44775000D01*
X43950001Y-44904196D01*
X43550000Y-44904196D01*
X43550000Y-44775000D01*
X42250000Y-44775000D01*
X42250000Y-45299999D01*
X41749999Y-45299999D01*
X41750000Y-45299998D01*
X41750000Y-44775000D01*
X40450001Y-44775000D01*
X40450001Y-44904196D01*
X40000000Y-44904196D01*
X40000000Y-44425000D01*
X49327935Y-44425000D01*
X49339835Y-44500149D01*
X49339837Y-44500155D01*
X49397356Y-44613041D01*
X49397363Y-44613050D01*
X49486949Y-44702636D01*
X49486953Y-44702639D01*
X49599855Y-44760166D01*
X49693514Y-44774999D01*
X50250000Y-44774999D01*
X50306479Y-44774999D01*
X50400149Y-44760164D01*
X50400155Y-44760162D01*
X50513041Y-44702643D01*
X50513050Y-44702636D01*
X50602636Y-44613050D01*
X50602639Y-44613046D01*
X50660166Y-44500144D01*
X50672068Y-44425000D01*
X50250000Y-44425000D01*
X50250000Y-44774999D01*
X49693514Y-44774999D01*
X49749999Y-44774998D01*
X49750000Y-44774998D01*
X49750000Y-44425000D01*
X49327935Y-44425000D01*
X40000000Y-44425000D01*
X40000000Y-43829500D01*
X40019685Y-43762461D01*
X40072489Y-43716706D01*
X40124000Y-43705500D01*
X40460041Y-43705500D01*
X40527080Y-43725185D01*
X40572835Y-43777989D01*
X40582779Y-43847147D01*
X40559811Y-43903133D01*
X40497655Y-43987351D01*
X40497653Y-43987354D01*
X40452850Y-44115395D01*
X40452850Y-44115399D01*
X40450000Y-44145793D01*
X40450000Y-44275000D01*
X43549999Y-44275000D01*
X43549999Y-44145803D01*
X43549998Y-44145793D01*
X43950000Y-44145793D01*
X43950000Y-44275000D01*
X45250000Y-44275000D01*
X45750000Y-44275000D01*
X47049999Y-44275000D01*
X47049999Y-44145803D01*
X47047148Y-44115393D01*
X47002346Y-43987354D01*
X46956327Y-43925000D01*
X49327932Y-43925000D01*
X49750000Y-43925000D01*
X50250000Y-43925000D01*
X50672065Y-43925000D01*
X50660164Y-43849850D01*
X50660162Y-43849844D01*
X50602643Y-43736958D01*
X50602636Y-43736949D01*
X50513050Y-43647363D01*
X50513046Y-43647360D01*
X50400144Y-43589833D01*
X50306486Y-43575000D01*
X50250000Y-43575000D01*
X50250000Y-43925000D01*
X49750000Y-43925000D01*
X49750000Y-43575000D01*
X49749999Y-43574999D01*
X49693521Y-43575000D01*
X49599849Y-43589835D01*
X49599844Y-43589837D01*
X49486958Y-43647356D01*
X49486949Y-43647363D01*
X49397363Y-43736949D01*
X49397360Y-43736953D01*
X49339833Y-43849855D01*
X49327932Y-43925000D01*
X46956327Y-43925000D01*
X46921792Y-43878207D01*
X46812645Y-43797653D01*
X46684602Y-43752850D01*
X46654207Y-43750000D01*
X45750000Y-43750000D01*
X45750000Y-44275000D01*
X45250000Y-44275000D01*
X45250000Y-43750000D01*
X44345803Y-43750000D01*
X44315393Y-43752851D01*
X44187354Y-43797653D01*
X44078207Y-43878207D01*
X43997653Y-43987354D01*
X43952850Y-44115395D01*
X43952850Y-44115399D01*
X43950000Y-44145793D01*
X43549998Y-44145793D01*
X43547148Y-44115393D01*
X43502346Y-43987354D01*
X43421792Y-43878207D01*
X43338843Y-43816988D01*
X43296592Y-43761340D01*
X43291134Y-43691684D01*
X43324202Y-43630135D01*
X43350475Y-43609833D01*
X43365702Y-43601042D01*
X43388052Y-43586108D01*
X43465702Y-43526525D01*
X43485911Y-43508801D01*
X43508801Y-43485911D01*
X43526525Y-43465702D01*
X43586108Y-43388052D01*
X43601042Y-43365702D01*
X43617227Y-43337669D01*
X43629116Y-43313559D01*
X43666572Y-43223132D01*
X43675213Y-43197679D01*
X43683591Y-43166412D01*
X43688835Y-43140049D01*
X43702681Y-43034885D01*
X43703999Y-43021502D01*
X43705060Y-43005316D01*
X43705500Y-42991874D01*
X43705500Y-42129566D01*
X44450001Y-42129566D01*
X44456178Y-42197561D01*
X44456181Y-42197572D01*
X44504944Y-42354060D01*
X44504946Y-42354064D01*
X44589743Y-42494337D01*
X44589747Y-42494342D01*
X44705657Y-42610252D01*
X44705662Y-42610256D01*
X44845934Y-42695052D01*
X45002437Y-42743820D01*
X45070443Y-42749999D01*
X45349999Y-42749999D01*
X45850000Y-42749999D01*
X46129565Y-42749999D01*
X46197561Y-42743821D01*
X46197572Y-42743818D01*
X46354060Y-42695055D01*
X46354064Y-42695053D01*
X46494337Y-42610256D01*
X46494342Y-42610252D01*
X46610252Y-42494342D01*
X46610256Y-42494337D01*
X46695052Y-42354065D01*
X46743820Y-42197562D01*
X46750000Y-42129556D01*
X46750000Y-40250000D01*
X45850000Y-40250000D01*
X45850000Y-42749999D01*
X45349999Y-42749999D01*
X45350000Y-42749998D01*
X45350000Y-40250000D01*
X44450001Y-40250000D01*
X44450001Y-42129566D01*
X43705500Y-42129566D01*
X43705500Y-37870443D01*
X44450000Y-37870443D01*
X44450000Y-39750000D01*
X45350000Y-39750000D01*
X45850000Y-39750000D01*
X46749999Y-39750000D01*
X46749999Y-37870433D01*
X46743821Y-37802438D01*
X46743818Y-37802427D01*
X46695055Y-37645939D01*
X46695053Y-37645935D01*
X46610256Y-37505662D01*
X46610252Y-37505657D01*
X46494342Y-37389747D01*
X46494337Y-37389743D01*
X46480666Y-37381479D01*
X51900001Y-37381479D01*
X51914835Y-37475149D01*
X51914837Y-37475155D01*
X51972356Y-37588041D01*
X51972363Y-37588050D01*
X52061949Y-37677636D01*
X52061958Y-37677643D01*
X52174844Y-37735162D01*
X52174850Y-37735164D01*
X52250000Y-37747065D01*
X52250000Y-37747064D01*
X52750000Y-37747064D01*
X52825149Y-37735164D01*
X52825155Y-37735162D01*
X52938041Y-37677643D01*
X52938050Y-37677636D01*
X53027636Y-37588050D01*
X53027639Y-37588046D01*
X53085166Y-37475144D01*
X53100000Y-37381486D01*
X53100000Y-37350000D01*
X52750000Y-37350000D01*
X52750000Y-37747064D01*
X52250000Y-37747064D01*
X52250000Y-37350000D01*
X51900001Y-37350000D01*
X51900001Y-37381479D01*
X46480666Y-37381479D01*
X46354065Y-37304947D01*
X46197562Y-37256179D01*
X46129556Y-37250000D01*
X45850000Y-37250000D01*
X45850000Y-39750000D01*
X45350000Y-39750000D01*
X45350000Y-37250000D01*
X45070433Y-37250000D01*
X45002438Y-37256178D01*
X45002427Y-37256181D01*
X44845939Y-37304944D01*
X44845935Y-37304946D01*
X44705662Y-37389743D01*
X44705657Y-37389747D01*
X44589747Y-37505657D01*
X44589743Y-37505662D01*
X44504947Y-37645934D01*
X44456179Y-37802437D01*
X44450000Y-37870443D01*
X43705500Y-37870443D01*
X43705500Y-36818513D01*
X51900000Y-36818513D01*
X51900000Y-36850000D01*
X52250000Y-36850000D01*
X52750000Y-36850000D01*
X53099999Y-36850000D01*
X53099999Y-36818520D01*
X53085164Y-36724850D01*
X53085162Y-36724844D01*
X53027643Y-36611958D01*
X53027636Y-36611949D01*
X52938050Y-36522363D01*
X52938046Y-36522360D01*
X52825144Y-36464833D01*
X52750000Y-36452932D01*
X52750000Y-36850000D01*
X52250000Y-36850000D01*
X52250000Y-36452932D01*
X52174855Y-36464833D01*
X52061953Y-36522360D01*
X52061949Y-36522363D01*
X51972363Y-36611949D01*
X51972360Y-36611953D01*
X51914833Y-36724855D01*
X51900000Y-36818513D01*
X43705500Y-36818513D01*
X43705500Y-36508125D01*
X43705060Y-36494683D01*
X43703999Y-36478497D01*
X43702681Y-36465114D01*
X43688835Y-36359950D01*
X43683591Y-36333587D01*
X43675213Y-36302320D01*
X43666572Y-36276867D01*
X43653348Y-36244941D01*
X43629117Y-36186441D01*
X43629117Y-36186440D01*
X43625369Y-36178840D01*
X43613375Y-36110007D01*
X43640499Y-36045617D01*
X43698129Y-36006113D01*
X43736583Y-36000000D01*
X53491874Y-36000000D01*
X53508059Y-36001061D01*
G37*
G04 #@! TD.AperFunction*
G04 #@! TA.AperFunction,Conductor*
G36*
X43008059Y-36001061D02*
G01*
X43113223Y-36014906D01*
X43144491Y-36023284D01*
X43234918Y-36060740D01*
X43262952Y-36076925D01*
X43340602Y-36136509D01*
X43363491Y-36159398D01*
X43423074Y-36237048D01*
X43439259Y-36265081D01*
X43476715Y-36355508D01*
X43485093Y-36386775D01*
X43498939Y-36491939D01*
X43500000Y-36508125D01*
X43500000Y-42991874D01*
X43498939Y-43008060D01*
X43485093Y-43113224D01*
X43476715Y-43144491D01*
X43439259Y-43234918D01*
X43423074Y-43262951D01*
X43363491Y-43340601D01*
X43340601Y-43363491D01*
X43262951Y-43423074D01*
X43234918Y-43439259D01*
X43144491Y-43476715D01*
X43113224Y-43485093D01*
X43019398Y-43497446D01*
X43008058Y-43498939D01*
X42991874Y-43500000D01*
X39500000Y-43500000D01*
X39092126Y-43500000D01*
X39025087Y-43480315D01*
X38979332Y-43427511D01*
X38969388Y-43358353D01*
X38980725Y-43321540D01*
X39015088Y-43251247D01*
X39015270Y-43250000D01*
X38424000Y-43250000D01*
X38356961Y-43230315D01*
X38311206Y-43177511D01*
X38300000Y-43126000D01*
X38300000Y-42874000D01*
X38319685Y-42806961D01*
X38372489Y-42761206D01*
X38424000Y-42750000D01*
X39015270Y-42750000D01*
X39015270Y-42749999D01*
X39015088Y-42748750D01*
X38963787Y-42643811D01*
X38933010Y-42613034D01*
X38899525Y-42551711D01*
X38904509Y-42482019D01*
X38933010Y-42437672D01*
X38964196Y-42406485D01*
X38964198Y-42406483D01*
X39015573Y-42301393D01*
X39025500Y-42233260D01*
X39025500Y-42129566D01*
X40250001Y-42129566D01*
X40256178Y-42197561D01*
X40256181Y-42197572D01*
X40304944Y-42354060D01*
X40304946Y-42354064D01*
X40389743Y-42494337D01*
X40389747Y-42494342D01*
X40505657Y-42610252D01*
X40505662Y-42610256D01*
X40645934Y-42695052D01*
X40802437Y-42743820D01*
X40870443Y-42749999D01*
X41149999Y-42749999D01*
X41650000Y-42749999D01*
X41929565Y-42749999D01*
X41997561Y-42743821D01*
X41997572Y-42743818D01*
X42154060Y-42695055D01*
X42154064Y-42695053D01*
X42294337Y-42610256D01*
X42294342Y-42610252D01*
X42410252Y-42494342D01*
X42410256Y-42494337D01*
X42495052Y-42354065D01*
X42543820Y-42197562D01*
X42550000Y-42129556D01*
X42550000Y-40250000D01*
X41650000Y-40250000D01*
X41650000Y-42749999D01*
X41149999Y-42749999D01*
X41150000Y-42749998D01*
X41150000Y-40250000D01*
X40250001Y-40250000D01*
X40250001Y-42129566D01*
X39025500Y-42129566D01*
X39025500Y-41866740D01*
X39015573Y-41798607D01*
X38964198Y-41693517D01*
X38964196Y-41693515D01*
X38964196Y-41693514D01*
X38881485Y-41610803D01*
X38776391Y-41559426D01*
X38706622Y-41549261D01*
X38643121Y-41520117D01*
X38605457Y-41461268D01*
X38600500Y-41426557D01*
X38600500Y-41150833D01*
X38620185Y-41083794D01*
X38636819Y-41063152D01*
X38738152Y-40961819D01*
X38799475Y-40928334D01*
X38825833Y-40925500D01*
X39283493Y-40925500D01*
X39383121Y-40909720D01*
X39383121Y-40909719D01*
X39383126Y-40909719D01*
X39503220Y-40848528D01*
X39598528Y-40753220D01*
X39659719Y-40633126D01*
X39661010Y-40624977D01*
X39675500Y-40533493D01*
X39675500Y-40016506D01*
X39659720Y-39916878D01*
X39659719Y-39916876D01*
X39659719Y-39916874D01*
X39598528Y-39796780D01*
X39598526Y-39796778D01*
X39598523Y-39796774D01*
X39503225Y-39701476D01*
X39503221Y-39701473D01*
X39503220Y-39701472D01*
X39383126Y-39640281D01*
X39383124Y-39640280D01*
X39383121Y-39640279D01*
X39283493Y-39624500D01*
X39283488Y-39624500D01*
X38716512Y-39624500D01*
X38716507Y-39624500D01*
X38616878Y-39640279D01*
X38496778Y-39701473D01*
X38496774Y-39701476D01*
X38401476Y-39796774D01*
X38401473Y-39796778D01*
X38340279Y-39916878D01*
X38324500Y-40016506D01*
X38324500Y-40474167D01*
X38304815Y-40541206D01*
X38288181Y-40561848D01*
X38211681Y-40638348D01*
X38150358Y-40671833D01*
X38080666Y-40666849D01*
X38024733Y-40624977D01*
X38000316Y-40559513D01*
X38000000Y-40550667D01*
X38000000Y-38983449D01*
X38325001Y-38983449D01*
X38340762Y-39082967D01*
X38401883Y-39202923D01*
X38401886Y-39202928D01*
X38497071Y-39298113D01*
X38497076Y-39298116D01*
X38617034Y-39359239D01*
X38617033Y-39359239D01*
X38716543Y-39374999D01*
X39250000Y-39374999D01*
X39283449Y-39374999D01*
X39382967Y-39359237D01*
X39502923Y-39298116D01*
X39502928Y-39298113D01*
X39598113Y-39202928D01*
X39598116Y-39202923D01*
X39659239Y-39082966D01*
X39675000Y-38983456D01*
X39675000Y-38975000D01*
X39250000Y-38975000D01*
X39250000Y-39374999D01*
X38716543Y-39374999D01*
X38750000Y-39374998D01*
X38750000Y-38975000D01*
X38325001Y-38975000D01*
X38325001Y-38983449D01*
X38000000Y-38983449D01*
X38000000Y-38466543D01*
X38325000Y-38466543D01*
X38325000Y-38475000D01*
X38750000Y-38475000D01*
X39250000Y-38475000D01*
X39674999Y-38475000D01*
X39674999Y-38466550D01*
X39659237Y-38367032D01*
X39598116Y-38247076D01*
X39598113Y-38247071D01*
X39502928Y-38151886D01*
X39502923Y-38151883D01*
X39382965Y-38090760D01*
X39382966Y-38090760D01*
X39283456Y-38075000D01*
X39250000Y-38075000D01*
X39250000Y-38475000D01*
X38750000Y-38475000D01*
X38750000Y-38074999D01*
X38716555Y-38075000D01*
X38617032Y-38090762D01*
X38497076Y-38151883D01*
X38497071Y-38151886D01*
X38401886Y-38247071D01*
X38401883Y-38247076D01*
X38340760Y-38367033D01*
X38325000Y-38466543D01*
X38000000Y-38466543D01*
X38000000Y-37870443D01*
X40250000Y-37870443D01*
X40250000Y-39750000D01*
X41150000Y-39750000D01*
X41650000Y-39750000D01*
X42549999Y-39750000D01*
X42549999Y-37870433D01*
X42543821Y-37802438D01*
X42543818Y-37802427D01*
X42495055Y-37645939D01*
X42495053Y-37645935D01*
X42410256Y-37505662D01*
X42410252Y-37505657D01*
X42294342Y-37389747D01*
X42294337Y-37389743D01*
X42154065Y-37304947D01*
X41997562Y-37256179D01*
X41929556Y-37250000D01*
X41650000Y-37250000D01*
X41650000Y-39750000D01*
X41150000Y-39750000D01*
X41150000Y-37250000D01*
X40870433Y-37250000D01*
X40802438Y-37256178D01*
X40802427Y-37256181D01*
X40645939Y-37304944D01*
X40645935Y-37304946D01*
X40505662Y-37389743D01*
X40505657Y-37389747D01*
X40389747Y-37505657D01*
X40389743Y-37505662D01*
X40304947Y-37645934D01*
X40256179Y-37802437D01*
X40250000Y-37870443D01*
X38000000Y-37870443D01*
X38000000Y-36508125D01*
X38001061Y-36491940D01*
X38014906Y-36386776D01*
X38023284Y-36355508D01*
X38060740Y-36265081D01*
X38076923Y-36237050D01*
X38136513Y-36159392D01*
X38159392Y-36136513D01*
X38237050Y-36076923D01*
X38265079Y-36060740D01*
X38355509Y-36023283D01*
X38386775Y-36014906D01*
X38491941Y-36001061D01*
X38508126Y-36000000D01*
X42991874Y-36000000D01*
X43008059Y-36001061D01*
G37*
G04 #@! TD.AperFunction*
G04 #@! TA.AperFunction,Conductor*
G36*
X35314974Y-40075000D02*
G01*
X35876000Y-40075000D01*
X35943039Y-40094685D01*
X35988794Y-40147489D01*
X36000000Y-40199000D01*
X36000000Y-40325000D01*
X36126000Y-40325000D01*
X36193039Y-40344685D01*
X36238794Y-40397489D01*
X36250000Y-40449000D01*
X36250000Y-40924999D01*
X36306483Y-40924999D01*
X36356602Y-40917061D01*
X36425896Y-40926016D01*
X36479348Y-40971012D01*
X36499987Y-41037763D01*
X36500000Y-41039534D01*
X36500000Y-41530662D01*
X36480315Y-41597701D01*
X36427511Y-41643456D01*
X36358353Y-41653400D01*
X36294797Y-41624375D01*
X36288319Y-41618343D01*
X36281188Y-41611212D01*
X36176251Y-41559912D01*
X36176248Y-41559911D01*
X36108220Y-41550000D01*
X35950000Y-41550000D01*
X35950000Y-41926000D01*
X35930315Y-41993039D01*
X35877511Y-42038794D01*
X35826000Y-42050000D01*
X35700000Y-42050000D01*
X35700000Y-42176000D01*
X35680315Y-42243039D01*
X35627511Y-42288794D01*
X35576000Y-42300000D01*
X34954993Y-42300000D01*
X34937351Y-42298738D01*
X34907874Y-42294500D01*
X34168274Y-42294500D01*
X34101235Y-42274815D01*
X34055480Y-42222011D01*
X34053713Y-42217953D01*
X34023284Y-42144491D01*
X34014906Y-42113223D01*
X34001061Y-42008059D01*
X34000000Y-41991874D01*
X34000000Y-41799999D01*
X34984729Y-41799999D01*
X34984730Y-41800000D01*
X35450000Y-41800000D01*
X35450000Y-41550000D01*
X35291786Y-41550000D01*
X35223751Y-41559912D01*
X35118808Y-41611215D01*
X35036212Y-41693811D01*
X34984911Y-41798750D01*
X34984729Y-41799999D01*
X34000000Y-41799999D01*
X34000000Y-41039535D01*
X34019685Y-40972496D01*
X34072489Y-40926741D01*
X34141647Y-40916797D01*
X34143399Y-40917062D01*
X34193515Y-40924999D01*
X34750000Y-40924999D01*
X34806479Y-40924999D01*
X34900149Y-40910164D01*
X34900155Y-40910162D01*
X35013041Y-40852643D01*
X35013050Y-40852636D01*
X35102636Y-40763050D01*
X35102641Y-40763044D01*
X35139514Y-40690675D01*
X35187487Y-40639879D01*
X35255308Y-40623083D01*
X35321443Y-40645620D01*
X35360483Y-40690673D01*
X35397358Y-40763043D01*
X35397363Y-40763050D01*
X35486949Y-40852636D01*
X35486953Y-40852639D01*
X35599855Y-40910166D01*
X35693514Y-40924999D01*
X35749999Y-40924998D01*
X35750000Y-40924998D01*
X35750000Y-40575000D01*
X35314954Y-40575000D01*
X35285780Y-40594043D01*
X35215912Y-40594539D01*
X35185028Y-40575000D01*
X34750000Y-40575000D01*
X34750000Y-40924999D01*
X34193515Y-40924999D01*
X34249999Y-40924998D01*
X34250000Y-40924998D01*
X34250000Y-40449000D01*
X34269685Y-40381961D01*
X34322489Y-40336206D01*
X34374000Y-40325000D01*
X34500000Y-40325000D01*
X34500000Y-40199000D01*
X34519685Y-40131961D01*
X34572489Y-40086206D01*
X34624000Y-40075000D01*
X35185045Y-40075000D01*
X35214214Y-40055958D01*
X35284082Y-40055458D01*
X35314974Y-40075000D01*
G37*
G04 #@! TD.AperFunction*
G04 #@! TA.AperFunction,Conductor*
G36*
X37757831Y-36225185D02*
G01*
X37803586Y-36277989D01*
X37813530Y-36347147D01*
X37812411Y-36353685D01*
X37811163Y-36359957D01*
X37797320Y-36465104D01*
X37797319Y-36465117D01*
X37796001Y-36478497D01*
X37794940Y-36494682D01*
X37794611Y-36504755D01*
X37794500Y-36508138D01*
X37794500Y-40550670D01*
X37794631Y-40557998D01*
X37794947Y-40566847D01*
X37794947Y-40566853D01*
X37807772Y-40631325D01*
X37832188Y-40696787D01*
X37842395Y-40719759D01*
X37842397Y-40719762D01*
X37888365Y-40773919D01*
X37901579Y-40789487D01*
X37934055Y-40813799D01*
X37950105Y-40825814D01*
X37991975Y-40881748D01*
X37997153Y-40927310D01*
X37999500Y-40927310D01*
X37999500Y-41426557D01*
X37979815Y-41493596D01*
X37927011Y-41539351D01*
X37893378Y-41549261D01*
X37823608Y-41559426D01*
X37718514Y-41610803D01*
X37635803Y-41693514D01*
X37584426Y-41798608D01*
X37574500Y-41866739D01*
X37574500Y-42233260D01*
X37584426Y-42301391D01*
X37635803Y-42406485D01*
X37666637Y-42437319D01*
X37700122Y-42498642D01*
X37695138Y-42568334D01*
X37666637Y-42612681D01*
X37635803Y-42643514D01*
X37584426Y-42748608D01*
X37574500Y-42816739D01*
X37574500Y-43183260D01*
X37584426Y-43251391D01*
X37635803Y-43356485D01*
X37666990Y-43387672D01*
X37700475Y-43448995D01*
X37695491Y-43518687D01*
X37666990Y-43563034D01*
X37636214Y-43593809D01*
X37636212Y-43593811D01*
X37584911Y-43698750D01*
X37584729Y-43699999D01*
X37584730Y-43700000D01*
X39045007Y-43700000D01*
X39062648Y-43701261D01*
X39092126Y-43705500D01*
X39670500Y-43705500D01*
X39737539Y-43725185D01*
X39783294Y-43777989D01*
X39794500Y-43829500D01*
X39794500Y-45491860D01*
X39794940Y-45505319D01*
X39796001Y-45521501D01*
X39797320Y-45534894D01*
X39811163Y-45640043D01*
X39816407Y-45666407D01*
X39824778Y-45697651D01*
X39824787Y-45697680D01*
X39833426Y-45723131D01*
X39870886Y-45813567D01*
X39870887Y-45813569D01*
X39882754Y-45837635D01*
X39882777Y-45837678D01*
X39898953Y-45865696D01*
X39898956Y-45865701D01*
X39898957Y-45865702D01*
X39913891Y-45888052D01*
X39973474Y-45965702D01*
X39973480Y-45965709D01*
X39973481Y-45965710D01*
X39973485Y-45965715D01*
X39987218Y-45981373D01*
X39991198Y-45985911D01*
X40014088Y-46008801D01*
X40034297Y-46026525D01*
X40111947Y-46086108D01*
X40134297Y-46101042D01*
X40162330Y-46117227D01*
X40162345Y-46117234D01*
X40162363Y-46117244D01*
X40186429Y-46129111D01*
X40186441Y-46129117D01*
X40276862Y-46166570D01*
X40276867Y-46166572D01*
X40302320Y-46175213D01*
X40333587Y-46183591D01*
X40359951Y-46188835D01*
X40452093Y-46200966D01*
X40452093Y-46200965D01*
X40456538Y-46201550D01*
X40465112Y-46202680D01*
X40465131Y-46202681D01*
X40488344Y-46205738D01*
X40498104Y-46205172D01*
X40508113Y-46205500D01*
X48876000Y-46205500D01*
X48943039Y-46225185D01*
X48988794Y-46277989D01*
X49000000Y-46329500D01*
X49000000Y-49375500D01*
X48980315Y-49442539D01*
X48927511Y-49488294D01*
X48876000Y-49499500D01*
X34329500Y-49499500D01*
X34262461Y-49479815D01*
X34216706Y-49427011D01*
X34205500Y-49375500D01*
X34205500Y-48829500D01*
X34225185Y-48762461D01*
X34277989Y-48716706D01*
X34329500Y-48705500D01*
X34499999Y-48705500D01*
X34500000Y-48705500D01*
X34518876Y-48704262D01*
X34520869Y-48704524D01*
X34524809Y-48704006D01*
X34524821Y-48704005D01*
X34526815Y-48703741D01*
X34526829Y-48703741D01*
X34538068Y-48702260D01*
X34541153Y-48701854D01*
X34541154Y-48701855D01*
X34640048Y-48688835D01*
X34666412Y-48683591D01*
X34697679Y-48675213D01*
X34723132Y-48666572D01*
X34813559Y-48629116D01*
X34837669Y-48617227D01*
X34865702Y-48601042D01*
X34888052Y-48586108D01*
X34965702Y-48526525D01*
X34985911Y-48508801D01*
X35008801Y-48485911D01*
X35026525Y-48465702D01*
X35086108Y-48388052D01*
X35101042Y-48365702D01*
X35117227Y-48337669D01*
X35129116Y-48313559D01*
X35166572Y-48223132D01*
X35175213Y-48197679D01*
X35183591Y-48166412D01*
X35188835Y-48140049D01*
X35202681Y-48034885D01*
X35203999Y-48021502D01*
X35205060Y-48005316D01*
X35205500Y-47991874D01*
X35205500Y-47654196D01*
X35700001Y-47654196D01*
X35702851Y-47684606D01*
X35747653Y-47812645D01*
X35828207Y-47921792D01*
X35937354Y-48002346D01*
X36065397Y-48047149D01*
X36095778Y-48049998D01*
X36095806Y-48049999D01*
X36224999Y-48049999D01*
X36725000Y-48049999D01*
X36854196Y-48049999D01*
X36884606Y-48047148D01*
X37012645Y-48002346D01*
X37121792Y-47921792D01*
X37171680Y-47854196D01*
X40450001Y-47854196D01*
X40452851Y-47884606D01*
X40497653Y-48012645D01*
X40578207Y-48121792D01*
X40687354Y-48202346D01*
X40815397Y-48247149D01*
X40845792Y-48249999D01*
X41749999Y-48249999D01*
X42250000Y-48249999D01*
X43154196Y-48249999D01*
X43184606Y-48247148D01*
X43312645Y-48202346D01*
X43421792Y-48121792D01*
X43502346Y-48012645D01*
X43547149Y-47884604D01*
X43547149Y-47884600D01*
X43550000Y-47854206D01*
X43550000Y-47854196D01*
X43950001Y-47854196D01*
X43952851Y-47884606D01*
X43997653Y-48012645D01*
X44078207Y-48121792D01*
X44187354Y-48202346D01*
X44315397Y-48247149D01*
X44345792Y-48249999D01*
X45249999Y-48249999D01*
X45750000Y-48249999D01*
X46654196Y-48249999D01*
X46684606Y-48247148D01*
X46812645Y-48202346D01*
X46921792Y-48121792D01*
X47002346Y-48012645D01*
X47047149Y-47884604D01*
X47047149Y-47884600D01*
X47050000Y-47854206D01*
X47050000Y-47725000D01*
X45750000Y-47725000D01*
X45750000Y-48249999D01*
X45249999Y-48249999D01*
X45250000Y-48249998D01*
X45250000Y-47725000D01*
X43950001Y-47725000D01*
X43950001Y-47854196D01*
X43550000Y-47854196D01*
X43550000Y-47725000D01*
X42250000Y-47725000D01*
X42250000Y-48249999D01*
X41749999Y-48249999D01*
X41750000Y-48249998D01*
X41750000Y-47725000D01*
X40450001Y-47725000D01*
X40450001Y-47854196D01*
X37171680Y-47854196D01*
X37202346Y-47812645D01*
X37247149Y-47684604D01*
X37247149Y-47684600D01*
X37250000Y-47654206D01*
X37250000Y-47095793D01*
X40450000Y-47095793D01*
X40450000Y-47225000D01*
X41750000Y-47225000D01*
X42250000Y-47225000D01*
X43549999Y-47225000D01*
X43549999Y-47095803D01*
X43549998Y-47095793D01*
X43950000Y-47095793D01*
X43950000Y-47225000D01*
X45250000Y-47225000D01*
X45750000Y-47225000D01*
X47049999Y-47225000D01*
X47049999Y-47095803D01*
X47047148Y-47065393D01*
X47002346Y-46937354D01*
X46921792Y-46828207D01*
X46812645Y-46747653D01*
X46684602Y-46702850D01*
X46654207Y-46700000D01*
X45750000Y-46700000D01*
X45750000Y-47225000D01*
X45250000Y-47225000D01*
X45250000Y-46700000D01*
X44345803Y-46700000D01*
X44315393Y-46702851D01*
X44187354Y-46747653D01*
X44078207Y-46828207D01*
X43997653Y-46937354D01*
X43952850Y-47065395D01*
X43952850Y-47065399D01*
X43950000Y-47095793D01*
X43549998Y-47095793D01*
X43547148Y-47065393D01*
X43502346Y-46937354D01*
X43421792Y-46828207D01*
X43312645Y-46747653D01*
X43184602Y-46702850D01*
X43154207Y-46700000D01*
X42250000Y-46700000D01*
X42250000Y-47225000D01*
X41750000Y-47225000D01*
X41750000Y-46700000D01*
X40845803Y-46700000D01*
X40815393Y-46702851D01*
X40687354Y-46747653D01*
X40578207Y-46828207D01*
X40497653Y-46937354D01*
X40452850Y-47065395D01*
X40452850Y-47065399D01*
X40450000Y-47095793D01*
X37250000Y-47095793D01*
X37250000Y-46750000D01*
X36725000Y-46750000D01*
X36725000Y-48049999D01*
X36224999Y-48049999D01*
X36225000Y-48049998D01*
X36225000Y-46750000D01*
X35700001Y-46750000D01*
X35700001Y-47654196D01*
X35205500Y-47654196D01*
X35205500Y-45345793D01*
X35700000Y-45345793D01*
X35700000Y-46250000D01*
X36225000Y-46250000D01*
X36725000Y-46250000D01*
X37249999Y-46250000D01*
X37249999Y-45345803D01*
X37247148Y-45315393D01*
X37202346Y-45187354D01*
X37121792Y-45078207D01*
X37012645Y-44997653D01*
X36884602Y-44952850D01*
X36854207Y-44950000D01*
X36725000Y-44950000D01*
X36725000Y-46250000D01*
X36225000Y-46250000D01*
X36225000Y-44950000D01*
X36095804Y-44950000D01*
X36065393Y-44952851D01*
X35937354Y-44997653D01*
X35828207Y-45078207D01*
X35747653Y-45187354D01*
X35702850Y-45315395D01*
X35702850Y-45315399D01*
X35700000Y-45345793D01*
X35205500Y-45345793D01*
X35205500Y-44807601D01*
X35225185Y-44740562D01*
X35277989Y-44694807D01*
X35297709Y-44687746D01*
X35319646Y-44681927D01*
X35319646Y-44681926D01*
X35319649Y-44681926D01*
X35389120Y-44622445D01*
X35425903Y-44538712D01*
X35431522Y-44525921D01*
X35435575Y-44527701D01*
X35455491Y-44488998D01*
X35515974Y-44454017D01*
X35545299Y-44450500D01*
X36108261Y-44450500D01*
X36130971Y-44447191D01*
X36176393Y-44440573D01*
X36281483Y-44389198D01*
X36364198Y-44306483D01*
X36415573Y-44201393D01*
X36415776Y-44200000D01*
X37584730Y-44200000D01*
X37584911Y-44201249D01*
X37636212Y-44306188D01*
X37718811Y-44388787D01*
X37823748Y-44440087D01*
X37823751Y-44440088D01*
X37891780Y-44449999D01*
X38049999Y-44449999D01*
X38550000Y-44449999D01*
X38708218Y-44449999D01*
X38776249Y-44440087D01*
X38881191Y-44388784D01*
X38963787Y-44306188D01*
X39015088Y-44201249D01*
X39015270Y-44200000D01*
X38550000Y-44200000D01*
X38550000Y-44449999D01*
X38049999Y-44449999D01*
X38050000Y-44449998D01*
X38050000Y-44200000D01*
X37584730Y-44200000D01*
X36415776Y-44200000D01*
X36425500Y-44133260D01*
X36425500Y-43766740D01*
X36415573Y-43698607D01*
X36364198Y-43593517D01*
X36364196Y-43593515D01*
X36364196Y-43593514D01*
X36333363Y-43562681D01*
X36299878Y-43501358D01*
X36304862Y-43431666D01*
X36333363Y-43387319D01*
X36364196Y-43356485D01*
X36364198Y-43356483D01*
X36415573Y-43251393D01*
X36425500Y-43183260D01*
X36425500Y-42816740D01*
X36415573Y-42748607D01*
X36364198Y-42643517D01*
X36364196Y-42643515D01*
X36364196Y-42643514D01*
X36333363Y-42612681D01*
X36299878Y-42551358D01*
X36304862Y-42481666D01*
X36333363Y-42437319D01*
X36364196Y-42406485D01*
X36364198Y-42406483D01*
X36415573Y-42301393D01*
X36425500Y-42233260D01*
X36425500Y-41945974D01*
X36445185Y-41878935D01*
X36491183Y-41836544D01*
X36562085Y-41798762D01*
X36614889Y-41753007D01*
X36632843Y-41735416D01*
X36677490Y-41655599D01*
X36697175Y-41588560D01*
X36705500Y-41530662D01*
X36705500Y-41039534D01*
X36705494Y-41038026D01*
X36705481Y-41036255D01*
X36696317Y-40977059D01*
X36696317Y-40977058D01*
X36696316Y-40977054D01*
X36680935Y-40927310D01*
X36675678Y-40910308D01*
X36666796Y-40886789D01*
X36637914Y-40848534D01*
X36613231Y-40783172D01*
X36626393Y-40717528D01*
X36660646Y-40650304D01*
X36660646Y-40650302D01*
X36660647Y-40650301D01*
X36675499Y-40556524D01*
X36675500Y-40556519D01*
X36675499Y-40093482D01*
X36660646Y-39999696D01*
X36603050Y-39886658D01*
X36603046Y-39886654D01*
X36603045Y-39886652D01*
X36513347Y-39796954D01*
X36513344Y-39796952D01*
X36513342Y-39796950D01*
X36436517Y-39757805D01*
X36400301Y-39739352D01*
X36306524Y-39724500D01*
X36306519Y-39724500D01*
X36004792Y-39724500D01*
X35937753Y-39704815D01*
X35891998Y-39652011D01*
X35882054Y-39618147D01*
X35881228Y-39612400D01*
X35871284Y-39543242D01*
X35866192Y-39518627D01*
X35823182Y-39437915D01*
X35780286Y-39388410D01*
X35751262Y-39324854D01*
X35750000Y-39307208D01*
X35750000Y-39274999D01*
X36250000Y-39274999D01*
X36306479Y-39274999D01*
X36400149Y-39260164D01*
X36400155Y-39260162D01*
X36513041Y-39202643D01*
X36513050Y-39202636D01*
X36602636Y-39113050D01*
X36602639Y-39113046D01*
X36660166Y-39000144D01*
X36672068Y-38925000D01*
X36250000Y-38925000D01*
X36250000Y-39274999D01*
X35750000Y-39274999D01*
X35750000Y-38425000D01*
X36250000Y-38425000D01*
X36672065Y-38425000D01*
X36660164Y-38349850D01*
X36660162Y-38349844D01*
X36602643Y-38236958D01*
X36602636Y-38236949D01*
X36513050Y-38147363D01*
X36513046Y-38147360D01*
X36400144Y-38089833D01*
X36306486Y-38075000D01*
X36250000Y-38075000D01*
X36250000Y-38425000D01*
X35750000Y-38425000D01*
X35750000Y-38075000D01*
X35749999Y-38074999D01*
X35693521Y-38075000D01*
X35599849Y-38089835D01*
X35599844Y-38089837D01*
X35486958Y-38147356D01*
X35486949Y-38147363D01*
X35397363Y-38236949D01*
X35397356Y-38236958D01*
X35360764Y-38308775D01*
X35312790Y-38359571D01*
X35244969Y-38376366D01*
X35178834Y-38353828D01*
X35139796Y-38308776D01*
X35103050Y-38236658D01*
X35103046Y-38236654D01*
X35103045Y-38236652D01*
X35013347Y-38146954D01*
X35013344Y-38146952D01*
X35013342Y-38146950D01*
X34936517Y-38107805D01*
X34900301Y-38089352D01*
X34891020Y-38086337D01*
X34891836Y-38083825D01*
X34841963Y-38060180D01*
X34805034Y-38000866D01*
X34800500Y-37967640D01*
X34800500Y-37963738D01*
X34820185Y-37896699D01*
X34830787Y-37882535D01*
X34831124Y-37882144D01*
X34831128Y-37882143D01*
X34925377Y-37773373D01*
X34985165Y-37642457D01*
X35005647Y-37500000D01*
X34985165Y-37357543D01*
X34925377Y-37226627D01*
X34831128Y-37117857D01*
X34710053Y-37040047D01*
X34710051Y-37040046D01*
X34710049Y-37040045D01*
X34710050Y-37040045D01*
X34571963Y-36999500D01*
X34571961Y-36999500D01*
X34428039Y-36999500D01*
X34428035Y-36999500D01*
X34364434Y-37018175D01*
X34294564Y-37018175D01*
X34235786Y-36980400D01*
X34206762Y-36916844D01*
X34205500Y-36899198D01*
X34205500Y-36329500D01*
X34225185Y-36262461D01*
X34277989Y-36216706D01*
X34329500Y-36205500D01*
X37690792Y-36205500D01*
X37757831Y-36225185D01*
G37*
G04 #@! TD.AperFunction*
G04 #@! TA.AperFunction,Conductor*
G36*
X34974913Y-42519685D02*
G01*
X35020668Y-42572489D01*
X35030612Y-42641647D01*
X35019275Y-42678460D01*
X34984911Y-42748752D01*
X34984729Y-42749999D01*
X34984730Y-42750000D01*
X35576000Y-42750000D01*
X35643039Y-42769685D01*
X35688794Y-42822489D01*
X35700000Y-42874000D01*
X35700000Y-43000000D01*
X35826000Y-43000000D01*
X35893039Y-43019685D01*
X35938794Y-43072489D01*
X35950000Y-43124000D01*
X35950000Y-43826000D01*
X35930315Y-43893039D01*
X35877511Y-43938794D01*
X35826000Y-43950000D01*
X35700000Y-43950000D01*
X35700000Y-44076000D01*
X35680315Y-44143039D01*
X35627511Y-44188794D01*
X35576000Y-44200000D01*
X34984730Y-44200000D01*
X34984911Y-44201249D01*
X35036212Y-44306188D01*
X35118808Y-44388784D01*
X35160966Y-44409394D01*
X35212549Y-44456522D01*
X35224082Y-44500000D01*
X35000000Y-44500000D01*
X35000000Y-45000000D01*
X35000000Y-45000006D01*
X35000000Y-47991874D01*
X34998939Y-48008060D01*
X34985093Y-48113224D01*
X34976715Y-48144491D01*
X34939259Y-48234918D01*
X34923074Y-48262951D01*
X34863491Y-48340601D01*
X34840601Y-48363491D01*
X34762951Y-48423074D01*
X34734918Y-48439259D01*
X34644491Y-48476715D01*
X34613224Y-48485093D01*
X34514330Y-48498113D01*
X34500000Y-48500000D01*
X32500000Y-48500000D01*
X32500000Y-47654196D01*
X32750001Y-47654196D01*
X32752851Y-47684606D01*
X32797653Y-47812645D01*
X32878207Y-47921792D01*
X32987354Y-48002346D01*
X33115397Y-48047149D01*
X33145778Y-48049998D01*
X33145806Y-48049999D01*
X33274999Y-48049999D01*
X33775000Y-48049999D01*
X33904196Y-48049999D01*
X33934606Y-48047148D01*
X34062645Y-48002346D01*
X34171792Y-47921792D01*
X34252346Y-47812645D01*
X34297149Y-47684604D01*
X34297149Y-47684600D01*
X34300000Y-47654206D01*
X34300000Y-46750000D01*
X33775000Y-46750000D01*
X33775000Y-48049999D01*
X33274999Y-48049999D01*
X33275000Y-48049998D01*
X33275000Y-46750000D01*
X32750001Y-46750000D01*
X32750001Y-47654196D01*
X32500000Y-47654196D01*
X32500000Y-45345793D01*
X32750000Y-45345793D01*
X32750000Y-46250000D01*
X33275000Y-46250000D01*
X33775000Y-46250000D01*
X34299999Y-46250000D01*
X34299999Y-45345803D01*
X34297148Y-45315393D01*
X34252346Y-45187354D01*
X34171792Y-45078207D01*
X34062645Y-44997653D01*
X33934602Y-44952850D01*
X33904207Y-44950000D01*
X33775000Y-44950000D01*
X33775000Y-46250000D01*
X33275000Y-46250000D01*
X33275000Y-44950000D01*
X33145804Y-44950000D01*
X33115393Y-44952851D01*
X32987354Y-44997653D01*
X32878207Y-45078207D01*
X32797653Y-45187354D01*
X32752850Y-45315395D01*
X32752850Y-45315399D01*
X32750000Y-45345793D01*
X32500000Y-45345793D01*
X32500000Y-43699999D01*
X34984729Y-43699999D01*
X34984730Y-43700000D01*
X35450000Y-43700000D01*
X35450000Y-43250000D01*
X34984730Y-43250000D01*
X34984911Y-43251249D01*
X35036212Y-43356188D01*
X35067343Y-43387319D01*
X35100828Y-43448642D01*
X35095844Y-43518334D01*
X35067343Y-43562681D01*
X35036214Y-43593809D01*
X35036212Y-43593811D01*
X34984911Y-43698750D01*
X34984729Y-43699999D01*
X32500000Y-43699999D01*
X32500000Y-42500000D01*
X34500000Y-42500000D01*
X34500007Y-42500000D01*
X34907874Y-42500000D01*
X34974913Y-42519685D01*
G37*
G04 #@! TD.AperFunction*
G04 #@! TA.AperFunction,Conductor*
G36*
X60008059Y-30501061D02*
G01*
X60113223Y-30514906D01*
X60144491Y-30523284D01*
X60234918Y-30560740D01*
X60262952Y-30576925D01*
X60340602Y-30636509D01*
X60363491Y-30659398D01*
X60423074Y-30737048D01*
X60439259Y-30765081D01*
X60476715Y-30855508D01*
X60485093Y-30886775D01*
X60498939Y-30991939D01*
X60500000Y-31008125D01*
X60500000Y-35491874D01*
X60498939Y-35508060D01*
X60485093Y-35613224D01*
X60476716Y-35644489D01*
X60446288Y-35717951D01*
X60402447Y-35772355D01*
X60336153Y-35794421D01*
X60331726Y-35794500D01*
X60212534Y-35794500D01*
X60145495Y-35774815D01*
X60099740Y-35722011D01*
X60089796Y-35652853D01*
X60102049Y-35614205D01*
X60160166Y-35500144D01*
X60172068Y-35425000D01*
X58827935Y-35425000D01*
X58839835Y-35500149D01*
X58839836Y-35500152D01*
X58897950Y-35614204D01*
X58910847Y-35682873D01*
X58884571Y-35747614D01*
X58827465Y-35787872D01*
X58787466Y-35794500D01*
X57713333Y-35794500D01*
X57646294Y-35774815D01*
X57600539Y-35722011D01*
X57590595Y-35652853D01*
X57619620Y-35589297D01*
X57678398Y-35551523D01*
X57693937Y-35548026D01*
X57775149Y-35535164D01*
X57775155Y-35535162D01*
X57888041Y-35477643D01*
X57888050Y-35477636D01*
X57977636Y-35388050D01*
X57977639Y-35388046D01*
X58035166Y-35275144D01*
X58050000Y-35181486D01*
X58050000Y-35150000D01*
X56850001Y-35150000D01*
X56850001Y-35181479D01*
X56864835Y-35275149D01*
X56864837Y-35275155D01*
X56922356Y-35388041D01*
X56922363Y-35388050D01*
X57011949Y-35477636D01*
X57011953Y-35477639D01*
X57124855Y-35535166D01*
X57206057Y-35548027D01*
X57269192Y-35577956D01*
X57306123Y-35637268D01*
X57305125Y-35707130D01*
X57266515Y-35765363D01*
X57202552Y-35793477D01*
X57186659Y-35794500D01*
X55816529Y-35794500D01*
X55749490Y-35774815D01*
X55703735Y-35722011D01*
X55693791Y-35652853D01*
X55722816Y-35589297D01*
X55781594Y-35551523D01*
X55797129Y-35548026D01*
X55875304Y-35535646D01*
X55988342Y-35478050D01*
X56078050Y-35388342D01*
X56135646Y-35275304D01*
X56135646Y-35275302D01*
X56135647Y-35275301D01*
X56150499Y-35181524D01*
X56150500Y-35181519D01*
X56150500Y-34925000D01*
X58827932Y-34925000D01*
X59250000Y-34925000D01*
X59750000Y-34925000D01*
X60172065Y-34925000D01*
X60160164Y-34849850D01*
X60160162Y-34849844D01*
X60102643Y-34736958D01*
X60102636Y-34736949D01*
X60013050Y-34647363D01*
X60013046Y-34647360D01*
X59900144Y-34589833D01*
X59806486Y-34575000D01*
X59750000Y-34575000D01*
X59750000Y-34925000D01*
X59250000Y-34925000D01*
X59250000Y-34575000D01*
X59249999Y-34574999D01*
X59193521Y-34575000D01*
X59099849Y-34589835D01*
X59099844Y-34589837D01*
X58986958Y-34647356D01*
X58986949Y-34647363D01*
X58897363Y-34736949D01*
X58897360Y-34736953D01*
X58839833Y-34849855D01*
X58827932Y-34925000D01*
X56150500Y-34925000D01*
X56150499Y-34618513D01*
X56850000Y-34618513D01*
X56850000Y-34650000D01*
X57200000Y-34650000D01*
X57700000Y-34650000D01*
X58049999Y-34650000D01*
X58049999Y-34618520D01*
X58035164Y-34524850D01*
X58035162Y-34524844D01*
X57977643Y-34411958D01*
X57977636Y-34411949D01*
X57888050Y-34322363D01*
X57888046Y-34322360D01*
X57775144Y-34264833D01*
X57700000Y-34252932D01*
X57700000Y-34650000D01*
X57200000Y-34650000D01*
X57200000Y-34252932D01*
X57124855Y-34264833D01*
X57011953Y-34322360D01*
X57011949Y-34322363D01*
X56922363Y-34411949D01*
X56922360Y-34411953D01*
X56864833Y-34524855D01*
X56850000Y-34618513D01*
X56150499Y-34618513D01*
X56150499Y-34618482D01*
X56135646Y-34524696D01*
X56078050Y-34411658D01*
X56078046Y-34411654D01*
X56078045Y-34411652D01*
X55988347Y-34321954D01*
X55988344Y-34321952D01*
X55988342Y-34321950D01*
X55911517Y-34282805D01*
X55875301Y-34264352D01*
X55781524Y-34249500D01*
X55318482Y-34249500D01*
X55237519Y-34262323D01*
X55224696Y-34264354D01*
X55111658Y-34321950D01*
X55111657Y-34321951D01*
X55111652Y-34321954D01*
X55021954Y-34411652D01*
X55021951Y-34411657D01*
X55021950Y-34411658D01*
X55002751Y-34449337D01*
X54964352Y-34524698D01*
X54949500Y-34618475D01*
X54949500Y-35024166D01*
X54929815Y-35091205D01*
X54913181Y-35111847D01*
X54711848Y-35313181D01*
X54650525Y-35346666D01*
X54624167Y-35349500D01*
X54168574Y-35349500D01*
X54101535Y-35329815D01*
X54055780Y-35277011D01*
X54045836Y-35207853D01*
X54046101Y-35206101D01*
X54050000Y-35181485D01*
X54050000Y-35150000D01*
X52850001Y-35150000D01*
X52850001Y-35181484D01*
X52853900Y-35206103D01*
X52844945Y-35275396D01*
X52799948Y-35328848D01*
X52733197Y-35349487D01*
X52731427Y-35349500D01*
X52624000Y-35349500D01*
X52556961Y-35329815D01*
X52511206Y-35277011D01*
X52500000Y-35225500D01*
X52500000Y-34618513D01*
X52850000Y-34618513D01*
X52850000Y-34650000D01*
X53200000Y-34650000D01*
X53700000Y-34650000D01*
X54049999Y-34650000D01*
X54049999Y-34618520D01*
X54035164Y-34524850D01*
X54035162Y-34524844D01*
X53977643Y-34411958D01*
X53977636Y-34411949D01*
X53888050Y-34322363D01*
X53888046Y-34322360D01*
X53775144Y-34264833D01*
X53700000Y-34252932D01*
X53700000Y-34650000D01*
X53200000Y-34650000D01*
X53200000Y-34252932D01*
X53124855Y-34264833D01*
X53011953Y-34322360D01*
X53011949Y-34322363D01*
X52922363Y-34411949D01*
X52922360Y-34411953D01*
X52864833Y-34524855D01*
X52850000Y-34618513D01*
X52500000Y-34618513D01*
X52500000Y-33444918D01*
X52519685Y-33377879D01*
X52572489Y-33332124D01*
X52641647Y-33322180D01*
X52705203Y-33351205D01*
X52732773Y-33392791D01*
X52735403Y-33391452D01*
X52797356Y-33513041D01*
X52797363Y-33513050D01*
X52886949Y-33602636D01*
X52886958Y-33602643D01*
X52999844Y-33660162D01*
X52999850Y-33660164D01*
X53075000Y-33672065D01*
X53075000Y-33672064D01*
X53575000Y-33672064D01*
X53650149Y-33660164D01*
X53650155Y-33660162D01*
X53763041Y-33602643D01*
X53763050Y-33602636D01*
X53852636Y-33513050D01*
X53852639Y-33513046D01*
X53910166Y-33400144D01*
X53925000Y-33306486D01*
X53925000Y-33250000D01*
X53575000Y-33250000D01*
X53575000Y-33672064D01*
X53075000Y-33672064D01*
X53075000Y-32750000D01*
X53575000Y-32750000D01*
X53924999Y-32750000D01*
X53924999Y-32693520D01*
X53910164Y-32599850D01*
X53910162Y-32599844D01*
X53852643Y-32486958D01*
X53852636Y-32486949D01*
X53763050Y-32397363D01*
X53763046Y-32397360D01*
X53650144Y-32339833D01*
X53575000Y-32327932D01*
X53575000Y-32750000D01*
X53075000Y-32750000D01*
X53075000Y-32327932D01*
X52999855Y-32339833D01*
X52886953Y-32397360D01*
X52886949Y-32397363D01*
X52797363Y-32486949D01*
X52797360Y-32486953D01*
X52735405Y-32608548D01*
X52732565Y-32607100D01*
X52702489Y-32651081D01*
X52638129Y-32678276D01*
X52569283Y-32666359D01*
X52517810Y-32619112D01*
X52500000Y-32555084D01*
X52500000Y-31907846D01*
X52519685Y-31840807D01*
X52572489Y-31795052D01*
X52641647Y-31785108D01*
X52705203Y-31814133D01*
X52735401Y-31853386D01*
X52761215Y-31906191D01*
X52843808Y-31988784D01*
X52948755Y-32040089D01*
X52950000Y-32040269D01*
X53450000Y-32040269D01*
X53451244Y-32040089D01*
X53556191Y-31988784D01*
X53638787Y-31906188D01*
X53690087Y-31801251D01*
X53690088Y-31801248D01*
X53697555Y-31750000D01*
X53450000Y-31750000D01*
X53450000Y-32040269D01*
X52950000Y-32040269D01*
X52950000Y-31250000D01*
X53450000Y-31250000D01*
X53697553Y-31250000D01*
X53690087Y-31198751D01*
X53638784Y-31093808D01*
X53556188Y-31011212D01*
X53451249Y-30959911D01*
X53451250Y-30959911D01*
X53450000Y-30959729D01*
X53450000Y-31250000D01*
X52950000Y-31250000D01*
X52950000Y-30959730D01*
X52949999Y-30959729D01*
X52948750Y-30959911D01*
X52843811Y-31011212D01*
X52761214Y-31093809D01*
X52735400Y-31146613D01*
X52688272Y-31198195D01*
X52620738Y-31216109D01*
X52554239Y-31194668D01*
X52509890Y-31140678D01*
X52500000Y-31092152D01*
X52500000Y-31008125D01*
X52501061Y-30991940D01*
X52505302Y-30959730D01*
X52514906Y-30886775D01*
X52523284Y-30855508D01*
X52560740Y-30765081D01*
X52576923Y-30737050D01*
X52636513Y-30659392D01*
X52659392Y-30636513D01*
X52737050Y-30576923D01*
X52765079Y-30560740D01*
X52855509Y-30523283D01*
X52886775Y-30514906D01*
X52991941Y-30501061D01*
X53008126Y-30500000D01*
X59991874Y-30500000D01*
X60008059Y-30501061D01*
G37*
G04 #@! TD.AperFunction*
G04 #@! TA.AperFunction,Conductor*
G36*
X68004418Y-20500816D02*
G01*
X68204561Y-20515130D01*
X68222063Y-20517647D01*
X68413797Y-20559355D01*
X68430755Y-20564334D01*
X68614609Y-20632909D01*
X68630701Y-20640259D01*
X68802904Y-20734288D01*
X68817784Y-20743849D01*
X68974867Y-20861441D01*
X68988237Y-20873027D01*
X69126972Y-21011762D01*
X69138558Y-21025132D01*
X69221469Y-21135888D01*
X69256146Y-21182210D01*
X69265711Y-21197095D01*
X69359740Y-21369298D01*
X69367090Y-21385390D01*
X69435662Y-21569236D01*
X69440646Y-21586212D01*
X69482351Y-21777931D01*
X69484869Y-21795442D01*
X69499184Y-21995580D01*
X69499500Y-22004427D01*
X69499500Y-35670500D01*
X69479815Y-35737539D01*
X69427011Y-35783294D01*
X69375500Y-35794500D01*
X63739184Y-35794500D01*
X63716699Y-35795736D01*
X63716681Y-35795737D01*
X63716680Y-35795738D01*
X63689657Y-35798718D01*
X63689655Y-35798718D01*
X63689651Y-35798719D01*
X63612710Y-35823159D01*
X63612697Y-35823164D01*
X63551574Y-35856976D01*
X63530361Y-35870469D01*
X63530358Y-35870471D01*
X63530358Y-35870472D01*
X63525421Y-35876116D01*
X63524730Y-35876906D01*
X63465773Y-35914401D01*
X63395904Y-35914069D01*
X63373777Y-35905055D01*
X63250226Y-35840210D01*
X63085056Y-35799500D01*
X62914944Y-35799500D01*
X62749773Y-35840210D01*
X62626293Y-35905018D01*
X62557784Y-35918744D01*
X62492731Y-35893251D01*
X62480101Y-35882009D01*
X62465549Y-35867157D01*
X62465546Y-35867155D01*
X62465545Y-35867154D01*
X62385735Y-35822511D01*
X62385730Y-35822509D01*
X62318698Y-35802826D01*
X62318694Y-35802825D01*
X62318693Y-35802825D01*
X62260795Y-35794500D01*
X62260791Y-35794500D01*
X60809207Y-35794500D01*
X60742168Y-35774815D01*
X60696413Y-35722011D01*
X60686469Y-35652853D01*
X60687591Y-35646301D01*
X60688835Y-35640048D01*
X60689201Y-35637268D01*
X60702681Y-35534885D01*
X60703999Y-35521502D01*
X60705060Y-35505316D01*
X60705500Y-35491874D01*
X60705500Y-31008125D01*
X60705060Y-30994683D01*
X60703999Y-30978497D01*
X60702681Y-30965114D01*
X60688835Y-30859950D01*
X60683591Y-30833587D01*
X60675213Y-30802320D01*
X60666572Y-30776867D01*
X60666570Y-30776862D01*
X60629117Y-30686441D01*
X60629111Y-30686429D01*
X60617244Y-30662363D01*
X60617234Y-30662345D01*
X60617227Y-30662330D01*
X60601050Y-30634310D01*
X60601045Y-30634302D01*
X60586109Y-30611949D01*
X60586108Y-30611947D01*
X60526525Y-30534297D01*
X60508801Y-30514088D01*
X60485912Y-30491199D01*
X60465709Y-30473480D01*
X60465701Y-30473473D01*
X60465700Y-30473472D01*
X60427782Y-30444377D01*
X60388054Y-30413892D01*
X60388041Y-30413883D01*
X60365705Y-30398959D01*
X60365700Y-30398956D01*
X60337666Y-30382771D01*
X60313559Y-30370883D01*
X60313549Y-30370878D01*
X60223131Y-30333426D01*
X60197680Y-30324787D01*
X60197651Y-30324778D01*
X60166407Y-30316407D01*
X60140043Y-30311163D01*
X60034894Y-30297320D01*
X60026203Y-30296464D01*
X60021502Y-30296001D01*
X60016107Y-30295647D01*
X60005319Y-30294940D01*
X60003524Y-30294881D01*
X59991874Y-30294500D01*
X53008126Y-30294500D01*
X52997846Y-30294836D01*
X52994679Y-30294940D01*
X52978500Y-30296000D01*
X52965103Y-30297320D01*
X52876729Y-30308955D01*
X52859953Y-30311164D01*
X52859949Y-30311164D01*
X52859947Y-30311165D01*
X52833582Y-30316409D01*
X52802326Y-30324783D01*
X52776855Y-30333430D01*
X52686447Y-30370878D01*
X52662336Y-30382768D01*
X52662315Y-30382779D01*
X52634300Y-30398954D01*
X52611955Y-30413884D01*
X52611946Y-30413891D01*
X52534293Y-30473476D01*
X52534292Y-30473477D01*
X52514073Y-30491211D01*
X52491211Y-30514073D01*
X52473477Y-30534292D01*
X52473476Y-30534293D01*
X52413888Y-30611950D01*
X52398948Y-30634310D01*
X52382774Y-30662325D01*
X52370879Y-30686448D01*
X52333428Y-30776862D01*
X52324789Y-30802310D01*
X52316408Y-30833587D01*
X52311165Y-30859945D01*
X52305656Y-30901790D01*
X52277388Y-30965686D01*
X52219063Y-31004156D01*
X52149198Y-31004986D01*
X52128257Y-30997003D01*
X52051391Y-30959426D01*
X51983261Y-30949500D01*
X51983260Y-30949500D01*
X51616740Y-30949500D01*
X51616739Y-30949500D01*
X51548608Y-30959426D01*
X51443514Y-31010803D01*
X51360803Y-31093514D01*
X51309426Y-31198608D01*
X51299500Y-31266739D01*
X51299500Y-31733260D01*
X51309426Y-31801391D01*
X51360803Y-31906485D01*
X51443512Y-31989194D01*
X51443515Y-31989196D01*
X51443517Y-31989198D01*
X51443518Y-31989198D01*
X51447550Y-31992077D01*
X51490674Y-32047051D01*
X51499500Y-32092997D01*
X51499500Y-32209721D01*
X51479815Y-32276760D01*
X51427011Y-32322515D01*
X51394898Y-32332194D01*
X51349700Y-32339352D01*
X51349699Y-32339352D01*
X51294297Y-32367580D01*
X51236658Y-32396950D01*
X51236657Y-32396951D01*
X51236652Y-32396954D01*
X51146954Y-32486652D01*
X51146951Y-32486657D01*
X51089352Y-32599698D01*
X51074500Y-32693475D01*
X51074500Y-33306517D01*
X51085292Y-33374657D01*
X51089354Y-33400304D01*
X51146950Y-33513342D01*
X51213182Y-33579574D01*
X51246666Y-33640895D01*
X51249500Y-33667254D01*
X51249500Y-34175728D01*
X51229815Y-34242767D01*
X51181796Y-34286212D01*
X51111659Y-34321949D01*
X51111652Y-34321954D01*
X51021954Y-34411652D01*
X51021951Y-34411657D01*
X50964352Y-34524698D01*
X50949500Y-34618475D01*
X50949500Y-35181517D01*
X50960292Y-35249657D01*
X50964354Y-35275304D01*
X51021950Y-35388342D01*
X51021952Y-35388344D01*
X51021954Y-35388347D01*
X51111652Y-35478045D01*
X51111654Y-35478046D01*
X51111658Y-35478050D01*
X51223212Y-35534890D01*
X51224698Y-35535647D01*
X51302862Y-35548027D01*
X51365997Y-35577956D01*
X51402928Y-35637268D01*
X51401930Y-35707130D01*
X51363320Y-35765363D01*
X51299357Y-35793477D01*
X51283464Y-35794500D01*
X43736583Y-35794500D01*
X43734036Y-35794701D01*
X43704321Y-35797047D01*
X43665871Y-35803159D01*
X43581940Y-35836612D01*
X43581936Y-35836614D01*
X43524326Y-35876104D01*
X43524298Y-35876124D01*
X43505865Y-35890493D01*
X43440890Y-35916181D01*
X43372340Y-35902663D01*
X43367493Y-35899907D01*
X43367457Y-35899971D01*
X43365706Y-35898960D01*
X43365700Y-35898956D01*
X43337666Y-35882771D01*
X43313559Y-35870883D01*
X43313549Y-35870878D01*
X43223131Y-35833426D01*
X43197680Y-35824787D01*
X43197651Y-35824778D01*
X43166407Y-35816407D01*
X43140043Y-35811163D01*
X43034894Y-35797320D01*
X43026203Y-35796464D01*
X43021502Y-35796001D01*
X43016107Y-35795647D01*
X43005319Y-35794940D01*
X43003524Y-35794881D01*
X42991874Y-35794500D01*
X38508126Y-35794500D01*
X38497846Y-35794836D01*
X38494679Y-35794940D01*
X38478500Y-35796000D01*
X38465103Y-35797320D01*
X38376729Y-35808955D01*
X38359953Y-35811164D01*
X38359949Y-35811164D01*
X38359947Y-35811165D01*
X38333582Y-35816409D01*
X38302326Y-35824783D01*
X38276855Y-35833430D01*
X38186447Y-35870878D01*
X38162336Y-35882768D01*
X38162315Y-35882779D01*
X38134300Y-35898954D01*
X38111955Y-35913884D01*
X38111946Y-35913891D01*
X38033122Y-35974376D01*
X37967953Y-35999570D01*
X37957635Y-36000000D01*
X34000000Y-36000000D01*
X34000000Y-36500006D01*
X34000000Y-37451854D01*
X33998738Y-37469500D01*
X33994353Y-37499999D01*
X33998738Y-37530498D01*
X34000000Y-37548145D01*
X34000000Y-38082245D01*
X33980315Y-38149284D01*
X33963681Y-38169926D01*
X33896954Y-38236652D01*
X33896951Y-38236657D01*
X33896950Y-38236658D01*
X33877751Y-38274337D01*
X33839352Y-38349698D01*
X33824500Y-38443475D01*
X33824500Y-38906517D01*
X33835089Y-38973373D01*
X33839354Y-39000304D01*
X33896950Y-39113342D01*
X33963682Y-39180074D01*
X33997166Y-39241395D01*
X34000000Y-39267754D01*
X34000000Y-39732245D01*
X33980315Y-39799284D01*
X33963681Y-39819926D01*
X33896954Y-39886652D01*
X33896951Y-39886657D01*
X33839352Y-39999698D01*
X33824500Y-40093475D01*
X33824500Y-40556517D01*
X33830635Y-40595252D01*
X33839354Y-40650304D01*
X33871725Y-40713836D01*
X33884621Y-40782503D01*
X33869460Y-40830663D01*
X33822512Y-40914594D01*
X33822509Y-40914599D01*
X33802826Y-40981631D01*
X33802825Y-40981636D01*
X33802825Y-40981637D01*
X33794501Y-41039534D01*
X33794500Y-41039538D01*
X33794500Y-41991860D01*
X33794940Y-42005319D01*
X33796001Y-42021501D01*
X33797320Y-42034894D01*
X33811163Y-42140043D01*
X33816407Y-42166407D01*
X33824781Y-42197663D01*
X33824785Y-42197675D01*
X33833429Y-42223139D01*
X33863874Y-42296638D01*
X33865306Y-42300011D01*
X33866792Y-42303422D01*
X33867067Y-42304053D01*
X33900174Y-42356585D01*
X33937386Y-42399530D01*
X33945934Y-42409395D01*
X33963516Y-42427339D01*
X33963520Y-42427343D01*
X33963521Y-42427344D01*
X33963523Y-42427345D01*
X33974901Y-42433709D01*
X34000000Y-42447748D01*
X34000000Y-42500000D01*
X32500000Y-42500000D01*
X32500000Y-48500000D01*
X34000000Y-48500000D01*
X34000000Y-49000000D01*
X34000000Y-49000006D01*
X34000000Y-49375500D01*
X33980315Y-49442539D01*
X33927511Y-49488294D01*
X33876000Y-49499500D01*
X32004428Y-49499500D01*
X31995582Y-49499184D01*
X31973622Y-49497613D01*
X31795442Y-49484869D01*
X31777931Y-49482351D01*
X31586212Y-49440646D01*
X31569236Y-49435662D01*
X31385390Y-49367090D01*
X31369298Y-49359740D01*
X31197095Y-49265711D01*
X31182210Y-49256146D01*
X31181682Y-49255751D01*
X31025132Y-49138558D01*
X31011762Y-49126972D01*
X30873027Y-48988237D01*
X30861441Y-48974867D01*
X30743849Y-48817784D01*
X30734288Y-48802904D01*
X30640259Y-48630701D01*
X30632909Y-48614609D01*
X30564334Y-48430755D01*
X30559355Y-48413797D01*
X30517647Y-48222063D01*
X30515130Y-48204556D01*
X30512304Y-48165049D01*
X30500816Y-48004418D01*
X30500500Y-47995572D01*
X30500500Y-30388995D01*
X31324499Y-30388995D01*
X31351418Y-30524322D01*
X31351421Y-30524332D01*
X31404221Y-30651804D01*
X31404228Y-30651817D01*
X31480885Y-30766541D01*
X31480888Y-30766545D01*
X31578454Y-30864111D01*
X31578458Y-30864114D01*
X31693182Y-30940771D01*
X31693195Y-30940778D01*
X31784241Y-30978490D01*
X31820672Y-30993580D01*
X31820676Y-30993580D01*
X31820677Y-30993581D01*
X31956004Y-31020500D01*
X31956007Y-31020500D01*
X32893995Y-31020500D01*
X32985041Y-31002389D01*
X33029328Y-30993580D01*
X33156811Y-30940775D01*
X33271542Y-30864114D01*
X33369114Y-30766542D01*
X33445775Y-30651811D01*
X33498580Y-30524328D01*
X33508696Y-30473472D01*
X33525500Y-30388995D01*
X35354499Y-30388995D01*
X35381418Y-30524322D01*
X35381421Y-30524332D01*
X35434221Y-30651804D01*
X35434228Y-30651817D01*
X35510885Y-30766541D01*
X35510888Y-30766545D01*
X35608454Y-30864111D01*
X35608458Y-30864114D01*
X35723182Y-30940771D01*
X35723195Y-30940778D01*
X35814241Y-30978490D01*
X35850672Y-30993580D01*
X35850676Y-30993580D01*
X35850677Y-30993581D01*
X35986004Y-31020500D01*
X35986007Y-31020500D01*
X37223995Y-31020500D01*
X37315041Y-31002389D01*
X37359328Y-30993580D01*
X37486811Y-30940775D01*
X37601542Y-30864114D01*
X37699114Y-30766542D01*
X37775775Y-30651811D01*
X37828580Y-30524328D01*
X37838696Y-30473472D01*
X37855500Y-30388995D01*
X37855500Y-30251004D01*
X37828581Y-30115677D01*
X37828580Y-30115676D01*
X37828580Y-30115672D01*
X37828578Y-30115667D01*
X37775778Y-29988195D01*
X37775771Y-29988182D01*
X37699114Y-29873458D01*
X37695249Y-29868748D01*
X37696882Y-29867407D01*
X37667990Y-29814495D01*
X37672974Y-29744803D01*
X37714846Y-29688870D01*
X37734691Y-29676739D01*
X37811483Y-29639198D01*
X37894198Y-29556483D01*
X37945573Y-29451393D01*
X37955500Y-29383260D01*
X37955500Y-29016740D01*
X37945573Y-28948607D01*
X37899268Y-28853889D01*
X37887510Y-28785018D01*
X37899270Y-28744970D01*
X37945088Y-28651248D01*
X37945270Y-28650000D01*
X37440000Y-28650000D01*
X37426819Y-28663181D01*
X37365496Y-28696666D01*
X37339138Y-28699500D01*
X37040862Y-28699500D01*
X36973823Y-28679815D01*
X36953181Y-28663181D01*
X36940000Y-28650000D01*
X36644823Y-28650000D01*
X36577784Y-28630315D01*
X36537435Y-28587999D01*
X36525505Y-28567335D01*
X36427666Y-28469496D01*
X36427661Y-28469492D01*
X36307838Y-28400313D01*
X36307837Y-28400312D01*
X36307836Y-28400312D01*
X36174183Y-28364500D01*
X36035817Y-28364500D01*
X35902164Y-28400312D01*
X35902161Y-28400313D01*
X35782338Y-28469492D01*
X35782333Y-28469496D01*
X35684496Y-28567333D01*
X35684492Y-28567338D01*
X35615313Y-28687161D01*
X35615312Y-28687164D01*
X35579500Y-28820817D01*
X35579500Y-28959183D01*
X35594923Y-29016740D01*
X35615312Y-29092835D01*
X35615313Y-29092838D01*
X35684492Y-29212661D01*
X35684494Y-29212664D01*
X35684495Y-29212665D01*
X35782335Y-29310505D01*
X35902164Y-29379688D01*
X35937868Y-29389254D01*
X35997528Y-29425618D01*
X36028058Y-29488465D01*
X36019764Y-29557840D01*
X35975279Y-29611719D01*
X35929967Y-29630646D01*
X35850678Y-29646418D01*
X35850667Y-29646421D01*
X35723195Y-29699221D01*
X35723182Y-29699228D01*
X35608458Y-29775885D01*
X35608454Y-29775888D01*
X35510888Y-29873454D01*
X35510885Y-29873458D01*
X35434228Y-29988182D01*
X35434221Y-29988195D01*
X35381421Y-30115667D01*
X35381418Y-30115677D01*
X35354500Y-30251004D01*
X35354500Y-30251007D01*
X35354500Y-30388993D01*
X35354500Y-30388995D01*
X35354499Y-30388995D01*
X33525500Y-30388995D01*
X33525500Y-30251004D01*
X33498581Y-30115677D01*
X33498580Y-30115676D01*
X33498580Y-30115672D01*
X33498578Y-30115667D01*
X33445778Y-29988195D01*
X33445771Y-29988182D01*
X33369114Y-29873458D01*
X33369111Y-29873454D01*
X33271545Y-29775888D01*
X33271541Y-29775885D01*
X33156817Y-29699228D01*
X33156804Y-29699221D01*
X33029332Y-29646421D01*
X33029322Y-29646418D01*
X32893995Y-29619500D01*
X32893993Y-29619500D01*
X31956007Y-29619500D01*
X31956005Y-29619500D01*
X31820677Y-29646418D01*
X31820667Y-29646421D01*
X31693195Y-29699221D01*
X31693182Y-29699228D01*
X31578458Y-29775885D01*
X31578454Y-29775888D01*
X31480888Y-29873454D01*
X31480885Y-29873458D01*
X31404228Y-29988182D01*
X31404221Y-29988195D01*
X31351421Y-30115667D01*
X31351418Y-30115677D01*
X31324500Y-30251004D01*
X31324500Y-30251007D01*
X31324500Y-30388993D01*
X31324500Y-30388995D01*
X31324499Y-30388995D01*
X30500500Y-30388995D01*
X30500500Y-24500000D01*
X34994353Y-24500000D01*
X35014834Y-24642456D01*
X35045660Y-24709954D01*
X35074623Y-24773373D01*
X35168872Y-24882143D01*
X35168875Y-24882144D01*
X35169213Y-24882535D01*
X35198238Y-24946091D01*
X35199500Y-24963738D01*
X35199500Y-26716972D01*
X35213152Y-26767923D01*
X35219979Y-26793400D01*
X35219980Y-26793401D01*
X35232646Y-26815339D01*
X35259540Y-26861921D01*
X36332130Y-27934511D01*
X36388079Y-27990460D01*
X36388081Y-27990461D01*
X36394530Y-27995410D01*
X36393084Y-27997293D01*
X36432935Y-28039086D01*
X36446159Y-28107693D01*
X36437219Y-28139386D01*
X36437754Y-28139552D01*
X36434911Y-28148749D01*
X36434729Y-28149999D01*
X36434730Y-28150000D01*
X37945270Y-28150000D01*
X37945270Y-28149999D01*
X37945088Y-28148753D01*
X37912998Y-28083110D01*
X37901239Y-28014237D01*
X37921295Y-27959762D01*
X37939515Y-27932495D01*
X37955500Y-27852133D01*
X37955499Y-27647868D01*
X37939515Y-27567505D01*
X37939513Y-27567502D01*
X37934841Y-27556222D01*
X37936285Y-27555623D01*
X37919563Y-27502211D01*
X37935517Y-27444056D01*
X37934842Y-27443777D01*
X37937070Y-27438396D01*
X37938049Y-27434831D01*
X37939452Y-27432647D01*
X37939516Y-27432493D01*
X37955499Y-27352136D01*
X37955500Y-27352133D01*
X37955499Y-27149501D01*
X37975183Y-27082462D01*
X38027987Y-27036707D01*
X38079499Y-27025501D01*
X38215984Y-27025501D01*
X38283023Y-27045186D01*
X38328778Y-27097989D01*
X38374622Y-27198371D01*
X38374623Y-27198373D01*
X38468872Y-27307143D01*
X38589947Y-27384953D01*
X38589950Y-27384954D01*
X38589949Y-27384954D01*
X38728036Y-27425499D01*
X38728038Y-27425500D01*
X38728039Y-27425500D01*
X38871962Y-27425500D01*
X38871962Y-27425499D01*
X39010053Y-27384953D01*
X39131128Y-27307143D01*
X39225377Y-27198373D01*
X39285165Y-27067457D01*
X39305647Y-26925000D01*
X39285165Y-26782543D01*
X39225377Y-26651627D01*
X39164353Y-26581201D01*
X39135329Y-26517647D01*
X39145273Y-26448489D01*
X39164351Y-26418800D01*
X39225377Y-26348373D01*
X39285165Y-26217457D01*
X39305647Y-26075000D01*
X39285165Y-25932543D01*
X39225377Y-25801627D01*
X39131128Y-25692857D01*
X39010053Y-25615047D01*
X39010051Y-25615046D01*
X39010049Y-25615045D01*
X39010050Y-25615045D01*
X38871963Y-25574500D01*
X38871961Y-25574500D01*
X38728039Y-25574500D01*
X38728036Y-25574500D01*
X38589949Y-25615045D01*
X38589946Y-25615047D01*
X38546538Y-25642943D01*
X38479498Y-25662627D01*
X38412459Y-25642942D01*
X38366705Y-25590137D01*
X38355500Y-25538627D01*
X38355500Y-25478029D01*
X38355500Y-25478028D01*
X38335021Y-25401601D01*
X38298647Y-25338599D01*
X38282174Y-25270699D01*
X38305027Y-25204672D01*
X38359948Y-25161481D01*
X38429501Y-25154840D01*
X38440969Y-25157622D01*
X38501856Y-25175500D01*
X38501857Y-25175500D01*
X38645780Y-25175500D01*
X38645780Y-25175499D01*
X38783871Y-25134953D01*
X38904946Y-25057143D01*
X38999195Y-24948373D01*
X39058983Y-24817457D01*
X39079465Y-24675000D01*
X39058983Y-24532543D01*
X38999195Y-24401627D01*
X38904946Y-24292857D01*
X38838259Y-24250000D01*
X60994353Y-24250000D01*
X61014834Y-24392456D01*
X61074622Y-24523371D01*
X61074623Y-24523373D01*
X61168872Y-24632143D01*
X61289947Y-24709953D01*
X61289950Y-24709954D01*
X61289949Y-24709954D01*
X61428036Y-24750499D01*
X61428038Y-24750500D01*
X61428039Y-24750500D01*
X61571962Y-24750500D01*
X61571962Y-24750499D01*
X61710053Y-24709953D01*
X61831128Y-24632143D01*
X61831134Y-24632135D01*
X61837828Y-24626337D01*
X61839901Y-24628729D01*
X61885531Y-24599387D01*
X61955400Y-24599367D01*
X62014189Y-24637124D01*
X62043233Y-24700671D01*
X62044500Y-24718353D01*
X62044500Y-24852129D01*
X62060486Y-24932498D01*
X62065159Y-24943780D01*
X62063714Y-24944378D01*
X62080436Y-24997788D01*
X62064482Y-25055938D01*
X62065159Y-25056219D01*
X62062926Y-25061609D01*
X62061950Y-25065168D01*
X62060550Y-25067345D01*
X62060484Y-25067505D01*
X62044500Y-25147863D01*
X62044500Y-25352129D01*
X62060486Y-25432498D01*
X62065159Y-25443780D01*
X62063714Y-25444378D01*
X62080436Y-25497788D01*
X62064482Y-25555938D01*
X62065159Y-25556219D01*
X62062926Y-25561609D01*
X62061950Y-25565168D01*
X62060550Y-25567345D01*
X62060484Y-25567505D01*
X62044500Y-25647863D01*
X62044500Y-25852129D01*
X62047695Y-25868191D01*
X62059015Y-25925106D01*
X62060486Y-25932498D01*
X62065159Y-25943780D01*
X62063714Y-25944378D01*
X62080436Y-25997788D01*
X62064482Y-26055938D01*
X62065159Y-26056219D01*
X62062926Y-26061609D01*
X62061950Y-26065168D01*
X62060550Y-26067345D01*
X62060484Y-26067505D01*
X62044500Y-26147863D01*
X62044500Y-26352129D01*
X62060486Y-26432498D01*
X62065159Y-26443780D01*
X62063714Y-26444378D01*
X62080436Y-26497788D01*
X62064482Y-26555938D01*
X62065159Y-26556219D01*
X62062926Y-26561609D01*
X62061950Y-26565168D01*
X62060550Y-26567345D01*
X62060484Y-26567504D01*
X62058943Y-26575255D01*
X62026558Y-26637165D01*
X61965842Y-26671740D01*
X61896073Y-26668000D01*
X61843614Y-26632266D01*
X61831130Y-26617859D01*
X61831129Y-26617858D01*
X61831128Y-26617857D01*
X61710053Y-26540047D01*
X61710051Y-26540046D01*
X61710049Y-26540045D01*
X61710050Y-26540045D01*
X61571963Y-26499500D01*
X61571961Y-26499500D01*
X61428039Y-26499500D01*
X61428036Y-26499500D01*
X61289949Y-26540045D01*
X61168873Y-26617856D01*
X61074623Y-26726626D01*
X61074622Y-26726628D01*
X61014834Y-26857543D01*
X60994353Y-27000000D01*
X61014834Y-27142456D01*
X61040370Y-27198371D01*
X61074623Y-27273373D01*
X61168872Y-27382143D01*
X61289947Y-27459953D01*
X61289950Y-27459954D01*
X61289949Y-27459954D01*
X61397107Y-27491417D01*
X61426336Y-27500000D01*
X61428036Y-27500499D01*
X61428038Y-27500500D01*
X61549654Y-27500500D01*
X61611653Y-27517113D01*
X61634007Y-27530019D01*
X61634011Y-27530021D01*
X61710438Y-27550500D01*
X61920500Y-27550500D01*
X61987539Y-27570185D01*
X62033294Y-27622989D01*
X62044500Y-27674499D01*
X62044500Y-27852129D01*
X62052547Y-27892587D01*
X62060485Y-27932495D01*
X62078704Y-27959761D01*
X62099581Y-28026436D01*
X62087002Y-28083110D01*
X62054911Y-28148753D01*
X62054729Y-28149999D01*
X62054730Y-28150000D01*
X62686000Y-28150000D01*
X62753039Y-28169685D01*
X62798794Y-28222489D01*
X62810000Y-28274000D01*
X62810000Y-28400000D01*
X62936000Y-28400000D01*
X63003039Y-28419685D01*
X63048794Y-28472489D01*
X63060000Y-28524000D01*
X63060000Y-28575500D01*
X63040315Y-28642539D01*
X62987511Y-28688294D01*
X62936000Y-28699500D01*
X62660862Y-28699500D01*
X62593823Y-28679815D01*
X62573181Y-28663181D01*
X62560000Y-28650000D01*
X62054730Y-28650000D01*
X62054911Y-28651246D01*
X62100730Y-28744971D01*
X62112489Y-28813844D01*
X62100730Y-28853890D01*
X62054426Y-28948606D01*
X62054426Y-28948607D01*
X62044500Y-29016739D01*
X62044500Y-29383260D01*
X62054426Y-29451391D01*
X62105803Y-29556485D01*
X62188514Y-29639196D01*
X62188515Y-29639196D01*
X62188517Y-29639198D01*
X62265305Y-29676737D01*
X62316886Y-29723864D01*
X62334801Y-29791398D01*
X62313360Y-29857896D01*
X62304525Y-29868572D01*
X62304747Y-29868754D01*
X62300883Y-29873461D01*
X62224228Y-29988182D01*
X62224221Y-29988195D01*
X62171421Y-30115667D01*
X62171418Y-30115677D01*
X62144500Y-30251004D01*
X62144500Y-30251007D01*
X62144500Y-30388993D01*
X62144500Y-30388995D01*
X62144499Y-30388995D01*
X62171418Y-30524322D01*
X62171421Y-30524332D01*
X62224221Y-30651804D01*
X62224228Y-30651817D01*
X62300885Y-30766541D01*
X62300888Y-30766545D01*
X62398454Y-30864111D01*
X62398458Y-30864114D01*
X62513182Y-30940771D01*
X62513195Y-30940778D01*
X62604241Y-30978490D01*
X62640672Y-30993580D01*
X62640676Y-30993580D01*
X62640677Y-30993581D01*
X62776004Y-31020500D01*
X62776007Y-31020500D01*
X64013995Y-31020500D01*
X64105041Y-31002389D01*
X64149328Y-30993580D01*
X64276811Y-30940775D01*
X64391542Y-30864114D01*
X64489114Y-30766542D01*
X64565775Y-30651811D01*
X64618580Y-30524328D01*
X64628696Y-30473472D01*
X64645500Y-30388995D01*
X66474499Y-30388995D01*
X66501418Y-30524322D01*
X66501421Y-30524332D01*
X66554221Y-30651804D01*
X66554228Y-30651817D01*
X66630885Y-30766541D01*
X66630888Y-30766545D01*
X66728454Y-30864111D01*
X66728458Y-30864114D01*
X66843182Y-30940771D01*
X66843195Y-30940778D01*
X66934241Y-30978490D01*
X66970672Y-30993580D01*
X66970676Y-30993580D01*
X66970677Y-30993581D01*
X67106004Y-31020500D01*
X67106007Y-31020500D01*
X68043995Y-31020500D01*
X68135041Y-31002389D01*
X68179328Y-30993580D01*
X68306811Y-30940775D01*
X68421542Y-30864114D01*
X68519114Y-30766542D01*
X68595775Y-30651811D01*
X68648580Y-30524328D01*
X68658696Y-30473472D01*
X68675500Y-30388995D01*
X68675500Y-30251004D01*
X68648581Y-30115677D01*
X68648580Y-30115676D01*
X68648580Y-30115672D01*
X68648578Y-30115667D01*
X68595778Y-29988195D01*
X68595771Y-29988182D01*
X68519114Y-29873458D01*
X68519111Y-29873454D01*
X68421545Y-29775888D01*
X68421541Y-29775885D01*
X68306817Y-29699228D01*
X68306804Y-29699221D01*
X68179332Y-29646421D01*
X68179322Y-29646418D01*
X68043995Y-29619500D01*
X68043993Y-29619500D01*
X67106007Y-29619500D01*
X67106005Y-29619500D01*
X66970677Y-29646418D01*
X66970667Y-29646421D01*
X66843195Y-29699221D01*
X66843182Y-29699228D01*
X66728458Y-29775885D01*
X66728454Y-29775888D01*
X66630888Y-29873454D01*
X66630885Y-29873458D01*
X66554228Y-29988182D01*
X66554221Y-29988195D01*
X66501421Y-30115667D01*
X66501418Y-30115677D01*
X66474500Y-30251004D01*
X66474500Y-30251007D01*
X66474500Y-30388993D01*
X66474500Y-30388995D01*
X66474499Y-30388995D01*
X64645500Y-30388995D01*
X64645500Y-30251004D01*
X64618581Y-30115677D01*
X64618580Y-30115676D01*
X64618580Y-30115672D01*
X64618578Y-30115667D01*
X64565778Y-29988195D01*
X64565771Y-29988182D01*
X64489114Y-29873458D01*
X64489111Y-29873454D01*
X64391545Y-29775888D01*
X64391541Y-29775885D01*
X64276817Y-29699228D01*
X64276804Y-29699221D01*
X64149332Y-29646421D01*
X64149322Y-29646418D01*
X64070032Y-29630646D01*
X64008121Y-29598261D01*
X63973547Y-29537545D01*
X63977288Y-29467775D01*
X64018154Y-29411103D01*
X64062128Y-29389255D01*
X64097836Y-29379688D01*
X64217665Y-29310505D01*
X64315505Y-29212665D01*
X64384688Y-29092836D01*
X64420500Y-28959183D01*
X64420500Y-28820817D01*
X64384688Y-28687164D01*
X64315505Y-28567335D01*
X64217665Y-28469495D01*
X64217664Y-28469494D01*
X64217661Y-28469492D01*
X64097838Y-28400313D01*
X64097837Y-28400312D01*
X64097836Y-28400312D01*
X63964183Y-28364500D01*
X63825817Y-28364500D01*
X63731092Y-28389881D01*
X63661242Y-28388218D01*
X63603380Y-28349055D01*
X63575876Y-28284826D01*
X63574999Y-28270106D01*
X63574999Y-28216782D01*
X63565087Y-28148750D01*
X63541448Y-28100395D01*
X63529690Y-28031521D01*
X63549747Y-27977045D01*
X63579515Y-27932495D01*
X63595500Y-27852133D01*
X63595499Y-27647868D01*
X63579515Y-27567505D01*
X63579513Y-27567502D01*
X63574841Y-27556222D01*
X63576285Y-27555623D01*
X63559563Y-27502211D01*
X63575517Y-27444056D01*
X63574842Y-27443777D01*
X63577070Y-27438396D01*
X63578049Y-27434831D01*
X63579452Y-27432647D01*
X63579516Y-27432493D01*
X63595499Y-27352136D01*
X63595500Y-27352133D01*
X63595499Y-27147868D01*
X63579515Y-27067505D01*
X63579513Y-27067502D01*
X63574841Y-27056222D01*
X63576285Y-27055623D01*
X63559563Y-27002211D01*
X63575517Y-26944056D01*
X63574842Y-26943777D01*
X63577070Y-26938396D01*
X63578049Y-26934831D01*
X63579452Y-26932647D01*
X63579516Y-26932493D01*
X63595499Y-26852136D01*
X63595500Y-26852133D01*
X63595499Y-26647868D01*
X63579515Y-26567505D01*
X63579513Y-26567502D01*
X63574841Y-26556222D01*
X63576285Y-26555623D01*
X63559563Y-26502211D01*
X63575517Y-26444056D01*
X63574842Y-26443777D01*
X63577070Y-26438396D01*
X63578049Y-26434831D01*
X63579452Y-26432647D01*
X63579516Y-26432493D01*
X63595499Y-26352136D01*
X63595500Y-26352133D01*
X63595499Y-26147868D01*
X63579515Y-26067505D01*
X63579513Y-26067502D01*
X63574841Y-26056222D01*
X63576285Y-26055623D01*
X63559563Y-26002211D01*
X63575517Y-25944056D01*
X63574842Y-25943777D01*
X63577070Y-25938396D01*
X63578049Y-25934831D01*
X63579452Y-25932647D01*
X63579516Y-25932493D01*
X63595499Y-25852136D01*
X63595500Y-25852133D01*
X63595499Y-25647868D01*
X63579515Y-25567505D01*
X63579513Y-25567502D01*
X63574841Y-25556222D01*
X63576285Y-25555623D01*
X63559563Y-25502211D01*
X63575517Y-25444056D01*
X63574842Y-25443777D01*
X63577070Y-25438396D01*
X63578049Y-25434831D01*
X63579452Y-25432647D01*
X63579516Y-25432493D01*
X63595499Y-25352136D01*
X63595500Y-25352133D01*
X63595499Y-25147868D01*
X63579515Y-25067505D01*
X63579513Y-25067502D01*
X63574841Y-25056222D01*
X63576285Y-25055623D01*
X63559563Y-25002211D01*
X63575517Y-24944056D01*
X63574842Y-24943777D01*
X63577070Y-24938396D01*
X63578049Y-24934831D01*
X63579452Y-24932647D01*
X63579516Y-24932493D01*
X63595499Y-24852136D01*
X63595500Y-24852133D01*
X63595499Y-24647868D01*
X63579515Y-24567505D01*
X63579513Y-24567502D01*
X63574841Y-24556222D01*
X63576285Y-24555623D01*
X63559563Y-24502211D01*
X63575517Y-24444056D01*
X63574842Y-24443777D01*
X63577070Y-24438396D01*
X63578049Y-24434831D01*
X63579452Y-24432647D01*
X63579516Y-24432493D01*
X63589088Y-24384365D01*
X63595500Y-24352133D01*
X63595499Y-24147868D01*
X63579515Y-24067505D01*
X63549746Y-24022953D01*
X63528869Y-23956278D01*
X63541449Y-23899603D01*
X63565088Y-23851248D01*
X63574999Y-23783220D01*
X63574999Y-23729895D01*
X63594682Y-23662855D01*
X63647486Y-23617100D01*
X63716644Y-23607155D01*
X63731078Y-23610114D01*
X63825817Y-23635500D01*
X63825820Y-23635500D01*
X63964181Y-23635500D01*
X63964183Y-23635500D01*
X64097836Y-23599688D01*
X64217665Y-23530505D01*
X64315505Y-23432665D01*
X64384688Y-23312836D01*
X64420500Y-23179183D01*
X64420500Y-23040817D01*
X64384688Y-22907164D01*
X64315505Y-22787335D01*
X64217665Y-22689495D01*
X64217664Y-22689494D01*
X64217661Y-22689492D01*
X64097838Y-22620313D01*
X64097837Y-22620312D01*
X64082017Y-22616073D01*
X64062129Y-22610744D01*
X64002470Y-22574379D01*
X63971941Y-22511532D01*
X63980236Y-22442157D01*
X64024722Y-22388279D01*
X64070033Y-22369353D01*
X64084297Y-22366515D01*
X64149328Y-22353580D01*
X64276811Y-22300775D01*
X64391542Y-22224114D01*
X64489114Y-22126542D01*
X64565775Y-22011811D01*
X64618580Y-21884328D01*
X64633960Y-21807007D01*
X64645500Y-21748995D01*
X66474499Y-21748995D01*
X66501418Y-21884322D01*
X66501421Y-21884332D01*
X66554221Y-22011804D01*
X66554228Y-22011817D01*
X66630885Y-22126541D01*
X66630888Y-22126545D01*
X66728454Y-22224111D01*
X66728458Y-22224114D01*
X66843182Y-22300771D01*
X66843195Y-22300778D01*
X66970667Y-22353578D01*
X66970672Y-22353580D01*
X66970676Y-22353580D01*
X66970677Y-22353581D01*
X67106004Y-22380500D01*
X67106007Y-22380500D01*
X68043995Y-22380500D01*
X68143021Y-22360802D01*
X68179328Y-22353580D01*
X68306811Y-22300775D01*
X68421542Y-22224114D01*
X68519114Y-22126542D01*
X68595775Y-22011811D01*
X68648580Y-21884328D01*
X68663960Y-21807007D01*
X68675500Y-21748995D01*
X68675500Y-21611004D01*
X68648581Y-21475677D01*
X68648580Y-21475676D01*
X68648580Y-21475672D01*
X68648578Y-21475667D01*
X68595778Y-21348195D01*
X68595771Y-21348182D01*
X68519114Y-21233458D01*
X68519111Y-21233454D01*
X68421545Y-21135888D01*
X68421541Y-21135885D01*
X68306817Y-21059228D01*
X68306804Y-21059221D01*
X68179332Y-21006421D01*
X68179322Y-21006418D01*
X68043995Y-20979500D01*
X68043993Y-20979500D01*
X67106007Y-20979500D01*
X67106005Y-20979500D01*
X66970677Y-21006418D01*
X66970667Y-21006421D01*
X66843195Y-21059221D01*
X66843182Y-21059228D01*
X66728458Y-21135885D01*
X66728454Y-21135888D01*
X66630888Y-21233454D01*
X66630885Y-21233458D01*
X66554228Y-21348182D01*
X66554221Y-21348195D01*
X66501421Y-21475667D01*
X66501418Y-21475677D01*
X66474500Y-21611004D01*
X66474500Y-21611007D01*
X66474500Y-21748993D01*
X66474500Y-21748995D01*
X66474499Y-21748995D01*
X64645500Y-21748995D01*
X64645500Y-21611004D01*
X64618581Y-21475677D01*
X64618580Y-21475676D01*
X64618580Y-21475672D01*
X64618578Y-21475667D01*
X64565778Y-21348195D01*
X64565771Y-21348182D01*
X64489114Y-21233458D01*
X64489111Y-21233454D01*
X64391545Y-21135888D01*
X64391541Y-21135885D01*
X64276817Y-21059228D01*
X64276804Y-21059221D01*
X64149332Y-21006421D01*
X64149322Y-21006418D01*
X64013995Y-20979500D01*
X64013993Y-20979500D01*
X62776007Y-20979500D01*
X62776005Y-20979500D01*
X62640677Y-21006418D01*
X62640667Y-21006421D01*
X62513195Y-21059221D01*
X62513182Y-21059228D01*
X62398458Y-21135885D01*
X62398454Y-21135888D01*
X62300888Y-21233454D01*
X62300885Y-21233458D01*
X62224228Y-21348182D01*
X62224221Y-21348195D01*
X62171421Y-21475667D01*
X62171418Y-21475677D01*
X62144500Y-21611004D01*
X62144500Y-21611007D01*
X62144500Y-21748993D01*
X62144500Y-21748995D01*
X62144499Y-21748995D01*
X62171418Y-21884322D01*
X62171421Y-21884332D01*
X62224221Y-22011804D01*
X62224228Y-22011817D01*
X62300885Y-22126541D01*
X62304751Y-22131252D01*
X62303117Y-22132592D01*
X62332009Y-22185504D01*
X62327025Y-22255196D01*
X62285153Y-22311129D01*
X62265304Y-22323262D01*
X62188516Y-22360802D01*
X62188515Y-22360802D01*
X62105803Y-22443514D01*
X62054426Y-22548608D01*
X62044500Y-22616739D01*
X62044500Y-22983260D01*
X62054426Y-23051391D01*
X62100730Y-23146108D01*
X62112488Y-23214981D01*
X62100730Y-23255028D01*
X62054911Y-23348752D01*
X62054729Y-23349999D01*
X62054730Y-23350000D01*
X62686000Y-23350000D01*
X62753039Y-23369685D01*
X62798794Y-23422489D01*
X62810000Y-23474000D01*
X62810000Y-23600000D01*
X62936000Y-23600000D01*
X63003039Y-23619685D01*
X63048794Y-23672489D01*
X63060000Y-23724000D01*
X63060000Y-23775500D01*
X63040315Y-23842539D01*
X62987511Y-23888294D01*
X62936000Y-23899500D01*
X62660862Y-23899500D01*
X62593823Y-23879815D01*
X62573181Y-23863181D01*
X62560000Y-23850000D01*
X62054730Y-23850000D01*
X62029007Y-23879743D01*
X61970265Y-23917573D01*
X61900395Y-23917639D01*
X61841581Y-23879920D01*
X61841505Y-23879833D01*
X61841489Y-23879815D01*
X61831128Y-23867857D01*
X61831127Y-23867856D01*
X61784502Y-23837892D01*
X61710053Y-23790047D01*
X61710051Y-23790046D01*
X61710049Y-23790045D01*
X61710050Y-23790045D01*
X61571963Y-23749500D01*
X61571961Y-23749500D01*
X61428039Y-23749500D01*
X61428036Y-23749500D01*
X61289949Y-23790045D01*
X61168873Y-23867856D01*
X61074623Y-23976626D01*
X61074622Y-23976628D01*
X61014834Y-24107543D01*
X60994353Y-24250000D01*
X38838259Y-24250000D01*
X38783871Y-24215047D01*
X38783869Y-24215046D01*
X38783867Y-24215045D01*
X38783868Y-24215045D01*
X38645781Y-24174500D01*
X38645779Y-24174500D01*
X38501857Y-24174500D01*
X38501854Y-24174500D01*
X38363767Y-24215045D01*
X38242691Y-24292856D01*
X38173212Y-24373039D01*
X38114433Y-24410813D01*
X38044564Y-24410813D01*
X37985786Y-24373038D01*
X37956761Y-24309483D01*
X37955499Y-24291845D01*
X37955499Y-24147868D01*
X37939515Y-24067505D01*
X37921296Y-24040239D01*
X37900418Y-23973564D01*
X37912998Y-23916887D01*
X37945088Y-23851246D01*
X37945270Y-23850000D01*
X37440000Y-23850000D01*
X37426819Y-23863181D01*
X37365496Y-23896666D01*
X37339138Y-23899500D01*
X37040862Y-23899500D01*
X36973823Y-23879815D01*
X36953181Y-23863181D01*
X36940000Y-23850000D01*
X36434730Y-23850000D01*
X36434911Y-23851247D01*
X36458551Y-23899604D01*
X36470309Y-23968478D01*
X36450253Y-24022954D01*
X36420484Y-24067506D01*
X36420483Y-24067509D01*
X36404500Y-24147863D01*
X36404500Y-24352129D01*
X36405577Y-24357543D01*
X36414345Y-24401627D01*
X36420486Y-24432498D01*
X36425159Y-24443780D01*
X36423714Y-24444378D01*
X36440436Y-24497788D01*
X36424482Y-24555938D01*
X36425159Y-24556219D01*
X36422926Y-24561609D01*
X36421950Y-24565168D01*
X36420550Y-24567345D01*
X36420484Y-24567505D01*
X36404500Y-24647863D01*
X36404500Y-24852129D01*
X36420486Y-24932498D01*
X36425159Y-24943780D01*
X36423714Y-24944378D01*
X36440436Y-24997788D01*
X36424482Y-25055938D01*
X36425159Y-25056219D01*
X36422926Y-25061609D01*
X36421950Y-25065168D01*
X36420550Y-25067345D01*
X36420484Y-25067505D01*
X36404500Y-25147863D01*
X36404500Y-25352131D01*
X36404501Y-25352132D01*
X36414961Y-25404725D01*
X36408732Y-25474316D01*
X36381024Y-25516594D01*
X36120489Y-25777130D01*
X36064541Y-25833077D01*
X36064537Y-25833082D01*
X36031887Y-25889635D01*
X35981320Y-25937851D01*
X35912713Y-25951074D01*
X35847848Y-25925106D01*
X35807320Y-25868191D01*
X35800500Y-25827635D01*
X35800500Y-24963738D01*
X35820185Y-24896699D01*
X35830787Y-24882535D01*
X35831124Y-24882144D01*
X35831128Y-24882143D01*
X35925377Y-24773373D01*
X35985165Y-24642457D01*
X36005647Y-24500000D01*
X35985165Y-24357543D01*
X35925377Y-24226627D01*
X35831128Y-24117857D01*
X35710053Y-24040047D01*
X35710051Y-24040046D01*
X35710049Y-24040045D01*
X35710050Y-24040045D01*
X35571963Y-23999500D01*
X35571961Y-23999500D01*
X35428039Y-23999500D01*
X35428036Y-23999500D01*
X35289949Y-24040045D01*
X35168873Y-24117856D01*
X35074623Y-24226626D01*
X35074622Y-24226628D01*
X35014834Y-24357543D01*
X34994353Y-24500000D01*
X30500500Y-24500000D01*
X30500500Y-22004427D01*
X30500816Y-21995581D01*
X30508773Y-21884328D01*
X30515130Y-21795436D01*
X30517646Y-21777938D01*
X30523942Y-21748995D01*
X31324499Y-21748995D01*
X31351418Y-21884322D01*
X31351421Y-21884332D01*
X31404221Y-22011804D01*
X31404228Y-22011817D01*
X31480885Y-22126541D01*
X31480888Y-22126545D01*
X31578454Y-22224111D01*
X31578458Y-22224114D01*
X31693182Y-22300771D01*
X31693195Y-22300778D01*
X31820667Y-22353578D01*
X31820672Y-22353580D01*
X31820676Y-22353580D01*
X31820677Y-22353581D01*
X31956004Y-22380500D01*
X31956007Y-22380500D01*
X32893995Y-22380500D01*
X32993021Y-22360802D01*
X33029328Y-22353580D01*
X33156811Y-22300775D01*
X33271542Y-22224114D01*
X33369114Y-22126542D01*
X33445775Y-22011811D01*
X33498580Y-21884328D01*
X33513960Y-21807007D01*
X33525500Y-21748995D01*
X35354499Y-21748995D01*
X35381418Y-21884322D01*
X35381421Y-21884332D01*
X35434221Y-22011804D01*
X35434228Y-22011817D01*
X35510885Y-22126541D01*
X35510888Y-22126545D01*
X35608454Y-22224111D01*
X35608458Y-22224114D01*
X35723182Y-22300771D01*
X35723195Y-22300778D01*
X35850667Y-22353578D01*
X35850672Y-22353580D01*
X35893828Y-22362164D01*
X35929966Y-22369353D01*
X35991877Y-22401738D01*
X36026451Y-22462453D01*
X36022712Y-22532223D01*
X35981845Y-22588895D01*
X35937870Y-22610744D01*
X35902168Y-22620310D01*
X35902161Y-22620313D01*
X35782338Y-22689492D01*
X35782333Y-22689496D01*
X35684496Y-22787333D01*
X35684492Y-22787338D01*
X35615313Y-22907161D01*
X35615312Y-22907164D01*
X35579500Y-23040817D01*
X35579500Y-23179183D01*
X35599823Y-23255028D01*
X35615312Y-23312835D01*
X35615313Y-23312838D01*
X35684492Y-23432661D01*
X35684494Y-23432664D01*
X35684495Y-23432665D01*
X35782335Y-23530505D01*
X35902164Y-23599688D01*
X36035817Y-23635500D01*
X36035819Y-23635500D01*
X36174181Y-23635500D01*
X36174183Y-23635500D01*
X36307836Y-23599688D01*
X36427665Y-23530505D01*
X36525505Y-23432665D01*
X36537435Y-23412000D01*
X36588002Y-23363785D01*
X36644823Y-23350000D01*
X37945270Y-23350000D01*
X37945270Y-23349999D01*
X37945088Y-23348751D01*
X37899270Y-23255029D01*
X37887510Y-23186156D01*
X37899270Y-23146107D01*
X37945573Y-23051393D01*
X37955500Y-22983260D01*
X37955500Y-22616740D01*
X37954626Y-22610744D01*
X37945573Y-22548608D01*
X37927448Y-22511532D01*
X37894198Y-22443517D01*
X37894196Y-22443515D01*
X37894196Y-22443514D01*
X37811485Y-22360803D01*
X37734695Y-22323263D01*
X37683112Y-22276135D01*
X37665198Y-22208601D01*
X37686639Y-22142102D01*
X37695475Y-22131428D01*
X37695253Y-22131246D01*
X37699115Y-22126541D01*
X37775775Y-22011811D01*
X37780667Y-22000000D01*
X45124417Y-22000000D01*
X45144699Y-22205932D01*
X45158067Y-22250000D01*
X45204768Y-22403954D01*
X45302315Y-22586450D01*
X45336969Y-22628677D01*
X45433589Y-22746410D01*
X45483461Y-22787338D01*
X45593550Y-22877685D01*
X45776046Y-22975232D01*
X45974066Y-23035300D01*
X45974065Y-23035300D01*
X45992529Y-23037118D01*
X46180000Y-23055583D01*
X46385934Y-23035300D01*
X46583954Y-22975232D01*
X46766450Y-22877685D01*
X46926410Y-22746410D01*
X47057685Y-22586450D01*
X47155232Y-22403954D01*
X47215300Y-22205934D01*
X47235583Y-22000000D01*
X47664417Y-22000000D01*
X47684699Y-22205932D01*
X47698067Y-22250000D01*
X47744768Y-22403954D01*
X47842315Y-22586450D01*
X47876969Y-22628677D01*
X47973589Y-22746410D01*
X48023461Y-22787338D01*
X48133550Y-22877685D01*
X48316046Y-22975232D01*
X48514066Y-23035300D01*
X48514065Y-23035300D01*
X48532529Y-23037118D01*
X48720000Y-23055583D01*
X48925934Y-23035300D01*
X49123954Y-22975232D01*
X49306450Y-22877685D01*
X49466410Y-22746410D01*
X49597685Y-22586450D01*
X49695232Y-22403954D01*
X49755300Y-22205934D01*
X49775583Y-22000000D01*
X50204417Y-22000000D01*
X50224699Y-22205932D01*
X50238067Y-22250000D01*
X50284768Y-22403954D01*
X50382315Y-22586450D01*
X50416969Y-22628677D01*
X50513589Y-22746410D01*
X50563461Y-22787338D01*
X50673550Y-22877685D01*
X50856046Y-22975232D01*
X51054066Y-23035300D01*
X51054065Y-23035300D01*
X51072529Y-23037118D01*
X51260000Y-23055583D01*
X51465934Y-23035300D01*
X51663954Y-22975232D01*
X51846450Y-22877685D01*
X52006410Y-22746410D01*
X52137685Y-22586450D01*
X52235232Y-22403954D01*
X52295300Y-22205934D01*
X52315583Y-22000000D01*
X52295300Y-21794066D01*
X52235232Y-21596046D01*
X52137685Y-21413550D01*
X52084039Y-21348182D01*
X52006410Y-21253589D01*
X51856176Y-21130297D01*
X52750000Y-21130297D01*
X52750000Y-21750000D01*
X53366988Y-21750000D01*
X53334075Y-21807007D01*
X53300000Y-21934174D01*
X53300000Y-22065826D01*
X53334075Y-22192993D01*
X53366988Y-22250000D01*
X52750000Y-22250000D01*
X52750000Y-22869702D01*
X52761602Y-22928033D01*
X52761603Y-22928034D01*
X52805808Y-22994191D01*
X52871965Y-23038396D01*
X52871966Y-23038397D01*
X52930297Y-23049999D01*
X52930301Y-23050000D01*
X53550000Y-23050000D01*
X53550000Y-22433012D01*
X53607007Y-22465925D01*
X53734174Y-22500000D01*
X53865826Y-22500000D01*
X53992993Y-22465925D01*
X54050000Y-22433012D01*
X54050000Y-23050000D01*
X54669699Y-23050000D01*
X54669702Y-23049999D01*
X54728033Y-23038397D01*
X54728034Y-23038396D01*
X54794191Y-22994191D01*
X54838396Y-22928034D01*
X54838397Y-22928033D01*
X54849999Y-22869702D01*
X54850000Y-22869699D01*
X54850000Y-22250000D01*
X54233012Y-22250000D01*
X54265925Y-22192993D01*
X54300000Y-22065826D01*
X54300000Y-21934174D01*
X54265925Y-21807007D01*
X54233012Y-21750000D01*
X54850000Y-21750000D01*
X54850000Y-21130301D01*
X54849999Y-21130297D01*
X54838397Y-21071966D01*
X54838396Y-21071965D01*
X54794191Y-21005808D01*
X54728034Y-20961603D01*
X54728033Y-20961602D01*
X54669702Y-20950000D01*
X54050000Y-20950000D01*
X54050000Y-21566988D01*
X53992993Y-21534075D01*
X53865826Y-21500000D01*
X53734174Y-21500000D01*
X53607007Y-21534075D01*
X53550000Y-21566988D01*
X53550000Y-20950000D01*
X52930297Y-20950000D01*
X52871966Y-20961602D01*
X52871965Y-20961603D01*
X52805808Y-21005808D01*
X52761603Y-21071965D01*
X52761602Y-21071966D01*
X52750000Y-21130297D01*
X51856176Y-21130297D01*
X51846452Y-21122317D01*
X51846453Y-21122317D01*
X51846450Y-21122315D01*
X51663954Y-21024768D01*
X51465934Y-20964700D01*
X51465932Y-20964699D01*
X51465934Y-20964699D01*
X51260000Y-20944417D01*
X51054067Y-20964699D01*
X50856043Y-21024769D01*
X50745898Y-21083643D01*
X50673550Y-21122315D01*
X50673548Y-21122316D01*
X50673547Y-21122317D01*
X50513589Y-21253589D01*
X50382317Y-21413547D01*
X50382315Y-21413550D01*
X50349110Y-21475672D01*
X50284769Y-21596043D01*
X50224699Y-21794067D01*
X50204417Y-22000000D01*
X49775583Y-22000000D01*
X49755300Y-21794066D01*
X49695232Y-21596046D01*
X49597685Y-21413550D01*
X49544039Y-21348182D01*
X49466410Y-21253589D01*
X49306452Y-21122317D01*
X49306453Y-21122317D01*
X49306450Y-21122315D01*
X49123954Y-21024768D01*
X48925934Y-20964700D01*
X48925932Y-20964699D01*
X48925934Y-20964699D01*
X48720000Y-20944417D01*
X48514067Y-20964699D01*
X48316043Y-21024769D01*
X48205898Y-21083643D01*
X48133550Y-21122315D01*
X48133548Y-21122316D01*
X48133547Y-21122317D01*
X47973589Y-21253589D01*
X47842317Y-21413547D01*
X47842315Y-21413550D01*
X47809110Y-21475672D01*
X47744769Y-21596043D01*
X47684699Y-21794067D01*
X47664417Y-22000000D01*
X47235583Y-22000000D01*
X47215300Y-21794066D01*
X47155232Y-21596046D01*
X47057685Y-21413550D01*
X47004039Y-21348182D01*
X46926410Y-21253589D01*
X46766452Y-21122317D01*
X46766453Y-21122317D01*
X46766450Y-21122315D01*
X46583954Y-21024768D01*
X46385934Y-20964700D01*
X46385932Y-20964699D01*
X46385934Y-20964699D01*
X46180000Y-20944417D01*
X45974067Y-20964699D01*
X45776043Y-21024769D01*
X45665898Y-21083643D01*
X45593550Y-21122315D01*
X45593548Y-21122316D01*
X45593547Y-21122317D01*
X45433589Y-21253589D01*
X45302317Y-21413547D01*
X45302315Y-21413550D01*
X45269110Y-21475672D01*
X45204769Y-21596043D01*
X45144699Y-21794067D01*
X45124417Y-22000000D01*
X37780667Y-22000000D01*
X37828580Y-21884328D01*
X37843960Y-21807007D01*
X37855500Y-21748995D01*
X37855500Y-21611004D01*
X37828581Y-21475677D01*
X37828580Y-21475676D01*
X37828580Y-21475672D01*
X37828578Y-21475667D01*
X37775778Y-21348195D01*
X37775771Y-21348182D01*
X37699114Y-21233458D01*
X37699111Y-21233454D01*
X37601545Y-21135888D01*
X37601541Y-21135885D01*
X37486817Y-21059228D01*
X37486804Y-21059221D01*
X37359332Y-21006421D01*
X37359322Y-21006418D01*
X37223995Y-20979500D01*
X37223993Y-20979500D01*
X35986007Y-20979500D01*
X35986005Y-20979500D01*
X35850677Y-21006418D01*
X35850667Y-21006421D01*
X35723195Y-21059221D01*
X35723182Y-21059228D01*
X35608458Y-21135885D01*
X35608454Y-21135888D01*
X35510888Y-21233454D01*
X35510885Y-21233458D01*
X35434228Y-21348182D01*
X35434221Y-21348195D01*
X35381421Y-21475667D01*
X35381418Y-21475677D01*
X35354500Y-21611004D01*
X35354500Y-21611007D01*
X35354500Y-21748993D01*
X35354500Y-21748995D01*
X35354499Y-21748995D01*
X33525500Y-21748995D01*
X33525500Y-21611004D01*
X33498581Y-21475677D01*
X33498580Y-21475676D01*
X33498580Y-21475672D01*
X33498578Y-21475667D01*
X33445778Y-21348195D01*
X33445771Y-21348182D01*
X33369114Y-21233458D01*
X33369111Y-21233454D01*
X33271545Y-21135888D01*
X33271541Y-21135885D01*
X33156817Y-21059228D01*
X33156804Y-21059221D01*
X33029332Y-21006421D01*
X33029322Y-21006418D01*
X32893995Y-20979500D01*
X32893993Y-20979500D01*
X31956007Y-20979500D01*
X31956005Y-20979500D01*
X31820677Y-21006418D01*
X31820667Y-21006421D01*
X31693195Y-21059221D01*
X31693182Y-21059228D01*
X31578458Y-21135885D01*
X31578454Y-21135888D01*
X31480888Y-21233454D01*
X31480885Y-21233458D01*
X31404228Y-21348182D01*
X31404221Y-21348195D01*
X31351421Y-21475667D01*
X31351418Y-21475677D01*
X31324500Y-21611004D01*
X31324500Y-21611007D01*
X31324500Y-21748993D01*
X31324500Y-21748995D01*
X31324499Y-21748995D01*
X30523942Y-21748995D01*
X30559356Y-21586199D01*
X30564333Y-21569248D01*
X30632911Y-21385385D01*
X30640259Y-21369298D01*
X30703440Y-21253590D01*
X30734291Y-21197089D01*
X30743845Y-21182221D01*
X30861448Y-21025123D01*
X30873020Y-21011769D01*
X31011769Y-20873020D01*
X31025123Y-20861448D01*
X31182221Y-20743845D01*
X31197089Y-20734291D01*
X31369298Y-20640258D01*
X31385385Y-20632911D01*
X31569248Y-20564333D01*
X31586199Y-20559356D01*
X31777938Y-20517646D01*
X31795436Y-20515130D01*
X31995582Y-20500816D01*
X32004428Y-20500500D01*
X32065892Y-20500500D01*
X67934108Y-20500500D01*
X67995572Y-20500500D01*
X68004418Y-20500816D01*
G37*
G04 #@! TD.AperFunction*
G04 #@! TA.AperFunction,Conductor*
G36*
X59120487Y-36019685D02*
G01*
X59166242Y-36072489D01*
X59176186Y-36141647D01*
X59147161Y-36205203D01*
X59106862Y-36231922D01*
X59108392Y-36234924D01*
X59099698Y-36239353D01*
X59099696Y-36239354D01*
X58986658Y-36296950D01*
X58986657Y-36296951D01*
X58986652Y-36296954D01*
X58896954Y-36386652D01*
X58896951Y-36386657D01*
X58896950Y-36386658D01*
X58882901Y-36414230D01*
X58839352Y-36499698D01*
X58824500Y-36593475D01*
X58824500Y-37056517D01*
X58827170Y-37073373D01*
X58839354Y-37150304D01*
X58896950Y-37263342D01*
X58896952Y-37263344D01*
X58896954Y-37263347D01*
X58986652Y-37353045D01*
X58986654Y-37353046D01*
X58986658Y-37353050D01*
X59099694Y-37410645D01*
X59099698Y-37410647D01*
X59193475Y-37425499D01*
X59193481Y-37425500D01*
X59806518Y-37425499D01*
X59900304Y-37410646D01*
X60013342Y-37353050D01*
X60103050Y-37263342D01*
X60144424Y-37182141D01*
X60151526Y-37168204D01*
X60199500Y-37117409D01*
X60262010Y-37100500D01*
X60341499Y-37100500D01*
X60408538Y-37120185D01*
X60435211Y-37143296D01*
X60468872Y-37182143D01*
X60589947Y-37259953D01*
X60589950Y-37259954D01*
X60589949Y-37259954D01*
X60728036Y-37300499D01*
X60728038Y-37300500D01*
X60728039Y-37300500D01*
X60871962Y-37300500D01*
X60871962Y-37300499D01*
X61010053Y-37259953D01*
X61131128Y-37182143D01*
X61206287Y-37095403D01*
X61265064Y-37057629D01*
X61334934Y-37057629D01*
X61393711Y-37095402D01*
X61402481Y-37105523D01*
X61441283Y-37150304D01*
X61468872Y-37182143D01*
X61589947Y-37259953D01*
X61589950Y-37259954D01*
X61589949Y-37259954D01*
X61728036Y-37300499D01*
X61728038Y-37300500D01*
X61728039Y-37300500D01*
X61871962Y-37300500D01*
X61871962Y-37300499D01*
X62010053Y-37259953D01*
X62131128Y-37182143D01*
X62164788Y-37143296D01*
X62223567Y-37105523D01*
X62258501Y-37100500D01*
X62606246Y-37100500D01*
X62663871Y-37114703D01*
X62749775Y-37159790D01*
X62914944Y-37200500D01*
X63085056Y-37200500D01*
X63250225Y-37159790D01*
X63353621Y-37105523D01*
X63400849Y-37080736D01*
X63400850Y-37080734D01*
X63400852Y-37080734D01*
X63528183Y-36967929D01*
X63624818Y-36827930D01*
X63685140Y-36668872D01*
X63705645Y-36500000D01*
X63685140Y-36331128D01*
X63624818Y-36172070D01*
X63624816Y-36172068D01*
X63623263Y-36167971D01*
X63617896Y-36098308D01*
X63651044Y-36036801D01*
X63712182Y-36002980D01*
X63739205Y-36000000D01*
X69375500Y-36000000D01*
X69442539Y-36019685D01*
X69488294Y-36072489D01*
X69499500Y-36124000D01*
X69499500Y-47995572D01*
X69499184Y-48004419D01*
X69484869Y-48204557D01*
X69482351Y-48222068D01*
X69440646Y-48413787D01*
X69435662Y-48430763D01*
X69367090Y-48614609D01*
X69359740Y-48630701D01*
X69265711Y-48802904D01*
X69256146Y-48817789D01*
X69138558Y-48974867D01*
X69126972Y-48988237D01*
X68988237Y-49126972D01*
X68974867Y-49138558D01*
X68817789Y-49256146D01*
X68802904Y-49265711D01*
X68630701Y-49359740D01*
X68614609Y-49367090D01*
X68430763Y-49435662D01*
X68413787Y-49440646D01*
X68222068Y-49482351D01*
X68204557Y-49484869D01*
X68023779Y-49497799D01*
X68004417Y-49499184D01*
X67995572Y-49499500D01*
X54324000Y-49499500D01*
X54256961Y-49479815D01*
X54211206Y-49427011D01*
X54200000Y-49375500D01*
X54200000Y-48365755D01*
X54219685Y-48298716D01*
X54272489Y-48252961D01*
X54341647Y-48243017D01*
X54405203Y-48272042D01*
X54411681Y-48278074D01*
X54486652Y-48353045D01*
X54486654Y-48353046D01*
X54486658Y-48353050D01*
X54497951Y-48358804D01*
X54548746Y-48406778D01*
X54565541Y-48474599D01*
X54554449Y-48520799D01*
X54514835Y-48607541D01*
X54514834Y-48607542D01*
X54494353Y-48750000D01*
X54514834Y-48892456D01*
X54552471Y-48974867D01*
X54574623Y-49023373D01*
X54668872Y-49132143D01*
X54789947Y-49209953D01*
X54789950Y-49209954D01*
X54789949Y-49209954D01*
X54928036Y-49250499D01*
X54928038Y-49250500D01*
X54928039Y-49250500D01*
X55071962Y-49250500D01*
X55071962Y-49250499D01*
X55210053Y-49209953D01*
X55331128Y-49132143D01*
X55425377Y-49023373D01*
X55485165Y-48892457D01*
X55505647Y-48750000D01*
X55485165Y-48607543D01*
X55445549Y-48520798D01*
X55435606Y-48451642D01*
X55464631Y-48388086D01*
X55502047Y-48358805D01*
X55513342Y-48353050D01*
X55603050Y-48263342D01*
X55660646Y-48150304D01*
X55660646Y-48150302D01*
X55660647Y-48150301D01*
X55675499Y-48056524D01*
X55675500Y-48056519D01*
X55675499Y-47593482D01*
X55660646Y-47499696D01*
X55603050Y-47386658D01*
X55603046Y-47386654D01*
X55603045Y-47386652D01*
X55513347Y-47296954D01*
X55513344Y-47296952D01*
X55513342Y-47296950D01*
X55436517Y-47257805D01*
X55400301Y-47239352D01*
X55306524Y-47224500D01*
X54693482Y-47224500D01*
X54612519Y-47237323D01*
X54599696Y-47239354D01*
X54486658Y-47296950D01*
X54486657Y-47296951D01*
X54486652Y-47296954D01*
X54411681Y-47371926D01*
X54350358Y-47405411D01*
X54280666Y-47400427D01*
X54224733Y-47358555D01*
X54200316Y-47293091D01*
X54200000Y-47284245D01*
X54200000Y-46715755D01*
X54219685Y-46648716D01*
X54272489Y-46602961D01*
X54341647Y-46593017D01*
X54405203Y-46622042D01*
X54411681Y-46628074D01*
X54486652Y-46703045D01*
X54486654Y-46703046D01*
X54486658Y-46703050D01*
X54599694Y-46760645D01*
X54599698Y-46760647D01*
X54693475Y-46775499D01*
X54693481Y-46775500D01*
X55306518Y-46775499D01*
X55400304Y-46760646D01*
X55513342Y-46703050D01*
X55603050Y-46613342D01*
X55660646Y-46500304D01*
X55660646Y-46500302D01*
X55660647Y-46500301D01*
X55675499Y-46406524D01*
X55675500Y-46406519D01*
X55675499Y-45943482D01*
X55660646Y-45849696D01*
X55603050Y-45736658D01*
X55603046Y-45736654D01*
X55603045Y-45736652D01*
X55513347Y-45646954D01*
X55513344Y-45646952D01*
X55513342Y-45646950D01*
X55483523Y-45631756D01*
X55432729Y-45583783D01*
X55415934Y-45515962D01*
X55427025Y-45469763D01*
X55485165Y-45342457D01*
X55505647Y-45200000D01*
X55485165Y-45057543D01*
X55425377Y-44926627D01*
X55331128Y-44817857D01*
X55210053Y-44740047D01*
X55210051Y-44740046D01*
X55210049Y-44740045D01*
X55210050Y-44740045D01*
X55071963Y-44699500D01*
X55071961Y-44699500D01*
X54928039Y-44699500D01*
X54928036Y-44699500D01*
X54789949Y-44740045D01*
X54668873Y-44817856D01*
X54574623Y-44926626D01*
X54574622Y-44926628D01*
X54514834Y-45057543D01*
X54494353Y-45200000D01*
X54514834Y-45342456D01*
X54572973Y-45469761D01*
X54582917Y-45538920D01*
X54553892Y-45602476D01*
X54516475Y-45631757D01*
X54486659Y-45646949D01*
X54486652Y-45646954D01*
X54411681Y-45721926D01*
X54350358Y-45755411D01*
X54280666Y-45750427D01*
X54224733Y-45708555D01*
X54200316Y-45643091D01*
X54200000Y-45634245D01*
X54200000Y-42600000D01*
X60894353Y-42600000D01*
X60914834Y-42742456D01*
X60941114Y-42800000D01*
X60974623Y-42873373D01*
X61068872Y-42982143D01*
X61189947Y-43059953D01*
X61189950Y-43059954D01*
X61189949Y-43059954D01*
X61328036Y-43100499D01*
X61328038Y-43100500D01*
X61328039Y-43100500D01*
X61471961Y-43100500D01*
X61575860Y-43069993D01*
X61645726Y-43069993D01*
X61704505Y-43107767D01*
X61733530Y-43171322D01*
X61723587Y-43240481D01*
X61709172Y-43264451D01*
X61704538Y-43270490D01*
X61664982Y-43339004D01*
X61664979Y-43339009D01*
X61651326Y-43389962D01*
X61644500Y-43415438D01*
X61644500Y-44021972D01*
X61648448Y-44036706D01*
X61664979Y-44098400D01*
X61664980Y-44098401D01*
X61685539Y-44134011D01*
X61704540Y-44166921D01*
X62021024Y-44483405D01*
X62054509Y-44544728D01*
X62054960Y-44595277D01*
X62044500Y-44647863D01*
X62044500Y-44647865D01*
X62044500Y-44647867D01*
X62044500Y-44740047D01*
X62044501Y-44825499D01*
X62024817Y-44892539D01*
X61972013Y-44938294D01*
X61920501Y-44949500D01*
X61901826Y-44949500D01*
X61834787Y-44929815D01*
X61808113Y-44906703D01*
X61760827Y-44852132D01*
X61731128Y-44817857D01*
X61610053Y-44740047D01*
X61610051Y-44740046D01*
X61610049Y-44740045D01*
X61610050Y-44740045D01*
X61471963Y-44699500D01*
X61471961Y-44699500D01*
X61328039Y-44699500D01*
X61328036Y-44699500D01*
X61189949Y-44740045D01*
X61068873Y-44817856D01*
X60974623Y-44926626D01*
X60974622Y-44926628D01*
X60914834Y-45057543D01*
X60894353Y-45200000D01*
X60914834Y-45342456D01*
X60955954Y-45432495D01*
X60974623Y-45473373D01*
X61068872Y-45582143D01*
X61189947Y-45659953D01*
X61189950Y-45659954D01*
X61189949Y-45659954D01*
X61328036Y-45700499D01*
X61328038Y-45700500D01*
X61328039Y-45700500D01*
X61471962Y-45700500D01*
X61471962Y-45700499D01*
X61610053Y-45659953D01*
X61731128Y-45582143D01*
X61731136Y-45582133D01*
X61732688Y-45580790D01*
X61734572Y-45579929D01*
X61738589Y-45577348D01*
X61738960Y-45577925D01*
X61796243Y-45551763D01*
X61813895Y-45550500D01*
X61920500Y-45550500D01*
X61987539Y-45570185D01*
X62033294Y-45622989D01*
X62044500Y-45674499D01*
X62044500Y-45852129D01*
X62052547Y-45892587D01*
X62060485Y-45932495D01*
X62078704Y-45959761D01*
X62099581Y-46026436D01*
X62087002Y-46083110D01*
X62054911Y-46148753D01*
X62054729Y-46149999D01*
X62054730Y-46150000D01*
X62686000Y-46150000D01*
X62753039Y-46169685D01*
X62798794Y-46222489D01*
X62810000Y-46274000D01*
X62810000Y-46400000D01*
X62936000Y-46400000D01*
X63003039Y-46419685D01*
X63048794Y-46472489D01*
X63060000Y-46524000D01*
X63060000Y-46575500D01*
X63040315Y-46642539D01*
X62987511Y-46688294D01*
X62936000Y-46699500D01*
X62660862Y-46699500D01*
X62593823Y-46679815D01*
X62573181Y-46663181D01*
X62560000Y-46650000D01*
X62054730Y-46650000D01*
X62054911Y-46651246D01*
X62100730Y-46744971D01*
X62112489Y-46813844D01*
X62100730Y-46853890D01*
X62054426Y-46948606D01*
X62054426Y-46948607D01*
X62044500Y-47016739D01*
X62044500Y-47383260D01*
X62054426Y-47451391D01*
X62105803Y-47556485D01*
X62188514Y-47639196D01*
X62188515Y-47639196D01*
X62188517Y-47639198D01*
X62265305Y-47676737D01*
X62316886Y-47723864D01*
X62334801Y-47791398D01*
X62313360Y-47857896D01*
X62304525Y-47868572D01*
X62304747Y-47868754D01*
X62300883Y-47873461D01*
X62224228Y-47988182D01*
X62224221Y-47988195D01*
X62171421Y-48115667D01*
X62171418Y-48115677D01*
X62144500Y-48251004D01*
X62144500Y-48251007D01*
X62144500Y-48388993D01*
X62144500Y-48388995D01*
X62144499Y-48388995D01*
X62171418Y-48524322D01*
X62171421Y-48524332D01*
X62224221Y-48651804D01*
X62224228Y-48651817D01*
X62300885Y-48766541D01*
X62300888Y-48766545D01*
X62398454Y-48864111D01*
X62398458Y-48864114D01*
X62513182Y-48940771D01*
X62513195Y-48940778D01*
X62612628Y-48981964D01*
X62640672Y-48993580D01*
X62640676Y-48993580D01*
X62640677Y-48993581D01*
X62776004Y-49020500D01*
X62776007Y-49020500D01*
X64013995Y-49020500D01*
X64105041Y-49002389D01*
X64149328Y-48993580D01*
X64276811Y-48940775D01*
X64391542Y-48864114D01*
X64489114Y-48766542D01*
X64565775Y-48651811D01*
X64618580Y-48524328D01*
X64633056Y-48451551D01*
X64645500Y-48388995D01*
X66474499Y-48388995D01*
X66501418Y-48524322D01*
X66501421Y-48524332D01*
X66554221Y-48651804D01*
X66554228Y-48651817D01*
X66630885Y-48766541D01*
X66630888Y-48766545D01*
X66728454Y-48864111D01*
X66728458Y-48864114D01*
X66843182Y-48940771D01*
X66843195Y-48940778D01*
X66942628Y-48981964D01*
X66970672Y-48993580D01*
X66970676Y-48993580D01*
X66970677Y-48993581D01*
X67106004Y-49020500D01*
X67106007Y-49020500D01*
X68043995Y-49020500D01*
X68135041Y-49002389D01*
X68179328Y-48993580D01*
X68306811Y-48940775D01*
X68421542Y-48864114D01*
X68519114Y-48766542D01*
X68595775Y-48651811D01*
X68648580Y-48524328D01*
X68663056Y-48451551D01*
X68675500Y-48388995D01*
X68675500Y-48251004D01*
X68648581Y-48115677D01*
X68648580Y-48115676D01*
X68648580Y-48115672D01*
X68602498Y-48004419D01*
X68595778Y-47988195D01*
X68595771Y-47988182D01*
X68519114Y-47873458D01*
X68519111Y-47873454D01*
X68421545Y-47775888D01*
X68421541Y-47775885D01*
X68306817Y-47699228D01*
X68306804Y-47699221D01*
X68179332Y-47646421D01*
X68179322Y-47646418D01*
X68043995Y-47619500D01*
X68043993Y-47619500D01*
X67106007Y-47619500D01*
X67106005Y-47619500D01*
X66970677Y-47646418D01*
X66970667Y-47646421D01*
X66843195Y-47699221D01*
X66843182Y-47699228D01*
X66728458Y-47775885D01*
X66728454Y-47775888D01*
X66630888Y-47873454D01*
X66630885Y-47873458D01*
X66554228Y-47988182D01*
X66554221Y-47988195D01*
X66501421Y-48115667D01*
X66501418Y-48115677D01*
X66474500Y-48251004D01*
X66474500Y-48251007D01*
X66474500Y-48388993D01*
X66474500Y-48388995D01*
X66474499Y-48388995D01*
X64645500Y-48388995D01*
X64645500Y-48251004D01*
X64618581Y-48115677D01*
X64618580Y-48115676D01*
X64618580Y-48115672D01*
X64572498Y-48004419D01*
X64565778Y-47988195D01*
X64565771Y-47988182D01*
X64489114Y-47873458D01*
X64489111Y-47873454D01*
X64391545Y-47775888D01*
X64391541Y-47775885D01*
X64276817Y-47699228D01*
X64276804Y-47699221D01*
X64149332Y-47646421D01*
X64149322Y-47646418D01*
X64070032Y-47630646D01*
X64008121Y-47598261D01*
X63973547Y-47537545D01*
X63977288Y-47467775D01*
X64018154Y-47411103D01*
X64062128Y-47389255D01*
X64097836Y-47379688D01*
X64217665Y-47310505D01*
X64315505Y-47212665D01*
X64384688Y-47092836D01*
X64420500Y-46959183D01*
X64420500Y-46820817D01*
X64384688Y-46687164D01*
X64336074Y-46602961D01*
X64315507Y-46567338D01*
X64315503Y-46567333D01*
X64217666Y-46469496D01*
X64217661Y-46469492D01*
X64097838Y-46400313D01*
X64097837Y-46400312D01*
X64097836Y-46400312D01*
X63964183Y-46364500D01*
X63825817Y-46364500D01*
X63731092Y-46389881D01*
X63661242Y-46388218D01*
X63603380Y-46349055D01*
X63575876Y-46284826D01*
X63574999Y-46270106D01*
X63574999Y-46216782D01*
X63565087Y-46148750D01*
X63541448Y-46100395D01*
X63529690Y-46031521D01*
X63549747Y-45977045D01*
X63579515Y-45932495D01*
X63595500Y-45852133D01*
X63595499Y-45647868D01*
X63579515Y-45567505D01*
X63579513Y-45567502D01*
X63574841Y-45556222D01*
X63576285Y-45555623D01*
X63559563Y-45502211D01*
X63575517Y-45444056D01*
X63574842Y-45443777D01*
X63577070Y-45438396D01*
X63578049Y-45434831D01*
X63579452Y-45432647D01*
X63579516Y-45432493D01*
X63595499Y-45352136D01*
X63595500Y-45352133D01*
X63595499Y-45147868D01*
X63585038Y-45095273D01*
X63591267Y-45025684D01*
X63618974Y-44983406D01*
X63667870Y-44934511D01*
X63935460Y-44666921D01*
X63954460Y-44634012D01*
X63975021Y-44598399D01*
X63995500Y-44521972D01*
X63995500Y-44149500D01*
X64015185Y-44082461D01*
X64067989Y-44036706D01*
X64119500Y-44025500D01*
X65139560Y-44025500D01*
X65139562Y-44025500D01*
X65215989Y-44005021D01*
X65284511Y-43965460D01*
X65340460Y-43909511D01*
X65913151Y-43336818D01*
X65974474Y-43303334D01*
X66000832Y-43300500D01*
X66096962Y-43300500D01*
X66096962Y-43300499D01*
X66235053Y-43259953D01*
X66356128Y-43182143D01*
X66450377Y-43073373D01*
X66510165Y-42942457D01*
X66530647Y-42800000D01*
X66510165Y-42657543D01*
X66450377Y-42526627D01*
X66356128Y-42417857D01*
X66235053Y-42340047D01*
X66235051Y-42340046D01*
X66235049Y-42340045D01*
X66235050Y-42340045D01*
X66096963Y-42299500D01*
X66096961Y-42299500D01*
X65953039Y-42299500D01*
X65953036Y-42299500D01*
X65814949Y-42340045D01*
X65693872Y-42417857D01*
X65693711Y-42418043D01*
X65693504Y-42418175D01*
X65687172Y-42423663D01*
X65686382Y-42422752D01*
X65634932Y-42455816D01*
X65565063Y-42455814D01*
X65513617Y-42422752D01*
X65512828Y-42423663D01*
X65506495Y-42418175D01*
X65506289Y-42418043D01*
X65506128Y-42417857D01*
X65385053Y-42340047D01*
X65385051Y-42340046D01*
X65385049Y-42340045D01*
X65385050Y-42340045D01*
X65246963Y-42299500D01*
X65246961Y-42299500D01*
X65103039Y-42299500D01*
X65103036Y-42299500D01*
X64964949Y-42340045D01*
X64843873Y-42417856D01*
X64843872Y-42417856D01*
X64843872Y-42417857D01*
X64838841Y-42423663D01*
X64749623Y-42526626D01*
X64749622Y-42526628D01*
X64689834Y-42657543D01*
X64669353Y-42800000D01*
X64669353Y-42800002D01*
X64674076Y-42832855D01*
X64664132Y-42902013D01*
X64618376Y-42954816D01*
X64551338Y-42974500D01*
X63831687Y-42974500D01*
X63799593Y-42970275D01*
X63798491Y-42969979D01*
X63798490Y-42969979D01*
X63722063Y-42949500D01*
X63722061Y-42949500D01*
X63719500Y-42949500D01*
X63717417Y-42948888D01*
X63714004Y-42948439D01*
X63714074Y-42947906D01*
X63652461Y-42929815D01*
X63606706Y-42877011D01*
X63595500Y-42825501D01*
X63595499Y-42647870D01*
X63595499Y-42647868D01*
X63579515Y-42567505D01*
X63579513Y-42567502D01*
X63574841Y-42556222D01*
X63576285Y-42555623D01*
X63559563Y-42502211D01*
X63575517Y-42444056D01*
X63574842Y-42443777D01*
X63577070Y-42438396D01*
X63578049Y-42434831D01*
X63579452Y-42432647D01*
X63579516Y-42432493D01*
X63595499Y-42352136D01*
X63595500Y-42352133D01*
X63595499Y-42147868D01*
X63579515Y-42067505D01*
X63549746Y-42022953D01*
X63528869Y-41956278D01*
X63541449Y-41899603D01*
X63565088Y-41851248D01*
X63574999Y-41783220D01*
X63574999Y-41729895D01*
X63594682Y-41662855D01*
X63647486Y-41617100D01*
X63716644Y-41607155D01*
X63731078Y-41610114D01*
X63825817Y-41635500D01*
X63825820Y-41635500D01*
X63964181Y-41635500D01*
X63964183Y-41635500D01*
X64097836Y-41599688D01*
X64217665Y-41530505D01*
X64315505Y-41432665D01*
X64384688Y-41312836D01*
X64420500Y-41179183D01*
X64420500Y-41040817D01*
X64384688Y-40907164D01*
X64322817Y-40799999D01*
X64315507Y-40787338D01*
X64315503Y-40787333D01*
X64217666Y-40689496D01*
X64217661Y-40689492D01*
X64097838Y-40620313D01*
X64097837Y-40620312D01*
X64082017Y-40616073D01*
X64062129Y-40610744D01*
X64002470Y-40574379D01*
X63971941Y-40511532D01*
X63980236Y-40442157D01*
X64024722Y-40388279D01*
X64070033Y-40369353D01*
X64084297Y-40366515D01*
X64149328Y-40353580D01*
X64276811Y-40300775D01*
X64391542Y-40224114D01*
X64489114Y-40126542D01*
X64565775Y-40011811D01*
X64618580Y-39884328D01*
X64645500Y-39748995D01*
X66474499Y-39748995D01*
X66501418Y-39884322D01*
X66501421Y-39884332D01*
X66554221Y-40011804D01*
X66554228Y-40011817D01*
X66630885Y-40126541D01*
X66630888Y-40126545D01*
X66728454Y-40224111D01*
X66728458Y-40224114D01*
X66843182Y-40300771D01*
X66843195Y-40300778D01*
X66938000Y-40340047D01*
X66970672Y-40353580D01*
X66970676Y-40353580D01*
X66970677Y-40353581D01*
X67106004Y-40380500D01*
X67106007Y-40380500D01*
X68043995Y-40380500D01*
X68143021Y-40360802D01*
X68179328Y-40353580D01*
X68306811Y-40300775D01*
X68421542Y-40224114D01*
X68519114Y-40126542D01*
X68595775Y-40011811D01*
X68648580Y-39884328D01*
X68675500Y-39748993D01*
X68675500Y-39611007D01*
X68675500Y-39611004D01*
X68648581Y-39475677D01*
X68648580Y-39475676D01*
X68648580Y-39475672D01*
X68648167Y-39474674D01*
X68595778Y-39348195D01*
X68595771Y-39348182D01*
X68519114Y-39233458D01*
X68519111Y-39233454D01*
X68421545Y-39135888D01*
X68421541Y-39135885D01*
X68306817Y-39059228D01*
X68306804Y-39059221D01*
X68179332Y-39006421D01*
X68179322Y-39006418D01*
X68043995Y-38979500D01*
X68043993Y-38979500D01*
X67106007Y-38979500D01*
X67106005Y-38979500D01*
X66970677Y-39006418D01*
X66970667Y-39006421D01*
X66843195Y-39059221D01*
X66843182Y-39059228D01*
X66728458Y-39135885D01*
X66728454Y-39135888D01*
X66630888Y-39233454D01*
X66630885Y-39233458D01*
X66554228Y-39348182D01*
X66554221Y-39348195D01*
X66501421Y-39475667D01*
X66501418Y-39475677D01*
X66474500Y-39611004D01*
X66474500Y-39611007D01*
X66474500Y-39748993D01*
X66474500Y-39748995D01*
X66474499Y-39748995D01*
X64645500Y-39748995D01*
X64645500Y-39748993D01*
X64645500Y-39611007D01*
X64645500Y-39611004D01*
X64618581Y-39475677D01*
X64618580Y-39475676D01*
X64618580Y-39475672D01*
X64618167Y-39474674D01*
X64565778Y-39348195D01*
X64565771Y-39348182D01*
X64489114Y-39233458D01*
X64489111Y-39233454D01*
X64391545Y-39135888D01*
X64391541Y-39135885D01*
X64276817Y-39059228D01*
X64276804Y-39059221D01*
X64149332Y-39006421D01*
X64149322Y-39006418D01*
X64013995Y-38979500D01*
X64013993Y-38979500D01*
X62776007Y-38979500D01*
X62776005Y-38979500D01*
X62640677Y-39006418D01*
X62640667Y-39006421D01*
X62513195Y-39059221D01*
X62513182Y-39059228D01*
X62398458Y-39135885D01*
X62398454Y-39135888D01*
X62300888Y-39233454D01*
X62300885Y-39233458D01*
X62224228Y-39348182D01*
X62224221Y-39348195D01*
X62171421Y-39475667D01*
X62171418Y-39475677D01*
X62144500Y-39611004D01*
X62144500Y-39611007D01*
X62144500Y-39748993D01*
X62144500Y-39748995D01*
X62144499Y-39748995D01*
X62171418Y-39884322D01*
X62171421Y-39884332D01*
X62224221Y-40011804D01*
X62224228Y-40011817D01*
X62300885Y-40126541D01*
X62304751Y-40131252D01*
X62303117Y-40132592D01*
X62332009Y-40185504D01*
X62327025Y-40255196D01*
X62285153Y-40311129D01*
X62265304Y-40323262D01*
X62188516Y-40360802D01*
X62188515Y-40360802D01*
X62105803Y-40443514D01*
X62054426Y-40548608D01*
X62044500Y-40616739D01*
X62044500Y-40983260D01*
X62054426Y-41051391D01*
X62100730Y-41146108D01*
X62112488Y-41214981D01*
X62100730Y-41255028D01*
X62054911Y-41348752D01*
X62054729Y-41349999D01*
X62054730Y-41350000D01*
X62686000Y-41350000D01*
X62753039Y-41369685D01*
X62798794Y-41422489D01*
X62810000Y-41474000D01*
X62810000Y-41600000D01*
X62936000Y-41600000D01*
X63003039Y-41619685D01*
X63048794Y-41672489D01*
X63060000Y-41724000D01*
X63060000Y-41775500D01*
X63040315Y-41842539D01*
X62987511Y-41888294D01*
X62936000Y-41899500D01*
X62660862Y-41899500D01*
X62593823Y-41879815D01*
X62573181Y-41863181D01*
X62560000Y-41850000D01*
X62054730Y-41850000D01*
X62040151Y-41866857D01*
X62038741Y-41876799D01*
X61993086Y-41929689D01*
X61926083Y-41949500D01*
X61710438Y-41949500D01*
X61634010Y-41969978D01*
X61565489Y-42009540D01*
X61511845Y-42063182D01*
X61450523Y-42096666D01*
X61424166Y-42099500D01*
X61328036Y-42099500D01*
X61189949Y-42140045D01*
X61068873Y-42217856D01*
X60974623Y-42326626D01*
X60974622Y-42326628D01*
X60914834Y-42457543D01*
X60894353Y-42600000D01*
X54200000Y-42600000D01*
X54200000Y-39775735D01*
X55670088Y-39775735D01*
X55690569Y-39918191D01*
X55750357Y-40049106D01*
X55750358Y-40049108D01*
X55812364Y-40120667D01*
X55841388Y-40184221D01*
X55831444Y-40253379D01*
X55812364Y-40283069D01*
X55774625Y-40326622D01*
X55774622Y-40326628D01*
X55714834Y-40457543D01*
X55694353Y-40600000D01*
X55714834Y-40742456D01*
X55736959Y-40790902D01*
X55774623Y-40873373D01*
X55868872Y-40982143D01*
X55989947Y-41059953D01*
X55989950Y-41059954D01*
X55989949Y-41059954D01*
X56128036Y-41100499D01*
X56128038Y-41100500D01*
X56128039Y-41100500D01*
X56271962Y-41100500D01*
X56271962Y-41100499D01*
X56410053Y-41059953D01*
X56531128Y-40982143D01*
X56625377Y-40873373D01*
X56685165Y-40742457D01*
X56702077Y-40624833D01*
X56704662Y-40606853D01*
X56733687Y-40543297D01*
X56792465Y-40505523D01*
X56827400Y-40500500D01*
X56875326Y-40500500D01*
X56975500Y-40500500D01*
X57042539Y-40520185D01*
X57088294Y-40572989D01*
X57099500Y-40624500D01*
X57099500Y-41024166D01*
X57079815Y-41091205D01*
X57063181Y-41111847D01*
X56911847Y-41263181D01*
X56850524Y-41296666D01*
X56824166Y-41299500D01*
X56728036Y-41299500D01*
X56589949Y-41340045D01*
X56468873Y-41417856D01*
X56374623Y-41526626D01*
X56374622Y-41526628D01*
X56314834Y-41657543D01*
X56294353Y-41800000D01*
X56314834Y-41942456D01*
X56369969Y-42063182D01*
X56374623Y-42073373D01*
X56468872Y-42182143D01*
X56589947Y-42259953D01*
X56589950Y-42259954D01*
X56589949Y-42259954D01*
X56697107Y-42291417D01*
X56724633Y-42299500D01*
X56728036Y-42300499D01*
X56728038Y-42300500D01*
X56728039Y-42300500D01*
X56871962Y-42300500D01*
X56871962Y-42300499D01*
X57010053Y-42259953D01*
X57131128Y-42182143D01*
X57225377Y-42073373D01*
X57285165Y-41942457D01*
X57285165Y-41942455D01*
X57287206Y-41937987D01*
X57332961Y-41885183D01*
X57400000Y-41865499D01*
X57467040Y-41885184D01*
X57512794Y-41937987D01*
X57514834Y-41942455D01*
X57514835Y-41942457D01*
X57574623Y-42073373D01*
X57668872Y-42182143D01*
X57789947Y-42259953D01*
X57789950Y-42259954D01*
X57789949Y-42259954D01*
X57897107Y-42291417D01*
X57924633Y-42299500D01*
X57928036Y-42300499D01*
X57928038Y-42300500D01*
X57928039Y-42300500D01*
X58071962Y-42300500D01*
X58071962Y-42300499D01*
X58210050Y-42259954D01*
X58210051Y-42259954D01*
X58210053Y-42259953D01*
X58331128Y-42182143D01*
X58331129Y-42182141D01*
X58332960Y-42180965D01*
X58400000Y-42161280D01*
X58467039Y-42180964D01*
X58467040Y-42180965D01*
X58468870Y-42182141D01*
X58468872Y-42182143D01*
X58524443Y-42217856D01*
X58589948Y-42259954D01*
X58708108Y-42294647D01*
X58724633Y-42299500D01*
X58728036Y-42300499D01*
X58728038Y-42300500D01*
X58728039Y-42300500D01*
X58871962Y-42300500D01*
X58871962Y-42300499D01*
X59010053Y-42259953D01*
X59131128Y-42182143D01*
X59225377Y-42073373D01*
X59285165Y-41942457D01*
X59305647Y-41800000D01*
X59285165Y-41657543D01*
X59225377Y-41526627D01*
X59131128Y-41417857D01*
X59010053Y-41340047D01*
X59010051Y-41340046D01*
X58989562Y-41334030D01*
X58930785Y-41296255D01*
X58901762Y-41232698D01*
X58900500Y-41215054D01*
X58900500Y-40624833D01*
X58920185Y-40557794D01*
X58972989Y-40512039D01*
X59042147Y-40502095D01*
X59105703Y-40531120D01*
X59112181Y-40537152D01*
X59260604Y-40685575D01*
X59294089Y-40746898D01*
X59295661Y-40790902D01*
X59294353Y-40799999D01*
X59314834Y-40942456D01*
X59359755Y-41040817D01*
X59374623Y-41073373D01*
X59468872Y-41182143D01*
X59589947Y-41259953D01*
X59589950Y-41259954D01*
X59589949Y-41259954D01*
X59694230Y-41290573D01*
X59724633Y-41299500D01*
X59728036Y-41300499D01*
X59728038Y-41300500D01*
X59728039Y-41300500D01*
X59871962Y-41300500D01*
X59871962Y-41300499D01*
X59979121Y-41269035D01*
X60010050Y-41259954D01*
X60010050Y-41259953D01*
X60010053Y-41259953D01*
X60131128Y-41182143D01*
X60225377Y-41073373D01*
X60285165Y-40942457D01*
X60305647Y-40800000D01*
X60285165Y-40657543D01*
X60225377Y-40526627D01*
X60131128Y-40417857D01*
X60131125Y-40417855D01*
X60131125Y-40417854D01*
X60110058Y-40404316D01*
X60064302Y-40351513D01*
X60054358Y-40282354D01*
X60083382Y-40218798D01*
X60110058Y-40195684D01*
X60131125Y-40182145D01*
X60131125Y-40182144D01*
X60131128Y-40182143D01*
X60225377Y-40073373D01*
X60285165Y-39942457D01*
X60305647Y-39800000D01*
X60285165Y-39657543D01*
X60225377Y-39526627D01*
X60225375Y-39526625D01*
X60225374Y-39526622D01*
X60186017Y-39481203D01*
X60156991Y-39417648D01*
X60166934Y-39348489D01*
X60186017Y-39318797D01*
X60225374Y-39273377D01*
X60225374Y-39273375D01*
X60225377Y-39273373D01*
X60285165Y-39142457D01*
X60305647Y-39000000D01*
X60285165Y-38857543D01*
X60225377Y-38726627D01*
X60131128Y-38617857D01*
X60010053Y-38540047D01*
X60010051Y-38540046D01*
X60010049Y-38540045D01*
X60010050Y-38540045D01*
X59871963Y-38499500D01*
X59871961Y-38499500D01*
X59728039Y-38499500D01*
X59728036Y-38499500D01*
X59589949Y-38540045D01*
X59468873Y-38617856D01*
X59374623Y-38726626D01*
X59374622Y-38726628D01*
X59340195Y-38802012D01*
X59294440Y-38854816D01*
X59227401Y-38874500D01*
X58998744Y-38874500D01*
X58931705Y-38854815D01*
X58894153Y-38811478D01*
X58892752Y-38812415D01*
X58830601Y-38719399D01*
X58747739Y-38664033D01*
X58747735Y-38664032D01*
X58674677Y-38649500D01*
X58674674Y-38649500D01*
X58525326Y-38649500D01*
X58525324Y-38649500D01*
X58452259Y-38664033D01*
X58446783Y-38666302D01*
X58377314Y-38673769D01*
X58351875Y-38666299D01*
X58347540Y-38664503D01*
X58274627Y-38650000D01*
X58125374Y-38650000D01*
X58052453Y-38664504D01*
X58048112Y-38666303D01*
X57978643Y-38673768D01*
X57953219Y-38666302D01*
X57947743Y-38664034D01*
X57874676Y-38649500D01*
X57874674Y-38649500D01*
X57725326Y-38649500D01*
X57725324Y-38649500D01*
X57652259Y-38664033D01*
X57647452Y-38666025D01*
X57577983Y-38673494D01*
X57552548Y-38666025D01*
X57547740Y-38664033D01*
X57474676Y-38649500D01*
X57474674Y-38649500D01*
X57325326Y-38649500D01*
X57325323Y-38649500D01*
X57252264Y-38664032D01*
X57252260Y-38664033D01*
X57169399Y-38719399D01*
X57114033Y-38802260D01*
X57114032Y-38802264D01*
X57099500Y-38875321D01*
X57099500Y-39375500D01*
X57079815Y-39442539D01*
X57027011Y-39488294D01*
X56975500Y-39499500D01*
X56655261Y-39499500D01*
X56588222Y-39479815D01*
X56561548Y-39456702D01*
X56506864Y-39393593D01*
X56506863Y-39393592D01*
X56385788Y-39315782D01*
X56385786Y-39315781D01*
X56385784Y-39315780D01*
X56385785Y-39315780D01*
X56247698Y-39275235D01*
X56247696Y-39275235D01*
X56103774Y-39275235D01*
X56103771Y-39275235D01*
X55965684Y-39315780D01*
X55844608Y-39393591D01*
X55844607Y-39393591D01*
X55844607Y-39393592D01*
X55832025Y-39408112D01*
X55750358Y-39502361D01*
X55750357Y-39502363D01*
X55690569Y-39633278D01*
X55670088Y-39775735D01*
X54200000Y-39775735D01*
X54200000Y-37381479D01*
X55900001Y-37381479D01*
X55914835Y-37475149D01*
X55914837Y-37475155D01*
X55972356Y-37588041D01*
X55972363Y-37588050D01*
X56061949Y-37677636D01*
X56061958Y-37677643D01*
X56174844Y-37735162D01*
X56174850Y-37735164D01*
X56250000Y-37747065D01*
X56250000Y-37747064D01*
X56750000Y-37747064D01*
X56825149Y-37735164D01*
X56825155Y-37735162D01*
X56938041Y-37677643D01*
X56938050Y-37677636D01*
X57027636Y-37588050D01*
X57027639Y-37588046D01*
X57085166Y-37475144D01*
X57100000Y-37381486D01*
X57100000Y-37350000D01*
X56750000Y-37350000D01*
X56750000Y-37747064D01*
X56250000Y-37747064D01*
X56250000Y-37350000D01*
X55900001Y-37350000D01*
X55900001Y-37381479D01*
X54200000Y-37381479D01*
X54200000Y-36818513D01*
X55900000Y-36818513D01*
X55900000Y-36850000D01*
X56250000Y-36850000D01*
X56750000Y-36850000D01*
X57099999Y-36850000D01*
X57099999Y-36818520D01*
X57085164Y-36724850D01*
X57085162Y-36724844D01*
X57027643Y-36611958D01*
X57027636Y-36611949D01*
X56938050Y-36522363D01*
X56938046Y-36522360D01*
X56825144Y-36464833D01*
X56750000Y-36452932D01*
X56750000Y-36850000D01*
X56250000Y-36850000D01*
X56250000Y-36452932D01*
X56174855Y-36464833D01*
X56061953Y-36522360D01*
X56061949Y-36522363D01*
X55972363Y-36611949D01*
X55972360Y-36611953D01*
X55914833Y-36724855D01*
X55900000Y-36818513D01*
X54200000Y-36818513D01*
X54200000Y-36508125D01*
X54201061Y-36491940D01*
X54206197Y-36452932D01*
X54214906Y-36386775D01*
X54223284Y-36355508D01*
X54229689Y-36340045D01*
X54260740Y-36265079D01*
X54276923Y-36237050D01*
X54336513Y-36159392D01*
X54359392Y-36136513D01*
X54437050Y-36076923D01*
X54465079Y-36060740D01*
X54555509Y-36023283D01*
X54586775Y-36014906D01*
X54671654Y-36003731D01*
X54691941Y-36001061D01*
X54708126Y-36000000D01*
X59053448Y-36000000D01*
X59120487Y-36019685D01*
G37*
G04 #@! TD.AperFunction*
M02*
