G04 #@! TF.GenerationSoftware,KiCad,Pcbnew,8.0.8*
G04 #@! TF.CreationDate,2025-08-23T08:43:18-04:00*
G04 #@! TF.ProjectId,project-hw-usbc-mux-demux,70726f6a-6563-4742-9d68-772d75736263,rev?*
G04 #@! TF.SameCoordinates,Original*
G04 #@! TF.FileFunction,Paste,Top*
G04 #@! TF.FilePolarity,Positive*
%FSLAX46Y46*%
G04 Gerber Fmt 4.6, Leading zero omitted, Abs format (unit mm)*
G04 Created by KiCad (PCBNEW 8.0.8) date 2025-08-23 08:43:18*
%MOMM*%
%LPD*%
G01*
G04 APERTURE LIST*
G04 Aperture macros list*
%AMRoundRect*
0 Rectangle with rounded corners*
0 $1 Rounding radius*
0 $2 $3 $4 $5 $6 $7 $8 $9 X,Y pos of 4 corners*
0 Add a 4 corners polygon primitive as box body*
4,1,4,$2,$3,$4,$5,$6,$7,$8,$9,$2,$3,0*
0 Add four circle primitives for the rounded corners*
1,1,$1+$1,$2,$3*
1,1,$1+$1,$4,$5*
1,1,$1+$1,$6,$7*
1,1,$1+$1,$8,$9*
0 Add four rect primitives between the rounded corners*
20,1,$1+$1,$2,$3,$4,$5,0*
20,1,$1+$1,$4,$5,$6,$7,0*
20,1,$1+$1,$6,$7,$8,$9,0*
20,1,$1+$1,$8,$9,$2,$3,0*%
G04 Aperture macros list end*
%ADD10RoundRect,0.150000X0.415000X-0.150000X0.415000X0.150000X-0.415000X0.150000X-0.415000X-0.150000X0*%
%ADD11RoundRect,0.075000X0.500000X-0.075000X0.500000X0.075000X-0.500000X0.075000X-0.500000X-0.075000X0*%
%ADD12O,2.100000X1.000000*%
%ADD13O,1.800000X1.000000*%
%ADD14RoundRect,0.150000X-0.415000X0.150000X-0.415000X-0.150000X0.415000X-0.150000X0.415000X0.150000X0*%
%ADD15RoundRect,0.075000X-0.500000X0.075000X-0.500000X-0.075000X0.500000X-0.075000X0.500000X0.075000X0*%
%ADD16RoundRect,0.050000X0.375000X0.050000X-0.375000X0.050000X-0.375000X-0.050000X0.375000X-0.050000X0*%
%ADD17RoundRect,0.050000X0.050000X0.275000X-0.050000X0.275000X-0.050000X-0.275000X0.050000X-0.275000X0*%
%ADD18RoundRect,0.150000X-0.375000X-0.150000X0.375000X-0.150000X0.375000X0.150000X-0.375000X0.150000X0*%
%ADD19RoundRect,0.200000X-0.275000X0.200000X-0.275000X-0.200000X0.275000X-0.200000X0.275000X0.200000X0*%
%ADD20RoundRect,0.200000X-0.200000X-0.275000X0.200000X-0.275000X0.200000X0.275000X-0.200000X0.275000X0*%
%ADD21RoundRect,0.200000X0.275000X-0.200000X0.275000X0.200000X-0.275000X0.200000X-0.275000X-0.200000X0*%
%ADD22RoundRect,0.200000X-0.200000X0.250000X-0.200000X-0.250000X0.200000X-0.250000X0.200000X0.250000X0*%
%ADD23RoundRect,0.475000X-0.475000X-2.075000X0.475000X-2.075000X0.475000X2.075000X-0.475000X2.075000X0*%
%ADD24RoundRect,0.150000X0.150000X0.200000X-0.150000X0.200000X-0.150000X-0.200000X0.150000X-0.200000X0*%
%ADD25RoundRect,0.218750X0.256250X-0.218750X0.256250X0.218750X-0.256250X0.218750X-0.256250X-0.218750X0*%
%ADD26RoundRect,0.250000X-1.100000X0.325000X-1.100000X-0.325000X1.100000X-0.325000X1.100000X0.325000X0*%
%ADD27RoundRect,0.250000X-0.325000X-1.100000X0.325000X-1.100000X0.325000X1.100000X-0.325000X1.100000X0*%
%ADD28RoundRect,0.225000X0.250000X-0.225000X0.250000X0.225000X-0.250000X0.225000X-0.250000X-0.225000X0*%
G04 APERTURE END LIST*
D10*
X62810000Y-47200000D03*
X62810000Y-46400000D03*
D11*
X62820000Y-45250000D03*
X62820000Y-44250000D03*
X62820000Y-43750000D03*
X62820000Y-42750000D03*
D10*
X62810000Y-41600000D03*
X62810000Y-40800000D03*
X62810000Y-40800000D03*
X62810000Y-41600000D03*
D11*
X62820000Y-42250000D03*
X62820000Y-43250000D03*
X62820000Y-44750000D03*
X62820000Y-45750000D03*
D10*
X62810000Y-46400000D03*
X62810000Y-47200000D03*
D12*
X63395000Y-48320000D03*
D13*
X67575000Y-48320000D03*
D12*
X63395000Y-39680000D03*
D13*
X67575000Y-39680000D03*
D10*
X62810000Y-29200000D03*
X62810000Y-28400000D03*
D11*
X62820000Y-27250000D03*
X62820000Y-26250000D03*
X62820000Y-25750000D03*
X62820000Y-24750000D03*
D10*
X62810000Y-23600000D03*
X62810000Y-22800000D03*
X62810000Y-22800000D03*
X62810000Y-23600000D03*
D11*
X62820000Y-24250000D03*
X62820000Y-25250000D03*
X62820000Y-26750000D03*
X62820000Y-27750000D03*
D10*
X62810000Y-28400000D03*
X62810000Y-29200000D03*
D12*
X63395000Y-30320000D03*
D13*
X67575000Y-30320000D03*
D12*
X63395000Y-21680000D03*
D13*
X67575000Y-21680000D03*
D14*
X37190000Y-22800000D03*
X37190000Y-23600000D03*
D15*
X37180000Y-24750000D03*
X37180000Y-25750000D03*
X37180000Y-26250000D03*
X37180000Y-27250000D03*
D14*
X37190000Y-28400000D03*
X37190000Y-29200000D03*
X37190000Y-29200000D03*
X37190000Y-28400000D03*
D15*
X37180000Y-27750000D03*
X37180000Y-26750000D03*
X37180000Y-25250000D03*
X37180000Y-24250000D03*
D14*
X37190000Y-23600000D03*
X37190000Y-22800000D03*
D12*
X36605000Y-21680000D03*
D13*
X32425000Y-21680000D03*
D12*
X36605000Y-30320000D03*
D13*
X32425000Y-30320000D03*
D16*
X58725000Y-40200000D03*
X58725000Y-39800000D03*
D17*
X58600000Y-39175000D03*
X58200000Y-39175000D03*
X57800000Y-39175000D03*
X57400000Y-39175000D03*
D16*
X57275000Y-39800000D03*
X57275000Y-40200000D03*
D17*
X57400000Y-40825000D03*
X57800000Y-40825000D03*
X58200000Y-40825000D03*
X58600000Y-40825000D03*
D18*
X35700000Y-42050000D03*
X35700000Y-43000000D03*
X35700000Y-43950000D03*
X38300000Y-43950000D03*
X38300000Y-43000000D03*
X38300000Y-42050000D03*
D19*
X50000000Y-45825000D03*
X50000000Y-44175000D03*
X53500000Y-46175000D03*
X53500000Y-47825000D03*
X55000000Y-46175000D03*
X55000000Y-47825000D03*
X59500000Y-36825000D03*
X59500000Y-35175000D03*
D20*
X53325000Y-33000000D03*
X51675000Y-33000000D03*
D21*
X36000000Y-40325000D03*
X36000000Y-38675000D03*
D19*
X34500000Y-38675000D03*
X34500000Y-40325000D03*
D22*
X56500000Y-37100000D03*
X55550000Y-34900000D03*
X57450000Y-34900000D03*
X52500000Y-37100000D03*
X51550000Y-34900000D03*
X53450000Y-34900000D03*
D23*
X41400000Y-40000000D03*
X45600000Y-40000000D03*
D24*
X53200000Y-31500000D03*
X51800000Y-31500000D03*
D25*
X50000000Y-47212500D03*
X50000000Y-48787500D03*
D26*
X45500000Y-44525000D03*
X45500000Y-47475000D03*
D27*
X33525000Y-46500000D03*
X36475000Y-46500000D03*
D28*
X39000000Y-40275000D03*
X39000000Y-38725000D03*
D26*
X42000000Y-44525000D03*
X42000000Y-47475000D03*
M02*
