G04 #@! TF.GenerationSoftware,KiCad,Pcbnew,8.0.8*
G04 #@! TF.CreationDate,2025-08-23T08:43:18-04:00*
G04 #@! TF.ProjectId,project-hw-usbc-mux-demux,70726f6a-6563-4742-9d68-772d75736263,rev?*
G04 #@! TF.SameCoordinates,Original*
G04 #@! TF.FileFunction,Legend,Bot*
G04 #@! TF.FilePolarity,Positive*
%FSLAX46Y46*%
G04 Gerber Fmt 4.6, Leading zero omitted, Abs format (unit mm)*
G04 Created by KiCad (PCBNEW 8.0.8) date 2025-08-23 08:43:18*
%MOMM*%
%LPD*%
G01*
G04 APERTURE LIST*
%ADD10C,0.100000*%
%ADD11C,0.650000*%
%ADD12O,2.100000X1.000000*%
%ADD13O,1.800000X1.000000*%
%ADD14R,1.700000X1.700000*%
%ADD15O,1.700000X1.700000*%
G04 APERTURE END LIST*
D10*
G36*
X37398429Y-49245000D02*
G01*
X37590771Y-49245000D01*
X37978750Y-48142976D01*
X37780547Y-48142976D01*
X37485258Y-49036905D01*
X37172749Y-48142976D01*
X36974546Y-48142976D01*
X37398429Y-49245000D01*
G37*
G36*
X36412909Y-48166423D02*
G01*
X36744103Y-48166423D01*
X36744103Y-48025739D01*
X36668712Y-48015289D01*
X36594039Y-48001339D01*
X36519052Y-47980622D01*
X36463468Y-47953932D01*
X36413026Y-47897253D01*
X36378093Y-47827158D01*
X36352568Y-47754492D01*
X36349528Y-47744371D01*
X36227163Y-47744371D01*
X36227163Y-49245000D01*
X36412909Y-49245000D01*
X36412909Y-48166423D01*
G37*
G36*
X35404675Y-49033974D02*
G01*
X35404675Y-49245000D01*
X35624127Y-49245000D01*
X35624127Y-49033974D01*
X35404675Y-49033974D01*
G37*
G36*
X34747572Y-47747597D02*
G01*
X34819958Y-47761224D01*
X34887580Y-47788643D01*
X34949651Y-47828635D01*
X34970260Y-47845072D01*
X35023114Y-47899087D01*
X35065788Y-47959794D01*
X35068794Y-47964892D01*
X35102360Y-48035560D01*
X35126789Y-48107831D01*
X35146022Y-48183276D01*
X35149837Y-48201308D01*
X35162637Y-48276870D01*
X35171498Y-48357929D01*
X35176021Y-48433362D01*
X35177529Y-48513004D01*
X35177408Y-48536640D01*
X35174488Y-48627627D01*
X35167676Y-48712924D01*
X35156971Y-48792531D01*
X35142374Y-48866448D01*
X35118653Y-48950842D01*
X35088850Y-49026346D01*
X35052965Y-49092958D01*
X35036943Y-49117048D01*
X34983448Y-49179993D01*
X34921813Y-49228950D01*
X34852037Y-49263919D01*
X34774122Y-49284900D01*
X34688066Y-49291894D01*
X34658696Y-49291126D01*
X34575890Y-49279598D01*
X34501045Y-49254237D01*
X34434159Y-49215043D01*
X34375233Y-49162017D01*
X34324267Y-49095157D01*
X34316536Y-49082666D01*
X34281561Y-49015073D01*
X34252722Y-48938911D01*
X34230020Y-48854180D01*
X34216275Y-48780226D01*
X34206458Y-48700788D01*
X34200567Y-48615866D01*
X34198604Y-48525460D01*
X34198945Y-48508607D01*
X34388381Y-48508607D01*
X34389537Y-48585246D01*
X34394234Y-48673767D01*
X34402546Y-48754203D01*
X34414470Y-48826553D01*
X34433550Y-48902699D01*
X34462386Y-48976821D01*
X34492912Y-49028118D01*
X34549616Y-49085163D01*
X34619419Y-49118329D01*
X34692463Y-49127763D01*
X34777532Y-49112799D01*
X34848182Y-49067907D01*
X34894321Y-49010445D01*
X34931232Y-48933829D01*
X34952860Y-48863797D01*
X34969297Y-48782991D01*
X34980543Y-48691411D01*
X34986599Y-48589057D01*
X34987752Y-48514836D01*
X34987460Y-48477532D01*
X34983070Y-48372726D01*
X34973412Y-48278579D01*
X34958486Y-48195090D01*
X34930391Y-48100350D01*
X34892930Y-48024559D01*
X34846104Y-47967715D01*
X34774402Y-47923306D01*
X34688066Y-47908503D01*
X34651776Y-47910847D01*
X34571294Y-47937219D01*
X34505445Y-47992892D01*
X34463302Y-48058529D01*
X34430524Y-48142919D01*
X34412086Y-48218518D01*
X34398916Y-48304665D01*
X34391014Y-48401362D01*
X34388381Y-48508607D01*
X34198945Y-48508607D01*
X34200516Y-48430875D01*
X34206252Y-48342392D01*
X34215811Y-48260012D01*
X34229195Y-48183734D01*
X34256441Y-48080758D01*
X34292290Y-47991513D01*
X34336743Y-47915997D01*
X34389800Y-47854212D01*
X34451461Y-47806157D01*
X34521726Y-47771832D01*
X34600594Y-47751236D01*
X34688066Y-47744371D01*
X34747572Y-47747597D01*
G37*
G36*
X33713538Y-49033974D02*
G01*
X33713538Y-49245000D01*
X33932990Y-49245000D01*
X33932990Y-49033974D01*
X33713538Y-49033974D01*
G37*
G36*
X33056435Y-47747597D02*
G01*
X33128820Y-47761224D01*
X33196442Y-47788643D01*
X33258513Y-47828635D01*
X33279123Y-47845072D01*
X33331977Y-47899087D01*
X33374651Y-47959794D01*
X33377657Y-47964892D01*
X33411222Y-48035560D01*
X33435651Y-48107831D01*
X33454884Y-48183276D01*
X33458700Y-48201308D01*
X33471500Y-48276870D01*
X33480361Y-48357929D01*
X33484884Y-48433362D01*
X33486392Y-48513004D01*
X33486270Y-48536640D01*
X33483351Y-48627627D01*
X33476538Y-48712924D01*
X33465834Y-48792531D01*
X33451236Y-48866448D01*
X33427516Y-48950842D01*
X33397713Y-49026346D01*
X33361828Y-49092958D01*
X33345805Y-49117048D01*
X33292310Y-49179993D01*
X33230675Y-49228950D01*
X33160900Y-49263919D01*
X33082985Y-49284900D01*
X32996929Y-49291894D01*
X32967558Y-49291126D01*
X32884753Y-49279598D01*
X32809907Y-49254237D01*
X32743021Y-49215043D01*
X32684095Y-49162017D01*
X32633129Y-49095157D01*
X32625398Y-49082666D01*
X32590424Y-49015073D01*
X32561585Y-48938911D01*
X32538882Y-48854180D01*
X32525138Y-48780226D01*
X32515320Y-48700788D01*
X32509430Y-48615866D01*
X32507466Y-48525460D01*
X32507807Y-48508607D01*
X32697243Y-48508607D01*
X32698399Y-48585246D01*
X32703097Y-48673767D01*
X32711408Y-48754203D01*
X32723333Y-48826553D01*
X32742412Y-48902699D01*
X32771249Y-48976821D01*
X32801774Y-49028118D01*
X32858478Y-49085163D01*
X32928282Y-49118329D01*
X33001325Y-49127763D01*
X33086394Y-49112799D01*
X33157045Y-49067907D01*
X33203184Y-49010445D01*
X33240095Y-48933829D01*
X33261722Y-48863797D01*
X33278159Y-48782991D01*
X33289406Y-48691411D01*
X33295462Y-48589057D01*
X33296615Y-48514836D01*
X33296322Y-48477532D01*
X33291932Y-48372726D01*
X33282275Y-48278579D01*
X33267349Y-48195090D01*
X33239253Y-48100350D01*
X33201792Y-48024559D01*
X33154967Y-47967715D01*
X33083264Y-47923306D01*
X32996929Y-47908503D01*
X32960639Y-47910847D01*
X32880157Y-47937219D01*
X32814308Y-47992892D01*
X32772165Y-48058529D01*
X32739386Y-48142919D01*
X32720949Y-48218518D01*
X32707779Y-48304665D01*
X32699877Y-48401362D01*
X32697243Y-48508607D01*
X32507807Y-48508607D01*
X32509378Y-48430875D01*
X32515114Y-48342392D01*
X32524674Y-48260012D01*
X32538058Y-48183734D01*
X32565303Y-48080758D01*
X32601153Y-47991513D01*
X32645606Y-47915997D01*
X32698663Y-47854212D01*
X32760324Y-47806157D01*
X32830588Y-47771832D01*
X32909457Y-47751236D01*
X32996929Y-47744371D01*
X33056435Y-47747597D01*
G37*
%LPC*%
D11*
X63895000Y-46890000D03*
X63895000Y-41110000D03*
D12*
X63395000Y-48320000D03*
D13*
X67575000Y-48320000D03*
D12*
X63395000Y-39680000D03*
D13*
X67575000Y-39680000D03*
D11*
X63895000Y-28890000D03*
X63895000Y-23110000D03*
D12*
X63395000Y-30320000D03*
D13*
X67575000Y-30320000D03*
D12*
X63395000Y-21680000D03*
D13*
X67575000Y-21680000D03*
D11*
X36105000Y-23110000D03*
X36105000Y-28890000D03*
D12*
X36605000Y-21680000D03*
D13*
X32425000Y-21680000D03*
D12*
X36605000Y-30320000D03*
D13*
X32425000Y-30320000D03*
D14*
X53800000Y-22000000D03*
D15*
X51260000Y-22000000D03*
X48720000Y-22000000D03*
X46180000Y-22000000D03*
%LPD*%
M02*
