G04 #@! TF.GenerationSoftware,KiCad,Pcbnew,8.0.8*
G04 #@! TF.CreationDate,2025-08-23T08:43:18-04:00*
G04 #@! TF.ProjectId,project-hw-usbc-mux-demux,70726f6a-6563-4742-9d68-772d75736263,rev?*
G04 #@! TF.SameCoordinates,Original*
G04 #@! TF.FileFunction,Copper,L4,Bot*
G04 #@! TF.FilePolarity,Positive*
%FSLAX46Y46*%
G04 Gerber Fmt 4.6, Leading zero omitted, Abs format (unit mm)*
G04 Created by KiCad (PCBNEW 8.0.8) date 2025-08-23 08:43:18*
%MOMM*%
%LPD*%
G01*
G04 APERTURE LIST*
G04 #@! TA.AperFunction,HeatsinkPad*
%ADD10O,2.100000X1.000000*%
G04 #@! TD*
G04 #@! TA.AperFunction,HeatsinkPad*
%ADD11O,1.800000X1.000000*%
G04 #@! TD*
G04 #@! TA.AperFunction,ComponentPad*
%ADD12R,1.700000X1.700000*%
G04 #@! TD*
G04 #@! TA.AperFunction,ComponentPad*
%ADD13O,1.700000X1.700000*%
G04 #@! TD*
G04 #@! TA.AperFunction,ViaPad*
%ADD14C,0.600000*%
G04 #@! TD*
G04 #@! TA.AperFunction,Conductor*
%ADD15C,0.200000*%
G04 #@! TD*
G04 APERTURE END LIST*
D10*
X63395000Y-48320000D03*
D11*
X67575000Y-48320000D03*
D10*
X63395000Y-39680000D03*
D11*
X67575000Y-39680000D03*
D10*
X63395000Y-30320000D03*
D11*
X67575000Y-30320000D03*
D10*
X63395000Y-21680000D03*
D11*
X67575000Y-21680000D03*
D10*
X36605000Y-21680000D03*
D11*
X32425000Y-21680000D03*
D10*
X36605000Y-30320000D03*
D11*
X32425000Y-30320000D03*
D12*
X53800000Y-22000000D03*
D13*
X51260000Y-22000000D03*
X48720000Y-22000000D03*
X46180000Y-22000000D03*
D14*
X37200000Y-38700000D03*
X34500000Y-37500000D03*
X61800000Y-36800000D03*
X59800000Y-39000000D03*
X52200000Y-45200000D03*
X58800000Y-41800000D03*
X61400000Y-42600000D03*
X59800000Y-39800000D03*
X61400000Y-45200000D03*
X59800000Y-40800000D03*
X53600000Y-45200000D03*
X56175735Y-39775735D03*
X55000000Y-45200000D03*
X56200000Y-40600000D03*
X66025000Y-42800000D03*
X65175000Y-42800000D03*
X38800000Y-26925000D03*
X38800000Y-26075000D03*
X36000000Y-37500000D03*
X49000000Y-38000000D03*
X49000000Y-39000000D03*
X49000000Y-40000000D03*
X49000000Y-41000000D03*
X49000000Y-42000000D03*
X48000000Y-42000000D03*
X48000000Y-41000000D03*
X48000000Y-40000000D03*
X48000000Y-39000000D03*
X48000000Y-38000000D03*
X55000000Y-48750000D03*
X53500000Y-48750000D03*
X51250000Y-49000000D03*
X60800000Y-36800000D03*
X56800000Y-41800000D03*
X58000000Y-41800000D03*
X61500000Y-24250000D03*
X35500000Y-24500000D03*
X61500000Y-27000000D03*
X38573818Y-24675000D03*
X40000000Y-48000000D03*
X40000000Y-47000000D03*
X42500000Y-48750000D03*
X41500000Y-48750000D03*
X46000000Y-48750000D03*
X45000000Y-48750000D03*
X37000000Y-43500000D03*
X37000000Y-42500000D03*
X37750000Y-47000000D03*
X37750000Y-46000000D03*
X38750000Y-45000000D03*
X38000000Y-45000000D03*
D15*
X34500000Y-37500000D02*
X35100000Y-36900000D01*
X40900000Y-36900000D02*
X42000000Y-38000000D01*
X35100000Y-36900000D02*
X40900000Y-36900000D01*
X42000000Y-38000000D02*
X46000000Y-38000000D01*
X46000000Y-38000000D02*
X48000000Y-40000000D01*
X61800000Y-37000000D02*
X61800000Y-36800000D01*
X59800000Y-39000000D02*
X61800000Y-37000000D01*
X60800000Y-36800000D02*
X56800000Y-40800000D01*
X56800000Y-40800000D02*
X56800000Y-41800000D01*
X52800000Y-45800000D02*
X52200000Y-45200000D01*
X55248529Y-45800000D02*
X52800000Y-45800000D01*
X58800000Y-41800000D02*
X58800000Y-42248529D01*
X58800000Y-42248529D02*
X55248529Y-45800000D01*
X61400000Y-41400000D02*
X59800000Y-39800000D01*
X61400000Y-42600000D02*
X61400000Y-41400000D01*
X59800000Y-40800000D02*
X59800000Y-43600000D01*
X59800000Y-43600000D02*
X61400000Y-45200000D01*
X56200000Y-40600000D02*
X55000000Y-41800000D01*
X55000000Y-41800000D02*
X55000000Y-45200000D01*
X53600000Y-42351470D02*
X53600000Y-45200000D01*
X56175735Y-39775735D02*
X53600000Y-42351470D01*
X38999999Y-26274999D02*
X55993199Y-26274999D01*
X65374999Y-42600001D02*
X65175000Y-42800000D01*
X38999999Y-26725001D02*
X55806801Y-26725001D01*
X38800000Y-26925000D02*
X38999999Y-26725001D01*
X55806801Y-26725001D02*
X65374999Y-36293199D01*
X55993199Y-26274999D02*
X65825001Y-36106801D01*
X38800000Y-26075000D02*
X38999999Y-26274999D01*
X65374999Y-36293199D02*
X65374999Y-42600001D01*
X65825001Y-36106801D02*
X65825001Y-42600001D01*
X65825001Y-42600001D02*
X66025000Y-42800000D01*
X38573818Y-24675000D02*
X38898818Y-25000000D01*
X38898818Y-25000000D02*
X59500000Y-25000000D01*
X59500000Y-25000000D02*
X61500000Y-27000000D01*
X35500000Y-24500000D02*
X36000000Y-24000000D01*
X36000000Y-24000000D02*
X61250000Y-24000000D01*
X61250000Y-24000000D02*
X61500000Y-24250000D01*
M02*
