G04 #@! TF.GenerationSoftware,KiCad,Pcbnew,8.0.8*
G04 #@! TF.CreationDate,2025-08-23T08:43:18-04:00*
G04 #@! TF.ProjectId,project-hw-usbc-mux-demux,70726f6a-6563-4742-9d68-772d75736263,rev?*
G04 #@! TF.SameCoordinates,Original*
G04 #@! TF.FileFunction,Soldermask,Top*
G04 #@! TF.FilePolarity,Negative*
%FSLAX46Y46*%
G04 Gerber Fmt 4.6, Leading zero omitted, Abs format (unit mm)*
G04 Created by KiCad (PCBNEW 8.0.8) date 2025-08-23 08:43:18*
%MOMM*%
%LPD*%
G01*
G04 APERTURE LIST*
G04 Aperture macros list*
%AMRoundRect*
0 Rectangle with rounded corners*
0 $1 Rounding radius*
0 $2 $3 $4 $5 $6 $7 $8 $9 X,Y pos of 4 corners*
0 Add a 4 corners polygon primitive as box body*
4,1,4,$2,$3,$4,$5,$6,$7,$8,$9,$2,$3,0*
0 Add four circle primitives for the rounded corners*
1,1,$1+$1,$2,$3*
1,1,$1+$1,$4,$5*
1,1,$1+$1,$6,$7*
1,1,$1+$1,$8,$9*
0 Add four rect primitives between the rounded corners*
20,1,$1+$1,$2,$3,$4,$5,0*
20,1,$1+$1,$4,$5,$6,$7,0*
20,1,$1+$1,$6,$7,$8,$9,0*
20,1,$1+$1,$8,$9,$2,$3,0*%
G04 Aperture macros list end*
%ADD10C,0.000000*%
%ADD11C,0.650000*%
%ADD12RoundRect,0.150000X0.415000X-0.150000X0.415000X0.150000X-0.415000X0.150000X-0.415000X-0.150000X0*%
%ADD13RoundRect,0.075000X0.500000X-0.075000X0.500000X0.075000X-0.500000X0.075000X-0.500000X-0.075000X0*%
%ADD14O,2.100000X1.000000*%
%ADD15O,1.800000X1.000000*%
%ADD16RoundRect,0.150000X-0.415000X0.150000X-0.415000X-0.150000X0.415000X-0.150000X0.415000X0.150000X0*%
%ADD17RoundRect,0.075000X-0.500000X0.075000X-0.500000X-0.075000X0.500000X-0.075000X0.500000X0.075000X0*%
%ADD18C,1.000000*%
%ADD19R,1.700000X1.700000*%
%ADD20O,1.700000X1.700000*%
%ADD21RoundRect,0.050000X0.375000X0.050000X-0.375000X0.050000X-0.375000X-0.050000X0.375000X-0.050000X0*%
%ADD22RoundRect,0.050000X0.050000X0.275000X-0.050000X0.275000X-0.050000X-0.275000X0.050000X-0.275000X0*%
%ADD23RoundRect,0.150000X-0.375000X-0.150000X0.375000X-0.150000X0.375000X0.150000X-0.375000X0.150000X0*%
%ADD24RoundRect,0.200000X-0.275000X0.200000X-0.275000X-0.200000X0.275000X-0.200000X0.275000X0.200000X0*%
%ADD25RoundRect,0.200000X-0.200000X-0.275000X0.200000X-0.275000X0.200000X0.275000X-0.200000X0.275000X0*%
%ADD26RoundRect,0.200000X0.275000X-0.200000X0.275000X0.200000X-0.275000X0.200000X-0.275000X-0.200000X0*%
%ADD27RoundRect,0.200000X-0.200000X0.250000X-0.200000X-0.250000X0.200000X-0.250000X0.200000X0.250000X0*%
%ADD28RoundRect,0.475000X-0.475000X-2.075000X0.475000X-2.075000X0.475000X2.075000X-0.475000X2.075000X0*%
%ADD29RoundRect,0.150000X0.150000X0.200000X-0.150000X0.200000X-0.150000X-0.200000X0.150000X-0.200000X0*%
%ADD30RoundRect,0.218750X0.256250X-0.218750X0.256250X0.218750X-0.256250X0.218750X-0.256250X-0.218750X0*%
%ADD31RoundRect,0.250000X-1.100000X0.325000X-1.100000X-0.325000X1.100000X-0.325000X1.100000X0.325000X0*%
%ADD32RoundRect,0.250000X-0.325000X-1.100000X0.325000X-1.100000X0.325000X1.100000X-0.325000X1.100000X0*%
%ADD33RoundRect,0.225000X0.250000X-0.225000X0.250000X0.225000X-0.250000X0.225000X-0.250000X-0.225000X0*%
G04 APERTURE END LIST*
D10*
G36*
X45622182Y-32373958D02*
G01*
X45648537Y-32421176D01*
X45683400Y-32489306D01*
X45723022Y-32570500D01*
X45763651Y-32656913D01*
X45801538Y-32740697D01*
X45832933Y-32814007D01*
X45835505Y-32820297D01*
X45849110Y-32858871D01*
X45867512Y-32918073D01*
X45888977Y-32991500D01*
X45911769Y-33072754D01*
X45934152Y-33155434D01*
X45954390Y-33233140D01*
X45970749Y-33299471D01*
X45981491Y-33348027D01*
X45984923Y-33371295D01*
X45975364Y-33394292D01*
X45948860Y-33436801D01*
X45908669Y-33494482D01*
X45858052Y-33562992D01*
X45800267Y-33637988D01*
X45738574Y-33715130D01*
X45676233Y-33790075D01*
X45633584Y-33839323D01*
X45599103Y-33875497D01*
X45550861Y-33922312D01*
X45493505Y-33975674D01*
X45431682Y-34031491D01*
X45370039Y-34085670D01*
X45313224Y-34134117D01*
X45265884Y-34172740D01*
X45232665Y-34197446D01*
X45219016Y-34204447D01*
X45204172Y-34196207D01*
X45167042Y-34173384D01*
X45111538Y-34138449D01*
X45041575Y-34093872D01*
X44961065Y-34042123D01*
X44928194Y-34020881D01*
X44824512Y-33954937D01*
X44710563Y-33884404D01*
X44595663Y-33814923D01*
X44489128Y-33752134D01*
X44408692Y-33706337D01*
X44329533Y-33661655D01*
X44258972Y-33620503D01*
X44202015Y-33585903D01*
X44163663Y-33560879D01*
X44149953Y-33550029D01*
X44136282Y-33527725D01*
X44112863Y-33482176D01*
X44082346Y-33418835D01*
X44047383Y-33343156D01*
X44023953Y-33290888D01*
X43950351Y-33129534D01*
X43881685Y-32990040D01*
X43813658Y-32864400D01*
X43741974Y-32744604D01*
X43677449Y-32645116D01*
X43638094Y-32585947D01*
X43606070Y-32537210D01*
X43584831Y-32504204D01*
X43577785Y-32492273D01*
X43591411Y-32493816D01*
X43626528Y-32501781D01*
X43659847Y-32510313D01*
X43763403Y-32531815D01*
X43894665Y-32548513D01*
X44054414Y-32560462D01*
X44243430Y-32567719D01*
X44462492Y-32570340D01*
X44492185Y-32570344D01*
X44621781Y-32569920D01*
X44725234Y-32568752D01*
X44807661Y-32566534D01*
X44874177Y-32562961D01*
X44929897Y-32557729D01*
X44979938Y-32550533D01*
X45029416Y-32541067D01*
X45047077Y-32537265D01*
X45179751Y-32504245D01*
X45289763Y-32467522D01*
X45385712Y-32423725D01*
X45476196Y-32369485D01*
X45477600Y-32368545D01*
X45577834Y-32301331D01*
X45622182Y-32373958D01*
G37*
G36*
X41743978Y-23372604D02*
G01*
X41774166Y-23402186D01*
X41821396Y-23448880D01*
X41883142Y-23510180D01*
X41956881Y-23583583D01*
X42040089Y-23666582D01*
X42112400Y-23738830D01*
X42263677Y-23887774D01*
X42417818Y-24035209D01*
X42571701Y-24178384D01*
X42722207Y-24314550D01*
X42866215Y-24440957D01*
X43000604Y-24554855D01*
X43122254Y-24653496D01*
X43228045Y-24734128D01*
X43295728Y-24781546D01*
X43536375Y-24925210D01*
X43796963Y-25049243D01*
X44079532Y-25154499D01*
X44386122Y-25241830D01*
X44413210Y-25248418D01*
X44586425Y-25293477D01*
X44735218Y-25340383D01*
X44866412Y-25391967D01*
X44986830Y-25451062D01*
X45103296Y-25520499D01*
X45159604Y-25558198D01*
X45228205Y-25610047D01*
X45309556Y-25678429D01*
X45395926Y-25756256D01*
X45479584Y-25836442D01*
X45552802Y-25911899D01*
X45586339Y-25949422D01*
X45627675Y-25996556D01*
X45660838Y-26032373D01*
X45681110Y-26051880D01*
X45685013Y-26053901D01*
X45685907Y-26035447D01*
X45680265Y-25994810D01*
X45669762Y-25939966D01*
X45656073Y-25878895D01*
X45640875Y-25819577D01*
X45625842Y-25769990D01*
X45624705Y-25766704D01*
X45599840Y-25707751D01*
X45569477Y-25651637D01*
X45554107Y-25628909D01*
X45526622Y-25588496D01*
X45519470Y-25567429D01*
X45529782Y-25564106D01*
X45554688Y-25576923D01*
X45591316Y-25604278D01*
X45636797Y-25644569D01*
X45688261Y-25696194D01*
X45702926Y-25711995D01*
X45817401Y-25854525D01*
X45923319Y-26020358D01*
X46016246Y-26201810D01*
X46086850Y-26377072D01*
X46110313Y-26437164D01*
X46134435Y-26487917D01*
X46154716Y-26520084D01*
X46158177Y-26523714D01*
X46184461Y-26539002D01*
X46235122Y-26561401D01*
X46304615Y-26588964D01*
X46387397Y-26619745D01*
X46477924Y-26651794D01*
X46570653Y-26683167D01*
X46660039Y-26711916D01*
X46740538Y-26736094D01*
X46806607Y-26753753D01*
X46825501Y-26758078D01*
X46946216Y-26783960D01*
X47077932Y-26733102D01*
X47209649Y-26682243D01*
X47238776Y-26719614D01*
X47265346Y-26752833D01*
X47302105Y-26797762D01*
X47326630Y-26827323D01*
X47410063Y-26933900D01*
X47470955Y-27029032D01*
X47512149Y-27119514D01*
X47536491Y-27212146D01*
X47546826Y-27313724D01*
X47547671Y-27355521D01*
X47540314Y-27485842D01*
X47519018Y-27618164D01*
X47485911Y-27744711D01*
X47443120Y-27857705D01*
X47392774Y-27949367D01*
X47380563Y-27966332D01*
X47352008Y-28001544D01*
X47311664Y-28048427D01*
X47264400Y-28101659D01*
X47215088Y-28155920D01*
X47168597Y-28205887D01*
X47129798Y-28246239D01*
X47103561Y-28271655D01*
X47095681Y-28277601D01*
X47088747Y-28265530D01*
X47081348Y-28229570D01*
X47074921Y-28177035D01*
X47074066Y-28167433D01*
X47065707Y-28102182D01*
X47052062Y-28030897D01*
X47035130Y-27961066D01*
X47016912Y-27900173D01*
X46999407Y-27855704D01*
X46985428Y-27835592D01*
X46967769Y-27840947D01*
X46932795Y-27862894D01*
X46886649Y-27897364D01*
X46862537Y-27916993D01*
X46807588Y-27961543D01*
X46755670Y-28001286D01*
X46715610Y-28029536D01*
X46706331Y-28035294D01*
X46658368Y-28063141D01*
X46690813Y-27989794D01*
X46719902Y-27888095D01*
X46718274Y-27783097D01*
X46689436Y-27681979D01*
X46669511Y-27635468D01*
X46653743Y-27603337D01*
X46646401Y-27593231D01*
X46632831Y-27603577D01*
X46603847Y-27630753D01*
X46565614Y-27668971D01*
X46564025Y-27670602D01*
X46522918Y-27709269D01*
X46474491Y-27749638D01*
X46425023Y-27787155D01*
X46380792Y-27817267D01*
X46348076Y-27835420D01*
X46333629Y-27837731D01*
X46335704Y-27821492D01*
X46347334Y-27787527D01*
X46352041Y-27775887D01*
X46372837Y-27700021D01*
X46374073Y-27625820D01*
X46356233Y-27562689D01*
X46339785Y-27537599D01*
X46320324Y-27518045D01*
X46297316Y-27504691D01*
X46263585Y-27495459D01*
X46211950Y-27488272D01*
X46148309Y-27482191D01*
X46014524Y-27469527D01*
X45904636Y-27456677D01*
X45811303Y-27442312D01*
X45727181Y-27425106D01*
X45644927Y-27403730D01*
X45557197Y-27376857D01*
X45546397Y-27373345D01*
X45354037Y-27313981D01*
X45186050Y-27269738D01*
X45039797Y-27240004D01*
X44912635Y-27224165D01*
X44898585Y-27223173D01*
X44774620Y-27221374D01*
X44666104Y-27235137D01*
X44560108Y-27266909D01*
X44476554Y-27303041D01*
X44367139Y-27355169D01*
X44431072Y-27366383D01*
X44481762Y-27380134D01*
X44535895Y-27402304D01*
X44585880Y-27428705D01*
X44624124Y-27455147D01*
X44643038Y-27477442D01*
X44643646Y-27483673D01*
X44620814Y-27605280D01*
X44611538Y-27715715D01*
X44617119Y-27820031D01*
X44638855Y-27923283D01*
X44678045Y-28030522D01*
X44735987Y-28146803D01*
X44813980Y-28277179D01*
X44869366Y-28361920D01*
X44923616Y-28444425D01*
X44981168Y-28534321D01*
X45034766Y-28620149D01*
X45073404Y-28684074D01*
X45112369Y-28748408D01*
X45149280Y-28806305D01*
X45179126Y-28850057D01*
X45192925Y-28867906D01*
X45217541Y-28891904D01*
X45241739Y-28898972D01*
X45279136Y-28892144D01*
X45289354Y-28889390D01*
X45343211Y-28870154D01*
X45401660Y-28842992D01*
X45418015Y-28834025D01*
X45484152Y-28795826D01*
X45474124Y-28847113D01*
X45463963Y-28888139D01*
X45447055Y-28945958D01*
X45427525Y-29006646D01*
X45406097Y-29071897D01*
X45395217Y-29114154D01*
X45395014Y-29139899D01*
X45405617Y-29155611D01*
X45427156Y-29167771D01*
X45430767Y-29169430D01*
X45509783Y-29189225D01*
X45590982Y-29178620D01*
X45672244Y-29138180D01*
X45731093Y-29089456D01*
X45797694Y-29024419D01*
X45788587Y-29102087D01*
X45772147Y-29215404D01*
X45751799Y-29303500D01*
X45725999Y-29372326D01*
X45711385Y-29399994D01*
X45639515Y-29492176D01*
X45543002Y-29567318D01*
X45424382Y-29623827D01*
X45301764Y-29657257D01*
X45192108Y-29666424D01*
X45067820Y-29656949D01*
X44937848Y-29630716D01*
X44811137Y-29589611D01*
X44696636Y-29535517D01*
X44681385Y-29526591D01*
X44596333Y-29475356D01*
X44673292Y-29448023D01*
X44735675Y-29419456D01*
X44774071Y-29383087D01*
X44792347Y-29332288D01*
X44794369Y-29260434D01*
X44793140Y-29242654D01*
X44770351Y-29128201D01*
X44721266Y-29006307D01*
X44648499Y-28881422D01*
X44554667Y-28757997D01*
X44442384Y-28640483D01*
X44435709Y-28634266D01*
X44291614Y-28521648D01*
X44132373Y-28436095D01*
X43959364Y-28378131D01*
X43773961Y-28348282D01*
X43675076Y-28344053D01*
X43561351Y-28343508D01*
X43588116Y-28292708D01*
X43609080Y-28228084D01*
X43616784Y-28147369D01*
X43611511Y-28062649D01*
X43593543Y-27986009D01*
X43580238Y-27955158D01*
X43517298Y-27861603D01*
X43433012Y-27780333D01*
X43325852Y-27710637D01*
X43194286Y-27651800D01*
X43036787Y-27603108D01*
X42851824Y-27563849D01*
X42689059Y-27539514D01*
X42618097Y-27529964D01*
X42559299Y-27521067D01*
X42519150Y-27513870D01*
X42504280Y-27509674D01*
X42508621Y-27493495D01*
X42531566Y-27461118D01*
X42568599Y-27417386D01*
X42615202Y-27367142D01*
X42666860Y-27315231D01*
X42719057Y-27266495D01*
X42767275Y-27225778D01*
X42773489Y-27220965D01*
X42883130Y-27142810D01*
X42917499Y-27121135D01*
X46813413Y-27121135D01*
X46826581Y-27132947D01*
X46860009Y-27150644D01*
X46882918Y-27160681D01*
X46948547Y-27196012D01*
X47014634Y-27245435D01*
X47072411Y-27301170D01*
X47113106Y-27355435D01*
X47121623Y-27372476D01*
X47140364Y-27405120D01*
X47155756Y-27407952D01*
X47166727Y-27382337D01*
X47172205Y-27329643D01*
X47172623Y-27307468D01*
X47162628Y-27215978D01*
X47132769Y-27146375D01*
X47084214Y-27100159D01*
X47018131Y-27078828D01*
X46993538Y-27077503D01*
X46943640Y-27080950D01*
X46891737Y-27089678D01*
X46847027Y-27101459D01*
X46818709Y-27114065D01*
X46813413Y-27121135D01*
X42917499Y-27121135D01*
X43001636Y-27068073D01*
X43120947Y-27001282D01*
X43233001Y-26946968D01*
X43324689Y-26911277D01*
X43386747Y-26890491D01*
X43423175Y-26875967D01*
X43438283Y-26864984D01*
X43436383Y-26854820D01*
X43427109Y-26846635D01*
X43367590Y-26809565D01*
X43283252Y-26767758D01*
X43179781Y-26723313D01*
X43062862Y-26678330D01*
X42938181Y-26634907D01*
X42811424Y-26595144D01*
X42688276Y-26561140D01*
X42594055Y-26539044D01*
X42525493Y-26525069D01*
X42469788Y-26514754D01*
X42433009Y-26509152D01*
X42421108Y-26509039D01*
X42433182Y-26525834D01*
X42465887Y-26556101D01*
X42513945Y-26595819D01*
X42572079Y-26640967D01*
X42635013Y-26687521D01*
X42697469Y-26731460D01*
X42754171Y-26768761D01*
X42789481Y-26789815D01*
X42848461Y-26822644D01*
X42669954Y-26909201D01*
X42512065Y-26991322D01*
X42375370Y-27075717D01*
X42250142Y-27169244D01*
X42126652Y-27278763D01*
X42076644Y-27327508D01*
X41902802Y-27521571D01*
X41749017Y-27735783D01*
X41616815Y-27966295D01*
X41507726Y-28209258D01*
X41423277Y-28460824D01*
X41364996Y-28717145D01*
X41334413Y-28974371D01*
X41331820Y-29203200D01*
X41343967Y-29379037D01*
X41364934Y-29558700D01*
X41393067Y-29730098D01*
X41422427Y-29864459D01*
X41459492Y-29986196D01*
X41512898Y-30126004D01*
X41579401Y-30277591D01*
X41655755Y-30434665D01*
X41738715Y-30590932D01*
X41825037Y-30740100D01*
X41911475Y-30875875D01*
X41994783Y-30991965D01*
X42020462Y-31024185D01*
X42081174Y-31097004D01*
X42156577Y-31185843D01*
X42240441Y-31283494D01*
X42326536Y-31382749D01*
X42408631Y-31476400D01*
X42480495Y-31557238D01*
X42498246Y-31576939D01*
X42629063Y-31722196D01*
X42741300Y-31848430D01*
X42837918Y-31959277D01*
X42921876Y-32058373D01*
X42996135Y-32149351D01*
X43063653Y-32235847D01*
X43127390Y-32321497D01*
X43190306Y-32409936D01*
X43255361Y-32504799D01*
X43263544Y-32516923D01*
X43366576Y-32671624D01*
X43452896Y-32805490D01*
X43524834Y-32922483D01*
X43584720Y-33026562D01*
X43634883Y-33121688D01*
X43677654Y-33211819D01*
X43693035Y-33246942D01*
X43718499Y-33308498D01*
X43747483Y-33381878D01*
X43778031Y-33461713D01*
X43808183Y-33542634D01*
X43835982Y-33619270D01*
X43859469Y-33686251D01*
X43876685Y-33738208D01*
X43885673Y-33769770D01*
X43886248Y-33776748D01*
X43870776Y-33772915D01*
X43833087Y-33758444D01*
X43779344Y-33735808D01*
X43733046Y-33715335D01*
X43580577Y-33644044D01*
X43410715Y-33560057D01*
X43229248Y-33466552D01*
X43041966Y-33366711D01*
X42854655Y-33263714D01*
X42673106Y-33160741D01*
X42503106Y-33060973D01*
X42350444Y-32967591D01*
X42226920Y-32887804D01*
X42051526Y-32766800D01*
X41894287Y-32649707D01*
X41750672Y-32532122D01*
X41616146Y-32409645D01*
X41486179Y-32277873D01*
X41356235Y-32132405D01*
X41221784Y-31968840D01*
X41078291Y-31782775D01*
X41049806Y-31744750D01*
X40878598Y-31493140D01*
X40723242Y-31220241D01*
X40586281Y-30932115D01*
X40470258Y-30634823D01*
X40377715Y-30334428D01*
X40311197Y-30036992D01*
X40296765Y-29949701D01*
X40269632Y-29753759D01*
X40251481Y-29581457D01*
X40241950Y-29426602D01*
X40240678Y-29283000D01*
X40247303Y-29144459D01*
X40248732Y-29126420D01*
X40266555Y-28952564D01*
X40291423Y-28770803D01*
X40322031Y-28587814D01*
X40357076Y-28410275D01*
X40395254Y-28244863D01*
X40435261Y-28098257D01*
X40470314Y-27991816D01*
X40506793Y-27900532D01*
X40554831Y-27792435D01*
X40610601Y-27675148D01*
X40670275Y-27556290D01*
X40730023Y-27443485D01*
X40786017Y-27344351D01*
X40834430Y-27266512D01*
X40835327Y-27265177D01*
X40992432Y-27052318D01*
X41174862Y-26840928D01*
X41376927Y-26636398D01*
X41592940Y-26444124D01*
X41817210Y-26269497D01*
X42044048Y-26117910D01*
X42048348Y-26115287D01*
X42113460Y-26075325D01*
X42156219Y-26047139D01*
X42180979Y-26026256D01*
X42192095Y-26008204D01*
X42193919Y-25988509D01*
X42191560Y-25968168D01*
X42170454Y-25915991D01*
X42122452Y-25856567D01*
X42050585Y-25791688D01*
X41957885Y-25723142D01*
X41847383Y-25652721D01*
X41722109Y-25582214D01*
X41585096Y-25513413D01*
X41439374Y-25448106D01*
X41287974Y-25388084D01*
X41133928Y-25335138D01*
X41103973Y-25325831D01*
X41015272Y-25298751D01*
X40954447Y-25279198D01*
X40919599Y-25265175D01*
X40908828Y-25254685D01*
X40920235Y-25245732D01*
X40951920Y-25236319D01*
X41001983Y-25224448D01*
X41006523Y-25223380D01*
X41052409Y-25213644D01*
X41099891Y-25206306D01*
X41154118Y-25201076D01*
X41220241Y-25197666D01*
X41303409Y-25195788D01*
X41408773Y-25195151D01*
X41506708Y-25195319D01*
X41881847Y-25196731D01*
X42314786Y-25284210D01*
X42428199Y-25307461D01*
X42532514Y-25329484D01*
X42623526Y-25349340D01*
X42697026Y-25366091D01*
X42748808Y-25378797D01*
X42774666Y-25386521D01*
X42775893Y-25387104D01*
X42809534Y-25412697D01*
X42855731Y-25457521D01*
X42908767Y-25515444D01*
X42962928Y-25580328D01*
X42996343Y-25623754D01*
X43077266Y-25727232D01*
X43149969Y-25807398D01*
X43219156Y-25869406D01*
X43224051Y-25873247D01*
X43250655Y-25894139D01*
X43265396Y-25909321D01*
X43264983Y-25920910D01*
X43246127Y-25931024D01*
X43205537Y-25941780D01*
X43139923Y-25955294D01*
X43077600Y-25967478D01*
X42999577Y-25984643D01*
X42903284Y-26008683D01*
X42800117Y-26036610D01*
X42701471Y-26065436D01*
X42686831Y-26069944D01*
X42602462Y-26096365D01*
X42545689Y-26114916D01*
X42514161Y-26126688D01*
X42505526Y-26132776D01*
X42517433Y-26134273D01*
X42547528Y-26132271D01*
X42553970Y-26131690D01*
X42595134Y-26128995D01*
X42663240Y-26125815D01*
X42753975Y-26122271D01*
X42863026Y-26118481D01*
X42986079Y-26114566D01*
X43118819Y-26110644D01*
X43256935Y-26106837D01*
X43396113Y-26103262D01*
X43532039Y-26100040D01*
X43660399Y-26097291D01*
X43776880Y-26095134D01*
X43877169Y-26093688D01*
X43945108Y-26093114D01*
X44163939Y-26092151D01*
X44036886Y-26040617D01*
X43916619Y-25985010D01*
X43820439Y-25932296D01*
X44500000Y-25932296D01*
X44509909Y-25948885D01*
X44536786Y-25983169D01*
X44576356Y-26029908D01*
X44617520Y-26076337D01*
X44676473Y-26144909D01*
X44737226Y-26221123D01*
X44790465Y-26293078D01*
X44812409Y-26325353D01*
X44881127Y-26430359D01*
X44936791Y-26511872D01*
X44983203Y-26572730D01*
X45024164Y-26615770D01*
X45063475Y-26643826D01*
X45104937Y-26659738D01*
X45152352Y-26666340D01*
X45209521Y-26666469D01*
X45265908Y-26663759D01*
X45346184Y-26660227D01*
X45443252Y-26657303D01*
X45542647Y-26655371D01*
X45601970Y-26654829D01*
X45789539Y-26654112D01*
X45670101Y-26540238D01*
X45583958Y-26464954D01*
X45477044Y-26382226D01*
X45357096Y-26297434D01*
X45231854Y-26215960D01*
X45109055Y-26143184D01*
X45062708Y-26117902D01*
X44995102Y-26084778D01*
X44917288Y-26051019D01*
X44834186Y-26018249D01*
X44750716Y-25988091D01*
X44671800Y-25962168D01*
X44602359Y-25942103D01*
X44547313Y-25929519D01*
X44511582Y-25926039D01*
X44500000Y-25932296D01*
X43820439Y-25932296D01*
X43780233Y-25910260D01*
X43632958Y-25820060D01*
X43480025Y-25718104D01*
X43326664Y-25608083D01*
X43178106Y-25493693D01*
X43039582Y-25378624D01*
X42916322Y-25266570D01*
X42856839Y-25207469D01*
X42755517Y-25100640D01*
X42651039Y-24986392D01*
X42547335Y-24869332D01*
X42448337Y-24754069D01*
X42357975Y-24645210D01*
X42280181Y-24547364D01*
X42218886Y-24465137D01*
X42199180Y-24436625D01*
X42063957Y-24210911D01*
X41943382Y-23959363D01*
X41836947Y-23680901D01*
X41820283Y-23630995D01*
X41792396Y-23545653D01*
X41768218Y-23471382D01*
X41749296Y-23412950D01*
X41737174Y-23375127D01*
X41733354Y-23362639D01*
X41743978Y-23372604D01*
G37*
G36*
X45116207Y-27879662D02*
G01*
X45165170Y-27893587D01*
X45231677Y-27914395D01*
X45309834Y-27940124D01*
X45393747Y-27968813D01*
X45477522Y-27998498D01*
X45555263Y-28027216D01*
X45594154Y-28042219D01*
X45718488Y-28093295D01*
X45839437Y-28147819D01*
X45964033Y-28209279D01*
X46099304Y-28281162D01*
X46252282Y-28366954D01*
X46274093Y-28379458D01*
X46392353Y-28446377D01*
X46490566Y-28499215D01*
X46574981Y-28540796D01*
X46651847Y-28573944D01*
X46727413Y-28601482D01*
X46807928Y-28626233D01*
X46840166Y-28635235D01*
X46912362Y-28653606D01*
X46976057Y-28665845D01*
X47041517Y-28673152D01*
X47119012Y-28676725D01*
X47204123Y-28677728D01*
X47269330Y-28677939D01*
X47322441Y-28677300D01*
X47368312Y-28674607D01*
X47411800Y-28668658D01*
X47457762Y-28658250D01*
X47511054Y-28642178D01*
X47576532Y-28619239D01*
X47659053Y-28588231D01*
X47763474Y-28547949D01*
X47826620Y-28523488D01*
X47937347Y-28483781D01*
X48033525Y-28457797D01*
X48126947Y-28443624D01*
X48229405Y-28439348D01*
X48329539Y-28441936D01*
X48466384Y-28454612D01*
X48594883Y-28481352D01*
X48724606Y-28524844D01*
X48865119Y-28587776D01*
X48886218Y-28598302D01*
X48954755Y-28636769D01*
X49029692Y-28685328D01*
X49106507Y-28740276D01*
X49180673Y-28797913D01*
X49247667Y-28854537D01*
X49302962Y-28906447D01*
X49342035Y-28949941D01*
X49360360Y-28981318D01*
X49361170Y-28986823D01*
X49358406Y-29000914D01*
X49345771Y-29003290D01*
X49316752Y-28993104D01*
X49279108Y-28976151D01*
X49184550Y-28939457D01*
X49086711Y-28917376D01*
X48976535Y-28908486D01*
X48860985Y-28910505D01*
X48719480Y-28925420D01*
X48603960Y-28955014D01*
X48512480Y-28999929D01*
X48459953Y-29042566D01*
X48411425Y-29103968D01*
X48393192Y-29162774D01*
X48405318Y-29221849D01*
X48447868Y-29284060D01*
X48465813Y-29303002D01*
X48539178Y-29361394D01*
X48638096Y-29414754D01*
X48764253Y-29463809D01*
X48919335Y-29509289D01*
X48975338Y-29523204D01*
X49153049Y-29570513D01*
X49304643Y-29622031D01*
X49435218Y-29680290D01*
X49549872Y-29747821D01*
X49653706Y-29827157D01*
X49729112Y-29897501D01*
X49838773Y-30019430D01*
X49924310Y-30142781D01*
X49989847Y-30275368D01*
X50039506Y-30425007D01*
X50065051Y-30534271D01*
X50076776Y-30605550D01*
X50085969Y-30688194D01*
X50092397Y-30775502D01*
X50095828Y-30860770D01*
X50096028Y-30937295D01*
X50092765Y-30998377D01*
X50085806Y-31037312D01*
X50082746Y-31044023D01*
X50071273Y-31040992D01*
X50052361Y-31008943D01*
X50026665Y-30949054D01*
X50019445Y-30930363D01*
X49953181Y-30793702D01*
X49864189Y-30667411D01*
X49757070Y-30555539D01*
X49636421Y-30462135D01*
X49506840Y-30391245D01*
X49372927Y-30346920D01*
X49351881Y-30342651D01*
X49247415Y-30332099D01*
X49162489Y-30343539D01*
X49093773Y-30377649D01*
X49067229Y-30400599D01*
X49038054Y-30431743D01*
X49022693Y-30458228D01*
X49017624Y-30491403D01*
X49019326Y-30542616D01*
X49019969Y-30552892D01*
X49030823Y-30623699D01*
X49055725Y-30695714D01*
X49096815Y-30772270D01*
X49156227Y-30856703D01*
X49236100Y-30952347D01*
X49338569Y-31062537D01*
X49362055Y-31086708D01*
X49433080Y-31160843D01*
X49502727Y-31236185D01*
X49565360Y-31306447D01*
X49615341Y-31365343D01*
X49639598Y-31396195D01*
X49708662Y-31500358D01*
X49775852Y-31621632D01*
X49835299Y-31748187D01*
X49881136Y-31868191D01*
X49893123Y-31907323D01*
X49915238Y-32012457D01*
X49929745Y-32138393D01*
X49936290Y-32275525D01*
X49934517Y-32414246D01*
X49924070Y-32544951D01*
X49918263Y-32587262D01*
X49904910Y-32662814D01*
X49888290Y-32741296D01*
X49870015Y-32816715D01*
X49851695Y-32883077D01*
X49834943Y-32934386D01*
X49821370Y-32964650D01*
X49815304Y-32970216D01*
X49808287Y-32955943D01*
X49797673Y-32917637D01*
X49785213Y-32862064D01*
X49778332Y-32827252D01*
X49747795Y-32699996D01*
X49704103Y-32577549D01*
X49644719Y-32455228D01*
X49567105Y-32328351D01*
X49468723Y-32192237D01*
X49363136Y-32061316D01*
X49216519Y-31902610D01*
X49058497Y-31764359D01*
X48883080Y-31642000D01*
X48684282Y-31530973D01*
X48635205Y-31506841D01*
X48522252Y-31456251D01*
X48431712Y-31424730D01*
X48361152Y-31412369D01*
X48308142Y-31419261D01*
X48270248Y-31445501D01*
X48245039Y-31491180D01*
X48236262Y-31522089D01*
X48231770Y-31607565D01*
X48251967Y-31703397D01*
X48294101Y-31804963D01*
X48355418Y-31907647D01*
X48433166Y-32006828D01*
X48524592Y-32097888D01*
X48625579Y-32175307D01*
X48678632Y-32210869D01*
X48719741Y-32239330D01*
X48743422Y-32256844D01*
X48746992Y-32260491D01*
X48731124Y-32259934D01*
X48692945Y-32255767D01*
X48646321Y-32249654D01*
X48486421Y-32214011D01*
X48320081Y-32151936D01*
X48152641Y-32065955D01*
X47989443Y-31958591D01*
X47924273Y-31908393D01*
X47844482Y-31831184D01*
X47761998Y-31727531D01*
X47679399Y-31601802D01*
X47599268Y-31458367D01*
X47524183Y-31301594D01*
X47456726Y-31135852D01*
X47438950Y-31086708D01*
X47383383Y-30936634D01*
X47331672Y-30815238D01*
X47282235Y-30720413D01*
X47233486Y-30650054D01*
X47183843Y-30602053D01*
X47131721Y-30574305D01*
X47075537Y-30564703D01*
X47047307Y-30565856D01*
X46993787Y-30584911D01*
X46955538Y-30627726D01*
X46932406Y-30690871D01*
X46924239Y-30770913D01*
X46930880Y-30864424D01*
X46952176Y-30967972D01*
X46987974Y-31078126D01*
X47038118Y-31191456D01*
X47078758Y-31265921D01*
X47103956Y-31309994D01*
X47121084Y-31342514D01*
X47125970Y-31354604D01*
X47113998Y-31353032D01*
X47081656Y-31336901D01*
X47034307Y-31309403D01*
X46977311Y-31273733D01*
X46916029Y-31233085D01*
X46880385Y-31208309D01*
X46765970Y-31115765D01*
X46671861Y-31012712D01*
X46593946Y-30893376D01*
X46528113Y-30751978D01*
X46498773Y-30672166D01*
X46448111Y-30524000D01*
X46437278Y-30055077D01*
X46433982Y-29919064D01*
X46430820Y-29809769D01*
X46427416Y-29722653D01*
X46423396Y-29653177D01*
X46418388Y-29596802D01*
X46412017Y-29548989D01*
X46403909Y-29505198D01*
X46393691Y-29460890D01*
X46385789Y-29429847D01*
X46339418Y-29286334D01*
X46304752Y-29205415D01*
X46899714Y-29205415D01*
X46906468Y-29219587D01*
X46929869Y-29254896D01*
X46967295Y-29307864D01*
X47016126Y-29375011D01*
X47073741Y-29452856D01*
X47137518Y-29537920D01*
X47204836Y-29626723D01*
X47273075Y-29715785D01*
X47339613Y-29801626D01*
X47401829Y-29880766D01*
X47457103Y-29949726D01*
X47494900Y-29995628D01*
X47660489Y-30176271D01*
X47837953Y-30338322D01*
X48023002Y-30478440D01*
X48211343Y-30593283D01*
X48345170Y-30657841D01*
X48405750Y-30683282D01*
X48443157Y-30697405D01*
X48462710Y-30701763D01*
X48469727Y-30697904D01*
X48470216Y-30694287D01*
X48464297Y-30656633D01*
X48448554Y-30599396D01*
X48426006Y-30531495D01*
X48399672Y-30461848D01*
X48372571Y-30399375D01*
X48365405Y-30384677D01*
X48253544Y-30188251D01*
X48125548Y-30013766D01*
X47977685Y-29857212D01*
X47806224Y-29714579D01*
X47633358Y-29597702D01*
X47581807Y-29566915D01*
X47514419Y-29528298D01*
X47435466Y-29484136D01*
X47349220Y-29436712D01*
X47259952Y-29388310D01*
X47171933Y-29341214D01*
X47089434Y-29297708D01*
X47016728Y-29260075D01*
X46958084Y-29230601D01*
X46917776Y-29211568D01*
X46900073Y-29205262D01*
X46899714Y-29205415D01*
X46304752Y-29205415D01*
X46274999Y-29135963D01*
X46198449Y-28990998D01*
X46115691Y-28863704D01*
X46106627Y-28851525D01*
X46033807Y-28762312D01*
X45941801Y-28662410D01*
X45829371Y-28550657D01*
X45695284Y-28425889D01*
X45538302Y-28286942D01*
X45357190Y-28132652D01*
X45237082Y-28032772D01*
X45164203Y-27971507D01*
X45114686Y-27926957D01*
X45086774Y-27897226D01*
X45078713Y-27880416D01*
X45088748Y-27874630D01*
X45090683Y-27874585D01*
X45116207Y-27879662D01*
G37*
G36*
X44107335Y-30993544D02*
G01*
X44153008Y-31016952D01*
X44215140Y-31052480D01*
X44289118Y-31097275D01*
X44370328Y-31148485D01*
X44454161Y-31203260D01*
X44536002Y-31258747D01*
X44609416Y-31310765D01*
X44864842Y-31510980D01*
X45114796Y-31734973D01*
X45251662Y-31870545D01*
X45325907Y-31947136D01*
X45380000Y-32004887D01*
X45415562Y-32047392D01*
X45434216Y-32078242D01*
X45437584Y-32101029D01*
X45427289Y-32119346D01*
X45404952Y-32136784D01*
X45379105Y-32152756D01*
X45228278Y-32227740D01*
X45054044Y-32284445D01*
X44855266Y-32323224D01*
X44813026Y-32328791D01*
X44747200Y-32334335D01*
X44656625Y-32338424D01*
X44547776Y-32341057D01*
X44427132Y-32342232D01*
X44301170Y-32341948D01*
X44176367Y-32340204D01*
X44059201Y-32336997D01*
X43956150Y-32332326D01*
X43906031Y-32328995D01*
X43793728Y-32318671D01*
X43685938Y-32305687D01*
X43589829Y-32291098D01*
X43512571Y-32275959D01*
X43472296Y-32265199D01*
X43429479Y-32239939D01*
X43374618Y-32187640D01*
X43323975Y-32128856D01*
X43287066Y-32085450D01*
X43232426Y-32023838D01*
X43164002Y-31948341D01*
X43085741Y-31863277D01*
X43001588Y-31772965D01*
X42915492Y-31681726D01*
X42913648Y-31679786D01*
X42808660Y-31568600D01*
X42724378Y-31477635D01*
X42659312Y-31405100D01*
X42611972Y-31349205D01*
X42580867Y-31308158D01*
X42564505Y-31280169D01*
X42561397Y-31263446D01*
X42563699Y-31259338D01*
X42581294Y-31257856D01*
X42622966Y-31259611D01*
X42681742Y-31264207D01*
X42726543Y-31268606D01*
X42853784Y-31276576D01*
X42999642Y-31276698D01*
X43152594Y-31269438D01*
X43301122Y-31255261D01*
X43395710Y-31241570D01*
X43521118Y-31215786D01*
X43647339Y-31181756D01*
X43767590Y-31141889D01*
X43875088Y-31098590D01*
X43963048Y-31054268D01*
X44009693Y-31023672D01*
X44047194Y-30999045D01*
X44077482Y-30985825D01*
X44082732Y-30985108D01*
X44107335Y-30993544D01*
G37*
G36*
X41739367Y-29883271D02*
G01*
X41778537Y-29896301D01*
X41834740Y-29917360D01*
X41902106Y-29944349D01*
X41902247Y-29944407D01*
X42110334Y-30020487D01*
X42313088Y-30075611D01*
X42506637Y-30109093D01*
X42687112Y-30120243D01*
X42836056Y-30110492D01*
X42982467Y-30090391D01*
X43127726Y-30238335D01*
X43221681Y-30329759D01*
X43319148Y-30415271D01*
X43426439Y-30499874D01*
X43549863Y-30588569D01*
X43680408Y-30676323D01*
X43759022Y-30728334D01*
X43813756Y-30766657D01*
X43846991Y-30794565D01*
X43861106Y-30815331D01*
X43858483Y-30832228D01*
X43841501Y-30848527D01*
X43817303Y-30864516D01*
X43746896Y-30900363D01*
X43652289Y-30935969D01*
X43540471Y-30968970D01*
X43437312Y-30993162D01*
X43377110Y-31002313D01*
X43293394Y-31010468D01*
X43193903Y-31017294D01*
X43086377Y-31022456D01*
X42978557Y-31025621D01*
X42878182Y-31026455D01*
X42792992Y-31024624D01*
X42757170Y-31022500D01*
X42661073Y-31013310D01*
X42557846Y-31000770D01*
X42459389Y-30986492D01*
X42377605Y-30972090D01*
X42362956Y-30969049D01*
X42323502Y-30959275D01*
X42294096Y-30946310D01*
X42267881Y-30924443D01*
X42238000Y-30887962D01*
X42197846Y-30831512D01*
X42011477Y-30537915D01*
X41865345Y-30258521D01*
X41824392Y-30168792D01*
X41787950Y-30083451D01*
X41757799Y-30007229D01*
X41735719Y-29944858D01*
X41723490Y-29901072D01*
X41722892Y-29880600D01*
X41723099Y-29880369D01*
X41739367Y-29883271D01*
G37*
G36*
X40075625Y-28569618D02*
G01*
X40079081Y-28587710D01*
X40074425Y-28625526D01*
X40068530Y-28651791D01*
X40051112Y-28734792D01*
X40034676Y-28841756D01*
X40019941Y-28965388D01*
X40007631Y-29098391D01*
X39998466Y-29233467D01*
X39993169Y-29363322D01*
X39992200Y-29423455D01*
X39990523Y-29682787D01*
X39924763Y-29709988D01*
X39846382Y-29758481D01*
X39778704Y-29832517D01*
X39726098Y-29927023D01*
X39716271Y-29951994D01*
X39697722Y-30000651D01*
X39683090Y-30034986D01*
X39675814Y-30047262D01*
X39673845Y-30032521D01*
X39672169Y-29991856D01*
X39670913Y-29930606D01*
X39670204Y-29854108D01*
X39670093Y-29807010D01*
X39680165Y-29557325D01*
X39710940Y-29327799D01*
X39763252Y-29114450D01*
X39837938Y-28913299D01*
X39874011Y-28835877D01*
X39908374Y-28772452D01*
X39947658Y-28709622D01*
X39987893Y-28652629D01*
X40025108Y-28606718D01*
X40055332Y-28577134D01*
X40074594Y-28569120D01*
X40075625Y-28569618D01*
G37*
G36*
X41731158Y-28452167D02*
G01*
X41754048Y-28477217D01*
X41765737Y-28494764D01*
X41818963Y-28574283D01*
X41875454Y-28639487D01*
X41943697Y-28698792D01*
X42032184Y-28760618D01*
X42037009Y-28763744D01*
X42174190Y-28847947D01*
X42294971Y-28912906D01*
X42397013Y-28957407D01*
X42433017Y-28969494D01*
X42476607Y-28985328D01*
X42506936Y-29001411D01*
X42512454Y-29006438D01*
X42520697Y-29029171D01*
X42531021Y-29074137D01*
X42541477Y-29132570D01*
X42543677Y-29146871D01*
X42562162Y-29239931D01*
X42591016Y-29348439D01*
X42627147Y-29463263D01*
X42667465Y-29575270D01*
X42708877Y-29675327D01*
X42748292Y-29754302D01*
X42750722Y-29758508D01*
X42778623Y-29809729D01*
X42797372Y-29851019D01*
X42803643Y-29874855D01*
X42803067Y-29876933D01*
X42782769Y-29884486D01*
X42737965Y-29888169D01*
X42675164Y-29888040D01*
X42600873Y-29884158D01*
X42521601Y-29876580D01*
X42502713Y-29874239D01*
X42381045Y-29854010D01*
X42255998Y-29825271D01*
X42131799Y-29789729D01*
X42012677Y-29749090D01*
X41902862Y-29705062D01*
X41806581Y-29659353D01*
X41728064Y-29613668D01*
X41671539Y-29569716D01*
X41641235Y-29529203D01*
X41639999Y-29525958D01*
X41629575Y-29478679D01*
X41621354Y-29407333D01*
X41615530Y-29319051D01*
X41612303Y-29220962D01*
X41611869Y-29120199D01*
X41614425Y-29023891D01*
X41620169Y-28939169D01*
X41623045Y-28912961D01*
X41635080Y-28825771D01*
X41649551Y-28735765D01*
X41665291Y-28648766D01*
X41681133Y-28570599D01*
X41695911Y-28507087D01*
X41708459Y-28464054D01*
X41716106Y-28448289D01*
X41731158Y-28452167D01*
G37*
G36*
X42201827Y-27680351D02*
G01*
X42204695Y-27682536D01*
X42265729Y-27722239D01*
X42350789Y-27762183D01*
X42452766Y-27799780D01*
X42564552Y-27832439D01*
X42679039Y-27857570D01*
X42690739Y-27859634D01*
X42743310Y-27869660D01*
X42781109Y-27878734D01*
X42796225Y-27884946D01*
X42796247Y-27885096D01*
X42788115Y-27900970D01*
X42767200Y-27934019D01*
X42748265Y-27962138D01*
X42703967Y-28037785D01*
X42659042Y-28134365D01*
X42617743Y-28241931D01*
X42588180Y-28336331D01*
X42576525Y-28384925D01*
X42562867Y-28451728D01*
X42548651Y-28528352D01*
X42535320Y-28606410D01*
X42524317Y-28677512D01*
X42517086Y-28733270D01*
X42514985Y-28761631D01*
X42513011Y-28774396D01*
X42502978Y-28778500D01*
X42478483Y-28773275D01*
X42433122Y-28758050D01*
X42413293Y-28751007D01*
X42249876Y-28682133D01*
X42106839Y-28600068D01*
X41988050Y-28507250D01*
X41928271Y-28445368D01*
X41887799Y-28394871D01*
X41865375Y-28356659D01*
X41856402Y-28321465D01*
X41855548Y-28298792D01*
X41865370Y-28232496D01*
X41891091Y-28148598D01*
X41929372Y-28054139D01*
X41976878Y-27956160D01*
X42030271Y-27861702D01*
X42086215Y-27777806D01*
X42125983Y-27728141D01*
X42161103Y-27691500D01*
X42184321Y-27676765D01*
X42201827Y-27680351D01*
G37*
G36*
X40725368Y-27041599D02*
G01*
X40693465Y-27086713D01*
X40662924Y-27124308D01*
X40614444Y-27187355D01*
X40557968Y-27275262D01*
X40495982Y-27383436D01*
X40430972Y-27507287D01*
X40365425Y-27642223D01*
X40301826Y-27783650D01*
X40286356Y-27819877D01*
X40251193Y-27901936D01*
X40224306Y-27959412D01*
X40202200Y-27996684D01*
X40181379Y-28018130D01*
X40158350Y-28028128D01*
X40129618Y-28031057D01*
X40117680Y-28031222D01*
X40036013Y-28042223D01*
X39939136Y-28072272D01*
X39833666Y-28118036D01*
X39726220Y-28176184D01*
X39623415Y-28243386D01*
X39531868Y-28316308D01*
X39508501Y-28337925D01*
X39463270Y-28379738D01*
X39435723Y-28400493D01*
X39422513Y-28402262D01*
X39420000Y-28392699D01*
X39427960Y-28336918D01*
X39450016Y-28261014D01*
X39483432Y-28171210D01*
X39525475Y-28073727D01*
X39573408Y-27974787D01*
X39624498Y-27880611D01*
X39676009Y-27797421D01*
X39691550Y-27774956D01*
X39784232Y-27660941D01*
X39900819Y-27542579D01*
X40035264Y-27424474D01*
X40181519Y-27311230D01*
X40333535Y-27207450D01*
X40485267Y-27117739D01*
X40630665Y-27046700D01*
X40668776Y-27031034D01*
X40753060Y-26997966D01*
X40725368Y-27041599D01*
G37*
G36*
X41709908Y-25968359D02*
G01*
X41850585Y-25968902D01*
X41795877Y-26016001D01*
X41761160Y-26043548D01*
X41707902Y-26083034D01*
X41643557Y-26129034D01*
X41580224Y-26172957D01*
X41457932Y-26259079D01*
X41352069Y-26340281D01*
X41251910Y-26425371D01*
X41146730Y-26523157D01*
X41107786Y-26560994D01*
X41055907Y-26610764D01*
X41011660Y-26651216D01*
X40979998Y-26677949D01*
X40966273Y-26686647D01*
X40945277Y-26681300D01*
X40905608Y-26667566D01*
X40874027Y-26655529D01*
X40773663Y-26626578D01*
X40651378Y-26608664D01*
X40514742Y-26602463D01*
X40371329Y-26608652D01*
X40360287Y-26609655D01*
X40266365Y-26620291D01*
X40175776Y-26633733D01*
X40094771Y-26648761D01*
X40029599Y-26664156D01*
X39986511Y-26678698D01*
X39975976Y-26684650D01*
X39947339Y-26700752D01*
X39930466Y-26707729D01*
X39927515Y-26701886D01*
X39943081Y-26677768D01*
X39974081Y-26639699D01*
X39998347Y-26612463D01*
X40153628Y-26465896D01*
X40331877Y-26339822D01*
X40531767Y-26235059D01*
X40734374Y-26157968D01*
X40956295Y-26092130D01*
X41168021Y-26039462D01*
X41365501Y-26000752D01*
X41544685Y-25976787D01*
X41701520Y-25968354D01*
X41709908Y-25968359D01*
G37*
G36*
X43249362Y-24123474D02*
G01*
X43419174Y-24321835D01*
X43608357Y-24513059D01*
X43809919Y-24690858D01*
X44016867Y-24848947D01*
X44165884Y-24947409D01*
X44217459Y-24980323D01*
X44243874Y-25000664D01*
X44247493Y-25010689D01*
X44234277Y-25012782D01*
X44189969Y-25006626D01*
X44163939Y-24998479D01*
X44138149Y-24988226D01*
X44089455Y-24969660D01*
X44024311Y-24945216D01*
X43949170Y-24917327D01*
X43930960Y-24910611D01*
X43739212Y-24830787D01*
X43576936Y-24743241D01*
X43443151Y-24647299D01*
X43336874Y-24542290D01*
X43279655Y-24465112D01*
X43237599Y-24387465D01*
X43197006Y-24291239D01*
X43162378Y-24188967D01*
X43138219Y-24093183D01*
X43131655Y-24053136D01*
X43119983Y-23959625D01*
X43249362Y-24123474D01*
G37*
D11*
X63895000Y-46890000D03*
X63895000Y-41110000D03*
D12*
X62810000Y-47200000D03*
X62810000Y-46400000D03*
D13*
X62820000Y-45250000D03*
X62820000Y-44250000D03*
X62820000Y-43750000D03*
X62820000Y-42750000D03*
D12*
X62810000Y-41600000D03*
X62810000Y-40800000D03*
X62810000Y-40800000D03*
X62810000Y-41600000D03*
D13*
X62820000Y-42250000D03*
X62820000Y-43250000D03*
X62820000Y-44750000D03*
X62820000Y-45750000D03*
D12*
X62810000Y-46400000D03*
X62810000Y-47200000D03*
D14*
X63395000Y-48320000D03*
D15*
X67575000Y-48320000D03*
D14*
X63395000Y-39680000D03*
D15*
X67575000Y-39680000D03*
D11*
X63895000Y-28890000D03*
X63895000Y-23110000D03*
D12*
X62810000Y-29200000D03*
X62810000Y-28400000D03*
D13*
X62820000Y-27250000D03*
X62820000Y-26250000D03*
X62820000Y-25750000D03*
X62820000Y-24750000D03*
D12*
X62810000Y-23600000D03*
X62810000Y-22800000D03*
X62810000Y-22800000D03*
X62810000Y-23600000D03*
D13*
X62820000Y-24250000D03*
X62820000Y-25250000D03*
X62820000Y-26750000D03*
X62820000Y-27750000D03*
D12*
X62810000Y-28400000D03*
X62810000Y-29200000D03*
D14*
X63395000Y-30320000D03*
D15*
X67575000Y-30320000D03*
D14*
X63395000Y-21680000D03*
D15*
X67575000Y-21680000D03*
D11*
X36105000Y-23110000D03*
X36105000Y-28890000D03*
D16*
X37190000Y-22800000D03*
X37190000Y-23600000D03*
D17*
X37180000Y-24750000D03*
X37180000Y-25750000D03*
X37180000Y-26250000D03*
X37180000Y-27250000D03*
D16*
X37190000Y-28400000D03*
X37190000Y-29200000D03*
X37190000Y-29200000D03*
X37190000Y-28400000D03*
D17*
X37180000Y-27750000D03*
X37180000Y-26750000D03*
X37180000Y-25250000D03*
X37180000Y-24250000D03*
D16*
X37190000Y-23600000D03*
X37190000Y-22800000D03*
D14*
X36605000Y-21680000D03*
D15*
X32425000Y-21680000D03*
D14*
X36605000Y-30320000D03*
D15*
X32425000Y-30320000D03*
D18*
X63000000Y-36500000D03*
D19*
X53800000Y-22000000D03*
D20*
X51260000Y-22000000D03*
X48720000Y-22000000D03*
X46180000Y-22000000D03*
D21*
X58725000Y-40200000D03*
X58725000Y-39800000D03*
D22*
X58600000Y-39175000D03*
X58200000Y-39175000D03*
X57800000Y-39175000D03*
X57400000Y-39175000D03*
D21*
X57275000Y-39800000D03*
X57275000Y-40200000D03*
D22*
X57400000Y-40825000D03*
X57800000Y-40825000D03*
X58200000Y-40825000D03*
X58600000Y-40825000D03*
D23*
X35700000Y-42050000D03*
X35700000Y-43000000D03*
X35700000Y-43950000D03*
X38300000Y-43950000D03*
X38300000Y-43000000D03*
X38300000Y-42050000D03*
D24*
X50000000Y-45825000D03*
X50000000Y-44175000D03*
X53500000Y-46175000D03*
X53500000Y-47825000D03*
X55000000Y-46175000D03*
X55000000Y-47825000D03*
X59500000Y-36825000D03*
X59500000Y-35175000D03*
D25*
X53325000Y-33000000D03*
X51675000Y-33000000D03*
D26*
X36000000Y-40325000D03*
X36000000Y-38675000D03*
D24*
X34500000Y-38675000D03*
X34500000Y-40325000D03*
D27*
X56500000Y-37100000D03*
X55550000Y-34900000D03*
X57450000Y-34900000D03*
X52500000Y-37100000D03*
X51550000Y-34900000D03*
X53450000Y-34900000D03*
D28*
X41400000Y-40000000D03*
X45600000Y-40000000D03*
D29*
X53200000Y-31500000D03*
X51800000Y-31500000D03*
D30*
X50000000Y-47212500D03*
X50000000Y-48787500D03*
D31*
X45500000Y-44525000D03*
X45500000Y-47475000D03*
D32*
X33525000Y-46500000D03*
X36475000Y-46500000D03*
D33*
X39000000Y-40275000D03*
X39000000Y-38725000D03*
D31*
X42000000Y-44525000D03*
X42000000Y-47475000D03*
M02*
